<?xml version="1.0" encoding="UTF-8" standalone="no"?>
<!-- Created with Inkscape (http://www.inkscape.org/) -->

<svg
   xmlns:dc="http://purl.org/dc/elements/1.1/"
   xmlns:cc="http://creativecommons.org/ns#"
   xmlns:rdf="http://www.w3.org/1999/02/22-rdf-syntax-ns#"
   xmlns:svg="http://www.w3.org/2000/svg"
   xmlns="http://www.w3.org/2000/svg"
   xmlns:sodipodi="http://sodipodi.sourceforge.net/DTD/sodipodi-0.dtd"
   xmlns:inkscape="http://www.inkscape.org/namespaces/inkscape"
   width="24in"
   height="18in"
   viewBox="0 0 2159.9999 1619.9999"
   id="svg2"
   version="1.1"
   inkscape:version="0.91 r13725"
   sodipodi:docname="Ring_assay.svg">
  <defs
     id="defs4" />
  <sodipodi:namedview
     id="base"
     pagecolor="#ffffff"
     bordercolor="#666666"
     borderopacity="1.0"
     inkscape:pageopacity="0.0"
     inkscape:pageshadow="2"
     inkscape:zoom="0.5"
     inkscape:cx="222.8081"
     inkscape:cy="1044.3545"
     inkscape:document-units="px"
     inkscape:current-layer="g4687"
     showgrid="false"
     objecttolerance="15"
     inkscape:snap-bbox="true"
     inkscape:bbox-nodes="true"
     inkscape:bbox-paths="true"
     inkscape:snap-bbox-edge-midpoints="true"
     inkscape:snap-bbox-midpoints="true"
     gridtolerance="15"
     guidetolerance="17"
     inkscape:window-width="1909"
     inkscape:window-height="976"
     inkscape:window-x="27"
     inkscape:window-y="12"
     inkscape:window-maximized="0"
     inkscape:object-paths="true"
     inkscape:object-nodes="true"
     inkscape:snap-smooth-nodes="true"
     inkscape:snap-intersection-paths="true"
     units="in" />
  <metadata
     id="metadata7">
    <rdf:RDF>
      <cc:Work
         rdf:about="">
        <dc:format>image/svg+xml</dc:format>
        <dc:type
           rdf:resource="http://purl.org/dc/dcmitype/StillImage" />
        <dc:title />
      </cc:Work>
    </rdf:RDF>
  </metadata>
  <g
     inkscape:groupmode="layer"
     id="layer8"
     inkscape:label="RINGS"
     style="display:inline">
    <g
       style="display:inline"
       inkscape:label="chambers rings"
       id="g4687"
       inkscape:groupmode="layer">
      <path
         inkscape:connector-curvature="0"
         id="path4794"
         d="m 506.5393,420.7043 a 26.574772,26.574772 0 0 1 -26.57472,26.57474 26.574772,26.574772 0 0 1 -26.57489,-26.57474 26.574772,26.574772 0 0 1 26.57489,-26.57472 26.574772,26.574772 0 0 1 26.57472,26.57472 z"
         style="fill:none;fill-opacity:1;stroke:#000000;stroke-width:0.99999994;stroke-miterlimit:4;stroke-dasharray:none;stroke-opacity:1" />
      <path
         style="fill:none;fill-opacity:1;stroke:#000000;stroke-width:0.99999994;stroke-miterlimit:4;stroke-dasharray:none;stroke-opacity:1"
         d="m 589.04982,420.7043 a 26.574772,26.574772 0 0 1 -26.57471,26.57474 26.574772,26.574772 0 0 1 -26.57489,-26.57474 26.574772,26.574772 0 0 1 26.57489,-26.57472 26.574772,26.574772 0 0 1 26.57471,26.57472 z"
         id="path4805"
         inkscape:connector-curvature="0" />
      <path
         style="fill:none;fill-opacity:1;stroke:#000000;stroke-width:0.99999994;stroke-miterlimit:4;stroke-dasharray:none;stroke-opacity:1"
         d="m 671.56033,420.7043 a 26.574772,26.574772 0 0 1 -26.57472,26.57474 26.574772,26.574772 0 0 1 -26.57489,-26.57474 26.574772,26.574772 0 0 1 26.57489,-26.57472 26.574772,26.574772 0 0 1 26.57472,26.57472 z"
         id="path4841"
         inkscape:connector-curvature="0" />
      <path
         inkscape:connector-curvature="0"
         id="path4848"
         d="M 754.07082,420.7043 A 26.574772,26.574772 0 0 1 727.4961,447.27904 26.574772,26.574772 0 0 1 700.92121,420.7043 26.574772,26.574772 0 0 1 727.4961,394.12958 26.574772,26.574772 0 0 1 754.07082,420.7043 Z"
         style="fill:none;fill-opacity:1;stroke:#000000;stroke-width:0.99999994;stroke-miterlimit:4;stroke-dasharray:none;stroke-opacity:1" />
      <path
         style="fill:none;fill-opacity:1;stroke:#000000;stroke-width:0.99999994;stroke-miterlimit:4;stroke-dasharray:none;stroke-opacity:1"
         d="m 836.58134,420.7043 a 26.574772,26.574772 0 0 1 -26.57472,26.57474 26.574772,26.574772 0 0 1 -26.57489,-26.57474 26.574772,26.574772 0 0 1 26.57489,-26.57472 26.574772,26.574772 0 0 1 26.57472,26.57472 z"
         id="path4854"
         inkscape:connector-curvature="0" />
      <path
         inkscape:connector-curvature="0"
         id="path4860"
         d="m 919.09181,420.7043 a 26.574772,26.574772 0 0 1 -26.57472,26.57474 26.574772,26.574772 0 0 1 -26.57489,-26.57474 26.574772,26.574772 0 0 1 26.57489,-26.57472 26.574772,26.574772 0 0 1 26.57472,26.57472 z"
         style="fill:none;fill-opacity:1;stroke:#000000;stroke-width:0.99999994;stroke-miterlimit:4;stroke-dasharray:none;stroke-opacity:1" />
      <path
         style="fill:none;fill-opacity:1;stroke:#000000;stroke-width:0.99999994;stroke-miterlimit:4;stroke-dasharray:none;stroke-opacity:1"
         d="m 1001.6024,420.7043 a 26.574772,26.574772 0 0 1 -26.57477,26.57474 26.574772,26.574772 0 0 1 -26.57489,-26.57474 26.574772,26.574772 0 0 1 26.57489,-26.57472 26.574772,26.574772 0 0 1 26.57477,26.57472 z"
         id="path4866"
         inkscape:connector-curvature="0" />
      <path
         style="fill:none;fill-opacity:1;stroke:#000000;stroke-width:0.99999994;stroke-miterlimit:4;stroke-dasharray:none;stroke-opacity:1"
         d="m 506.5393,509.03699 a 26.574772,26.574772 0 0 1 -26.57472,26.57475 26.574772,26.574772 0 0 1 -26.57489,-26.57475 26.574772,26.574772 0 0 1 26.57489,-26.57472 26.574772,26.574772 0 0 1 26.57472,26.57472 z"
         id="path4993"
         inkscape:connector-curvature="0" />
      <path
         inkscape:connector-curvature="0"
         id="path4997"
         d="m 589.04982,509.03699 a 26.574772,26.574772 0 0 1 -26.57471,26.57475 26.574772,26.574772 0 0 1 -26.57489,-26.57475 26.574772,26.574772 0 0 1 26.57489,-26.57472 26.574772,26.574772 0 0 1 26.57471,26.57472 z"
         style="fill:none;fill-opacity:1;stroke:#000000;stroke-width:0.99999994;stroke-miterlimit:4;stroke-dasharray:none;stroke-opacity:1" />
      <path
         inkscape:connector-curvature="0"
         id="path5001"
         d="m 671.56033,509.03699 a 26.574772,26.574772 0 0 1 -26.57472,26.57475 26.574772,26.574772 0 0 1 -26.57489,-26.57475 26.574772,26.574772 0 0 1 26.57489,-26.57472 26.574772,26.574772 0 0 1 26.57472,26.57472 z"
         style="fill:none;fill-opacity:1;stroke:#000000;stroke-width:0.99999994;stroke-miterlimit:4;stroke-dasharray:none;stroke-opacity:1" />
      <path
         style="fill:none;fill-opacity:1;stroke:#000000;stroke-width:0.99999994;stroke-miterlimit:4;stroke-dasharray:none;stroke-opacity:1"
         d="m 754.07082,509.03699 a 26.574772,26.574772 0 0 1 -26.57472,26.57475 26.574772,26.574772 0 0 1 -26.57489,-26.57475 26.574772,26.574772 0 0 1 26.57489,-26.57472 26.574772,26.574772 0 0 1 26.57472,26.57472 z"
         id="path5005"
         inkscape:connector-curvature="0" />
      <path
         inkscape:connector-curvature="0"
         id="path5009"
         d="m 836.58134,509.03699 a 26.574772,26.574772 0 0 1 -26.57472,26.57475 26.574772,26.574772 0 0 1 -26.57489,-26.57475 26.574772,26.574772 0 0 1 26.57489,-26.57472 26.574772,26.574772 0 0 1 26.57472,26.57472 z"
         style="fill:none;fill-opacity:1;stroke:#000000;stroke-width:0.99999994;stroke-miterlimit:4;stroke-dasharray:none;stroke-opacity:1" />
      <path
         style="fill:none;fill-opacity:1;stroke:#000000;stroke-width:0.99999994;stroke-miterlimit:4;stroke-dasharray:none;stroke-opacity:1"
         d="m 919.09181,509.03699 a 26.574772,26.574772 0 0 1 -26.57472,26.57475 26.574772,26.574772 0 0 1 -26.57489,-26.57475 26.574772,26.574772 0 0 1 26.57489,-26.57472 26.574772,26.574772 0 0 1 26.57472,26.57472 z"
         id="path5013"
         inkscape:connector-curvature="0" />
      <path
         inkscape:connector-curvature="0"
         id="path5017"
         d="m 1001.6024,509.03699 a 26.574772,26.574772 0 0 1 -26.57477,26.57475 26.574772,26.574772 0 0 1 -26.57489,-26.57475 26.574772,26.574772 0 0 1 26.57489,-26.57472 26.574772,26.574772 0 0 1 26.57477,26.57472 z"
         style="fill:none;fill-opacity:1;stroke:#000000;stroke-width:0.99999994;stroke-miterlimit:4;stroke-dasharray:none;stroke-opacity:1" />
      <path
         inkscape:connector-curvature="0"
         id="path5023"
         d="m 506.5393,597.36979 a 26.574772,26.574772 0 0 1 -26.57472,26.57474 26.574772,26.574772 0 0 1 -26.57489,-26.57474 26.574772,26.574772 0 0 1 26.57489,-26.57472 26.574772,26.574772 0 0 1 26.57472,26.57472 z"
         style="fill:none;fill-opacity:1;stroke:#000000;stroke-width:0.99999994;stroke-miterlimit:4;stroke-dasharray:none;stroke-opacity:1" />
      <path
         style="fill:none;fill-opacity:1;stroke:#000000;stroke-width:0.99999994;stroke-miterlimit:4;stroke-dasharray:none;stroke-opacity:1"
         d="m 589.04982,597.36979 a 26.574772,26.574772 0 0 1 -26.57471,26.57474 26.574772,26.574772 0 0 1 -26.57489,-26.57474 26.574772,26.574772 0 0 1 26.57489,-26.57472 26.574772,26.574772 0 0 1 26.57471,26.57472 z"
         id="path5027"
         inkscape:connector-curvature="0" />
      <path
         style="fill:none;fill-opacity:1;stroke:#000000;stroke-width:0.99999994;stroke-miterlimit:4;stroke-dasharray:none;stroke-opacity:1"
         d="m 671.56033,597.36979 a 26.574772,26.574772 0 0 1 -26.57472,26.57474 26.574772,26.574772 0 0 1 -26.57489,-26.57474 26.574772,26.574772 0 0 1 26.57489,-26.57472 26.574772,26.574772 0 0 1 26.57472,26.57472 z"
         id="path5031"
         inkscape:connector-curvature="0" />
      <path
         inkscape:connector-curvature="0"
         id="path5035"
         d="m 754.07082,597.36979 a 26.574772,26.574772 0 0 1 -26.57472,26.57474 26.574772,26.574772 0 0 1 -26.57489,-26.57474 26.574772,26.574772 0 0 1 26.57489,-26.57472 26.574772,26.574772 0 0 1 26.57472,26.57472 z"
         style="fill:none;fill-opacity:1;stroke:#000000;stroke-width:0.99999994;stroke-miterlimit:4;stroke-dasharray:none;stroke-opacity:1" />
      <path
         style="fill:none;fill-opacity:1;stroke:#000000;stroke-width:0.99999994;stroke-miterlimit:4;stroke-dasharray:none;stroke-opacity:1"
         d="m 836.58134,597.36979 a 26.574772,26.574772 0 0 1 -26.57472,26.57474 26.574772,26.574772 0 0 1 -26.57489,-26.57474 26.574772,26.574772 0 0 1 26.57489,-26.57472 26.574772,26.574772 0 0 1 26.57472,26.57472 z"
         id="path5039"
         inkscape:connector-curvature="0" />
      <path
         inkscape:connector-curvature="0"
         id="path5043"
         d="m 919.09181,597.36979 a 26.574772,26.574772 0 0 1 -26.57472,26.57474 26.574772,26.574772 0 0 1 -26.57489,-26.57474 26.574772,26.574772 0 0 1 26.57489,-26.57472 26.574772,26.574772 0 0 1 26.57472,26.57472 z"
         style="fill:none;fill-opacity:1;stroke:#000000;stroke-width:0.99999994;stroke-miterlimit:4;stroke-dasharray:none;stroke-opacity:1" />
      <path
         style="fill:none;fill-opacity:1;stroke:#000000;stroke-width:0.99999994;stroke-miterlimit:4;stroke-dasharray:none;stroke-opacity:1"
         d="m 1001.6024,597.36979 a 26.574772,26.574772 0 0 1 -26.57477,26.57474 26.574772,26.574772 0 0 1 -26.57489,-26.57474 26.574772,26.574772 0 0 1 26.57489,-26.57472 26.574772,26.574772 0 0 1 26.57477,26.57472 z"
         id="path5047"
         inkscape:connector-curvature="0" />
      <path
         style="fill:none;fill-opacity:1;stroke:#000000;stroke-width:0.99999994;stroke-miterlimit:4;stroke-dasharray:none;stroke-opacity:1"
         d="m 506.5393,685.70251 a 26.574772,26.574772 0 0 1 -26.57472,26.57474 26.574772,26.574772 0 0 1 -26.57489,-26.57474 26.574772,26.574772 0 0 1 26.57489,-26.57472 26.574772,26.574772 0 0 1 26.57472,26.57472 z"
         id="path5053"
         inkscape:connector-curvature="0" />
      <path
         inkscape:connector-curvature="0"
         id="path5057"
         d="m 589.04982,685.70251 a 26.574772,26.574772 0 0 1 -26.57471,26.57474 26.574772,26.574772 0 0 1 -26.57489,-26.57474 26.574772,26.574772 0 0 1 26.57489,-26.57472 26.574772,26.574772 0 0 1 26.57471,26.57472 z"
         style="fill:none;fill-opacity:1;stroke:#000000;stroke-width:0.99999994;stroke-miterlimit:4;stroke-dasharray:none;stroke-opacity:1" />
      <path
         inkscape:connector-curvature="0"
         id="path5061"
         d="m 671.56033,685.70251 a 26.574772,26.574772 0 0 1 -26.57472,26.57474 26.574772,26.574772 0 0 1 -26.57489,-26.57474 26.574772,26.574772 0 0 1 26.57489,-26.57472 26.574772,26.574772 0 0 1 26.57472,26.57472 z"
         style="fill:none;fill-opacity:1;stroke:#000000;stroke-width:0.99999994;stroke-miterlimit:4;stroke-dasharray:none;stroke-opacity:1" />
      <path
         style="fill:none;fill-opacity:1;stroke:#000000;stroke-width:0.99999994;stroke-miterlimit:4;stroke-dasharray:none;stroke-opacity:1"
         d="m 754.07082,685.70251 a 26.574772,26.574772 0 0 1 -26.57472,26.57474 26.574772,26.574772 0 0 1 -26.57489,-26.57474 26.574772,26.574772 0 0 1 26.57489,-26.57472 26.574772,26.574772 0 0 1 26.57472,26.57472 z"
         id="path5065"
         inkscape:connector-curvature="0" />
      <path
         inkscape:connector-curvature="0"
         id="path5069"
         d="m 836.58134,685.70251 a 26.574772,26.574772 0 0 1 -26.57472,26.57474 26.574772,26.574772 0 0 1 -26.57489,-26.57474 26.574772,26.574772 0 0 1 26.57489,-26.57472 26.574772,26.574772 0 0 1 26.57472,26.57472 z"
         style="fill:none;fill-opacity:1;stroke:#000000;stroke-width:0.99999994;stroke-miterlimit:4;stroke-dasharray:none;stroke-opacity:1" />
      <path
         style="fill:none;fill-opacity:1;stroke:#000000;stroke-width:0.99999994;stroke-miterlimit:4;stroke-dasharray:none;stroke-opacity:1"
         d="m 919.09181,685.70251 a 26.574772,26.574772 0 0 1 -26.57472,26.57474 26.574772,26.574772 0 0 1 -26.57489,-26.57474 26.574772,26.574772 0 0 1 26.57489,-26.57472 26.574772,26.574772 0 0 1 26.57472,26.57472 z"
         id="path5073"
         inkscape:connector-curvature="0" />
      <path
         inkscape:connector-curvature="0"
         id="path5077"
         d="m 1001.6024,685.70251 a 26.574772,26.574772 0 0 1 -26.57477,26.57474 26.574772,26.574772 0 0 1 -26.57489,-26.57474 26.574772,26.574772 0 0 1 26.57489,-26.57472 26.574772,26.574772 0 0 1 26.57477,26.57472 z"
         style="fill:none;fill-opacity:1;stroke:#000000;stroke-width:0.99999994;stroke-miterlimit:4;stroke-dasharray:none;stroke-opacity:1" />
      <path
         inkscape:connector-curvature="0"
         id="path5083"
         d="m 506.5393,774.03522 a 26.574772,26.574772 0 0 1 -26.57472,26.57474 26.574772,26.574772 0 0 1 -26.57489,-26.57474 26.574772,26.574772 0 0 1 26.57489,-26.57472 26.574772,26.574772 0 0 1 26.57472,26.57472 z"
         style="fill:none;fill-opacity:1;stroke:#000000;stroke-width:0.99999994;stroke-miterlimit:4;stroke-dasharray:none;stroke-opacity:1" />
      <path
         style="fill:none;fill-opacity:1;stroke:#000000;stroke-width:0.99999994;stroke-miterlimit:4;stroke-dasharray:none;stroke-opacity:1"
         d="m 589.04982,774.03522 a 26.574772,26.574772 0 0 1 -26.57471,26.57474 26.574772,26.574772 0 0 1 -26.57489,-26.57474 26.574772,26.574772 0 0 1 26.57489,-26.57472 26.574772,26.574772 0 0 1 26.57471,26.57472 z"
         id="path5087"
         inkscape:connector-curvature="0" />
      <path
         style="fill:none;fill-opacity:1;stroke:#000000;stroke-width:0.99999994;stroke-miterlimit:4;stroke-dasharray:none;stroke-opacity:1"
         d="m 671.56033,774.03522 a 26.574772,26.574772 0 0 1 -26.57472,26.57474 26.574772,26.574772 0 0 1 -26.57489,-26.57474 26.574772,26.574772 0 0 1 26.57489,-26.57472 26.574772,26.574772 0 0 1 26.57472,26.57472 z"
         id="path5091"
         inkscape:connector-curvature="0" />
      <path
         inkscape:connector-curvature="0"
         id="path5095"
         d="m 754.07082,774.03522 a 26.574772,26.574772 0 0 1 -26.57472,26.57474 26.574772,26.574772 0 0 1 -26.57489,-26.57474 26.574772,26.574772 0 0 1 26.57489,-26.57472 26.574772,26.574772 0 0 1 26.57472,26.57472 z"
         style="fill:none;fill-opacity:1;stroke:#000000;stroke-width:0.99999994;stroke-miterlimit:4;stroke-dasharray:none;stroke-opacity:1" />
      <path
         style="fill:none;fill-opacity:1;stroke:#000000;stroke-width:0.99999994;stroke-miterlimit:4;stroke-dasharray:none;stroke-opacity:1"
         d="m 836.58134,774.03522 a 26.574772,26.574772 0 0 1 -26.57472,26.57474 26.574772,26.574772 0 0 1 -26.57489,-26.57474 26.574772,26.574772 0 0 1 26.57489,-26.57472 26.574772,26.574772 0 0 1 26.57472,26.57472 z"
         id="path5099"
         inkscape:connector-curvature="0" />
      <path
         inkscape:connector-curvature="0"
         id="path5103"
         d="m 919.09181,774.03522 a 26.574772,26.574772 0 0 1 -26.57472,26.57474 26.574772,26.574772 0 0 1 -26.57489,-26.57474 26.574772,26.574772 0 0 1 26.57489,-26.57472 26.574772,26.574772 0 0 1 26.57472,26.57472 z"
         style="fill:none;fill-opacity:1;stroke:#000000;stroke-width:0.99999994;stroke-miterlimit:4;stroke-dasharray:none;stroke-opacity:1" />
      <path
         style="fill:none;fill-opacity:1;stroke:#000000;stroke-width:0.99999994;stroke-miterlimit:4;stroke-dasharray:none;stroke-opacity:1"
         d="m 1001.6024,774.03522 a 26.574772,26.574772 0 0 1 -26.57477,26.57474 26.574772,26.574772 0 0 1 -26.57489,-26.57474 26.574772,26.574772 0 0 1 26.57489,-26.57472 26.574772,26.574772 0 0 1 26.57477,26.57472 z"
         id="path5107"
         inkscape:connector-curvature="0" />
      <rect
         y="314.40524"
         x="373.66528"
         height="565.92914"
         width="707.66144"
         id="rect4653"
         style="color:#000000;clip-rule:nonzero;display:inline;overflow:visible;visibility:visible;opacity:1;isolation:auto;mix-blend-mode:normal;color-interpolation:sRGB;color-interpolation-filters:linearRGB;solid-color:#000000;solid-opacity:1;fill:none;fill-opacity:1;fill-rule:evenodd;stroke:#000000;stroke-width:1;stroke-linecap:butt;stroke-linejoin:miter;stroke-miterlimit:4;stroke-dasharray:none;stroke-dashoffset:0;stroke-opacity:1;color-rendering:auto;image-rendering:auto;shape-rendering:auto;text-rendering:auto;enable-background:accumulate" />
    </g>
    <g
       style="display:inline"
       inkscape:label="back rings"
       id="g5286"
       inkscape:groupmode="layer">
      <path
         inkscape:connector-curvature="0"
         style="display:inline;fill:none;fill-opacity:1;stroke:#000000;stroke-width:1;stroke-miterlimit:4;stroke-dasharray:none;stroke-opacity:1"
         d="m 244.6811,237.72415 a 11.476377,11.476377 0 0 1 -11.4764,11.47638 11.476377,11.476377 0 0 1 -11.4763,-11.47638 11.476377,11.476377 0 0 1 11.4763,-11.47638 11.476377,11.476377 0 0 1 11.4764,11.47638 z"
         id="path5288" />
      <path
         id="path5290"
         d="m 1233.2637,237.72415 a 11.476377,11.476377 0 0 1 -11.4764,11.47638 11.476377,11.476377 0 0 1 -11.4763,-11.47638 11.476377,11.476377 0 0 1 11.4763,-11.47638 11.476377,11.476377 0 0 1 11.4764,11.47638 z"
         style="display:inline;fill:none;fill-opacity:1;stroke:#000000;stroke-width:1;stroke-miterlimit:4;stroke-dasharray:none;stroke-opacity:1"
         inkscape:connector-curvature="0" />
      <path
         id="path5292"
         d="m 244.6811,957.01547 a 11.476377,11.476377 0 0 0 -11.4764,-11.47637 11.476377,11.476377 0 0 0 -11.4763,11.47637 11.476377,11.476377 0 0 0 11.4763,11.47638 11.476377,11.476377 0 0 0 11.4764,-11.47638 z"
         style="display:inline;fill:none;fill-opacity:1;stroke:#000000;stroke-width:1;stroke-miterlimit:4;stroke-dasharray:none;stroke-opacity:1"
         inkscape:connector-curvature="0" />
      <path
         inkscape:connector-curvature="0"
         style="display:inline;fill:none;fill-opacity:1;stroke:#000000;stroke-width:1;stroke-miterlimit:4;stroke-dasharray:none;stroke-opacity:1"
         d="m 1233.2637,957.01547 a 11.476377,11.476377 0 0 0 -11.4764,-11.47637 11.476377,11.476377 0 0 0 -11.4763,11.47637 11.476377,11.476377 0 0 0 11.4763,11.47638 11.476377,11.476377 0 0 0 11.4764,-11.47638 z"
         id="path5294" />
      <rect
         style="color:#000000;clip-rule:nonzero;display:inline;overflow:visible;visibility:visible;opacity:1;isolation:auto;mix-blend-mode:normal;color-interpolation:sRGB;color-interpolation-filters:linearRGB;solid-color:#000000;solid-opacity:1;fill:none;fill-opacity:1;fill-rule:nonzero;stroke:#000000;stroke-width:1;stroke-linecap:butt;stroke-linejoin:miter;stroke-miterlimit:4;stroke-dasharray:none;stroke-dashoffset:0;stroke-opacity:1;color-rendering:auto;image-rendering:auto;shape-rendering:auto;text-rendering:auto;enable-background:accumulate"
         id="rect5296"
         width="1062.9922"
         height="921.25977"
         x="196"
         y="136.74017" />
      <path
         style="display:inline;fill:none;fill-opacity:1;stroke:#000000;stroke-width:1;stroke-miterlimit:4;stroke-dasharray:none;stroke-opacity:1"
         d="m 400.94874,845.40131 a 7.6496062,7.6496062 0 0 0 7.64961,7.64961 7.6496062,7.6496062 0 0 0 7.64961,-7.64961 7.6496062,7.6496062 0 0 0 -7.64961,-7.64961 7.6496062,7.6496062 0 0 0 -7.64961,7.64961 z"
         id="path5298"
         inkscape:connector-curvature="0" />
      <path
         style="display:inline;fill:none;fill-opacity:1;stroke:#000000;stroke-width:1;stroke-miterlimit:4;stroke-dasharray:none;stroke-opacity:1"
         d="m 1054.0433,845.40131 a 7.6496062,7.6496062 0 0 1 -7.6496,7.64961 7.6496062,7.6496062 0 0 1 -7.6496,-7.64961 7.6496062,7.6496062 0 0 1 7.6496,-7.64961 7.6496062,7.6496062 0 0 1 7.6496,7.64961 z"
         id="path5300"
         inkscape:connector-curvature="0" />
      <path
         style="display:inline;fill:none;fill-opacity:1;stroke:#000000;stroke-width:1;stroke-miterlimit:4;stroke-dasharray:none;stroke-opacity:1"
         d="m 1054.0433,349.33829 a 7.6496062,7.6496062 0 0 1 -7.6496,7.6496 7.6496062,7.6496062 0 0 1 -7.6496,-7.6496 7.6496062,7.6496062 0 0 1 7.6496,-7.64961 7.6496062,7.6496062 0 0 1 7.6496,7.64961 z"
         id="path5302"
         inkscape:connector-curvature="0" />
      <path
         style="display:inline;fill:none;fill-opacity:1;stroke:#000000;stroke-width:1;stroke-miterlimit:4;stroke-dasharray:none;stroke-opacity:1"
         d="m 416.24796,349.33829 a 7.6496062,7.6496062 0 0 1 -7.64961,7.6496 7.6496062,7.6496062 0 0 1 -7.64961,-7.6496 7.6496062,7.6496062 0 0 1 7.64961,-7.64961 7.6496062,7.6496062 0 0 1 7.64961,7.64961 z"
         id="path5304"
         inkscape:connector-curvature="0" />
      <path
         style="display:inline;fill:none;fill-opacity:1;stroke:#000000;stroke-width:1;stroke-miterlimit:4;stroke-dasharray:none;stroke-opacity:1"
         d="m 400.94874,597.36975 a 7.6496062,7.6496062 0 0 0 7.64961,7.64961 7.6496062,7.6496062 0 0 0 7.64961,-7.64961 7.6496062,7.6496062 0 0 0 -7.64961,-7.6496 7.6496062,7.6496062 0 0 0 -7.64961,7.6496 z"
         id="path5306"
         inkscape:connector-curvature="0" />
      <path
         style="display:inline;fill:none;fill-opacity:1;stroke:#000000;stroke-width:1;stroke-miterlimit:4;stroke-dasharray:none;stroke-opacity:1"
         d="m 1054.0433,597.36975 a 7.6496062,7.6496062 0 0 1 -7.6496,7.64961 7.6496062,7.6496062 0 0 1 -7.6496,-7.64961 7.6496062,7.6496062 0 0 1 7.6496,-7.6496 7.6496062,7.6496062 0 0 1 7.6496,7.6496 z"
         id="path5308"
         inkscape:connector-curvature="0" />
      <path
         style="display:inline;fill:none;fill-opacity:1;stroke:#000000;stroke-width:1;stroke-miterlimit:4;stroke-dasharray:none;stroke-opacity:1"
         d="m 613.54716,845.40131 a 7.6496062,7.6496062 0 0 0 7.64961,7.64961 7.6496062,7.6496062 0 0 0 7.64961,-7.64961 7.6496062,7.6496062 0 0 0 -7.64961,-7.64961 7.6496062,7.6496062 0 0 0 -7.64961,7.64961 z"
         id="path5310"
         inkscape:connector-curvature="0" />
      <path
         style="display:inline;fill:none;fill-opacity:1;stroke:#000000;stroke-width:1;stroke-miterlimit:4;stroke-dasharray:none;stroke-opacity:1"
         d="m 826.14559,845.40131 a 7.6496062,7.6496062 0 0 0 7.6497,7.64961 7.6496062,7.6496062 0 0 0 7.6496,-7.64961 7.6496062,7.6496062 0 0 0 -7.6496,-7.64961 7.6496062,7.6496062 0 0 0 -7.6497,7.64961 z"
         id="path5312"
         inkscape:connector-curvature="0" />
      <path
         style="display:inline;fill:none;fill-opacity:1;stroke:#000000;stroke-width:1;stroke-miterlimit:4;stroke-dasharray:none;stroke-opacity:1"
         d="m 628.84638,349.33829 a 7.6496062,7.6496062 0 0 1 -7.64961,7.6496 7.6496062,7.6496062 0 0 1 -7.64961,-7.6496 7.6496062,7.6496062 0 0 1 7.64961,-7.64961 7.6496062,7.6496062 0 0 1 7.64961,7.64961 z"
         id="path5314"
         inkscape:connector-curvature="0" />
      <path
         style="display:inline;fill:none;fill-opacity:1;stroke:#000000;stroke-width:1;stroke-miterlimit:4;stroke-dasharray:none;stroke-opacity:1"
         d="m 841.44489,349.33829 a 7.6496062,7.6496062 0 0 1 -7.6496,7.6496 7.6496062,7.6496062 0 0 1 -7.6497,-7.6496 7.6496062,7.6496062 0 0 1 7.6497,-7.64961 7.6496062,7.6496062 0 0 1 7.6496,7.64961 z"
         id="path5316"
         inkscape:connector-curvature="0" />
    </g>
  </g>
</svg>
