999
dxfrw 0.5.10
0
SECTION
2
HEADER
9
$ACADVER
1
AC1021
9
$HANDSEED
5
20000
9
$DWGCODEPAGE
3
ANSI_1252
9
$INSBASE
10
0
20
0
30
0
9
$EXTMIN
10
-0.756146142391
20
0.0126663373209
30
0
9
$EXTMAX
10
12.8827404738
20
11.23622
30
0
9
$LIMMIN
10
0
20
0
9
$LIMMAX
10
420
20
297
9
$ORTHOMODE
70
0
9
$LTSCALE
40
1
9
$TEXTSTYLE
7
STANDARD
9
$CLAYER
8
dimensions
9
$DIMASZ
40
0.25
9
$DIMLFAC
40
1
9
$DIMSCALE
40
1
9
$DIMEXO
40
0.025
9
$DIMEXE
40
0.05
9
$DIMTXT
40
0.25
9
$DIMTSZ
40
0
9
$DIMAUNIT
70
0
9
$DIMADEC
70
2
9
$DIMLUNIT
70
2
9
$DIMSTYLE
2
Standard
9
$DIMGAP
40
0.025
9
$DIMTIH
70
0
9
$LUNITS
70
2
9
$LUPREC
70
4
9
$AUNITS
70
0
9
$AUPREC
70
2
9
$SPLINESEGS
70
8
9
$GRIDMODE
70
1
9
$SNAPSTYLE
70
0
9
$GRIDUNIT
10
0
20
0
9
$PINSBASE
10
0
20
0
30
0
9
$PLIMMIN
10
0
20
0
9
$PLIMMAX
10
1.878711e-12
20
2.657094e-12
9
$INSUNITS
70
1
9
$PSVPSCALE
40
1
0
ENDSEC
0
SECTION
2
CLASSES
0
ENDSEC
0
SECTION
2
TABLES
0
TABLE
2
VPORT
5
8
330
0
100
AcDbSymbolTable
70
1
0
VPORT
5
31
330
2
100
AcDbSymbolTableRecord
100
AcDbViewportTableRecord
2
*ACTIVE
70
0
10
0
20
0
11
1
21
1
12
12.902553252
22
6.563148475
13
0
23
0
14
10
24
10
15
10
25
10
16
0
26
0
36
1
17
0
27
0
37
0
40
16.7061961182
41
1.64413265306
42
50
43
0
44
0
50
0
51
0
71
0
72
100
73
1
74
3
75
0
76
1
77
0
78
0
281
0
65
1
110
0
120
0
130
0
111
1
121
0
131
0
112
0
122
1
132
0
79
0
146
0
348
10020
60
7
61
5
292
1
282
1
141
0
142
0
63
250
421
3358443
0
ENDTAB
0
TABLE
2
LTYPE
5
5
330
0
100
AcDbSymbolTable
70
4
0
LTYPE
5
14
330
5
100
AcDbSymbolTableRecord
100
AcDbLinetypeTableRecord
2
ByBlock
70
0
3

72
65
73
0
40
0
0
LTYPE
5
15
330
5
100
AcDbSymbolTableRecord
100
AcDbLinetypeTableRecord
2
ByLayer
70
0
3

72
65
73
0
40
0
0
LTYPE
5
16
330
5
100
AcDbSymbolTableRecord
100
AcDbLinetypeTableRecord
2
Continuous
70
0
3
Solid line
72
65
73
0
40
0
0
LTYPE
5
32
330
5
100
AcDbSymbolTableRecord
100
AcDbLinetypeTableRecord
2
DOT
70
0
3
Dot . . . . . . . . . . . . . . . . . . . . . .
72
65
73
2
40
6.35
49
0
74
0
49
-6.35
74
0
0
LTYPE
5
33
330
5
100
AcDbSymbolTableRecord
100
AcDbLinetypeTableRecord
2
DOT2
70
0
3
Dot (.5x) .....................................
72
65
73
2
40
3.175
49
0
74
0
49
-3.175
74
0
0
LTYPE
5
34
330
5
100
AcDbSymbolTableRecord
100
AcDbLinetypeTableRecord
2
DOTX2
70
0
3
Dot (2x) .  .  .  .  .  .  .  .  .  .  .  .  .
72
65
73
2
40
12.7
49
0
74
0
49
-12.7
74
0
0
LTYPE
5
35
330
5
100
AcDbSymbolTableRecord
100
AcDbLinetypeTableRecord
2
DASHED
70
0
3
Dot . . . . . . . . . . . . . . . . . . . . . .
72
65
73
2
40
19.05
49
12.7
74
0
49
-6.35
74
0
0
LTYPE
5
36
330
5
100
AcDbSymbolTableRecord
100
AcDbLinetypeTableRecord
2
DASHED2
70
0
3
Dashed (.5x) _ _ _ _ _ _ _ _ _ _ _ _ _ _ _ _ _
72
65
73
2
40
9.525
49
6.35
74
0
49
-3.175
74
0
0
LTYPE
5
37
330
5
100
AcDbSymbolTableRecord
100
AcDbLinetypeTableRecord
2
DASHEDX2
70
0
3
Dashed (2x) ____  ____  ____  ____  ____  ___
72
65
73
2
40
38.1
49
25.4
74
0
49
-12.7
74
0
0
LTYPE
5
38
330
5
100
AcDbSymbolTableRecord
100
AcDbLinetypeTableRecord
2
DASHDOT
70
0
3
Dash dot __ . __ . __ . __ . __ . __ . __ . __
72
65
73
4
40
25.4
49
12.7
74
0
49
-6.35
74
0
49
0
74
0
49
-6.35
74
0
0
LTYPE
5
39
330
5
100
AcDbSymbolTableRecord
100
AcDbLinetypeTableRecord
2
DASHDOT2
70
0
3
Dash dot (.5x) _._._._._._._._._._._._._._._.
72
65
73
4
40
12.7
49
6.35
74
0
49
-3.175
74
0
49
0
74
0
49
-3.175
74
0
0
LTYPE
5
3A
330
5
100
AcDbSymbolTableRecord
100
AcDbLinetypeTableRecord
2
DASHDOTX2
70
0
3
Dash dot (2x) ____  .  ____  .  ____  .  ___
72
65
73
4
40
50.8
49
25.4
74
0
49
-12.7
74
0
49
0
74
0
49
-12.7
74
0
0
LTYPE
5
3B
330
5
100
AcDbSymbolTableRecord
100
AcDbLinetypeTableRecord
2
DIVIDE
70
0
3
Divide ____ . . ____ . . ____ . . ____ . . ____
72
65
73
6
40
31.75
49
12.7
74
0
49
-6.35
74
0
49
0
74
0
49
-6.35
74
0
49
0
74
0
49
-6.35
74
0
0
LTYPE
5
3C
330
5
100
AcDbSymbolTableRecord
100
AcDbLinetypeTableRecord
2
DIVIDE2
70
0
3
Divide (.5x) __..__..__..__..__..__..__..__.._
72
65
73
6
40
15.875
49
6.35
74
0
49
-3.175
74
0
49
0
74
0
49
-3.175
74
0
49
0
74
0
49
-3.175
74
0
0
LTYPE
5
3D
330
5
100
AcDbSymbolTableRecord
100
AcDbLinetypeTableRecord
2
DIVIDEX2
70
0
3
Divide (2x) ________  .  .  ________  .  .  _
72
65
73
6
40
63.5
49
25.4
74
0
49
-12.7
74
0
49
0
74
0
49
-12.7
74
0
49
0
74
0
49
-12.7
74
0
0
LTYPE
5
3E
330
5
100
AcDbSymbolTableRecord
100
AcDbLinetypeTableRecord
2
BORDER
70
0
3
Border __ __ . __ __ . __ __ . __ __ . __ __ .
72
65
73
6
40
44.45
49
12.7
74
0
49
-6.35
74
0
49
12.7
74
0
49
-6.35
74
0
49
0
74
0
49
-6.35
74
0
0
LTYPE
5
3F
330
5
100
AcDbSymbolTableRecord
100
AcDbLinetypeTableRecord
2
BORDER2
70
0
3
Border (.5x) __.__.__.__.__.__.__.__.__.__.__.
72
65
73
6
40
22.225
49
6.35
74
0
49
-3.175
74
0
49
6.35
74
0
49
-3.175
74
0
49
0
74
0
49
-3.175
74
0
0
LTYPE
5
40
330
5
100
AcDbSymbolTableRecord
100
AcDbLinetypeTableRecord
2
BORDERX2
70
0
3
Border (2x) ____  ____  .  ____  ____  .  ___
72
65
73
6
40
88.9
49
25.4
74
0
49
-12.7
74
0
49
25.4
74
0
49
-12.7
74
0
49
0
74
0
49
-12.7
74
0
0
LTYPE
5
41
330
5
100
AcDbSymbolTableRecord
100
AcDbLinetypeTableRecord
2
CENTER
70
0
3
Center ____ _ ____ _ ____ _ ____ _ ____ _ ____
72
65
73
4
40
50.8
49
31.75
74
0
49
-6.35
74
0
49
6.35
74
0
49
-6.35
74
0
0
LTYPE
5
42
330
5
100
AcDbSymbolTableRecord
100
AcDbLinetypeTableRecord
2
CENTER2
70
0
3
Center (.5x) ___ _ ___ _ ___ _ ___ _ ___ _ ___
72
65
73
4
40
28.575
49
19.05
74
0
49
-3.175
74
0
49
3.175
74
0
49
-3.175
74
0
0
LTYPE
5
43
330
5
100
AcDbSymbolTableRecord
100
AcDbLinetypeTableRecord
2
CENTERX2
70
0
3
Center (2x) ________  __  ________  __  _____
72
65
73
4
40
101.6
49
63.5
74
0
49
-12.7
74
0
49
12.7
74
0
49
-12.7
74
0
0
ENDTAB
0
TABLE
2
LAYER
5
2
330
0
100
AcDbSymbolTable
70
1
0
LAYER
5
10
330
2
100
AcDbSymbolTableRecord
100
AcDbLayerTableRecord
2
0
70
0
62
7
6
CONTINUOUS
370
-3
390
F
0
LAYER
5
44
330
2
100
AcDbSymbolTableRecord
100
AcDbLayerTableRecord
2
construction
70
0
62
8
6
CONTINUOUS
370
0
390
F
0
LAYER
5
45
330
2
100
AcDbSymbolTableRecord
100
AcDbLayerTableRecord
2
dimensions
70
0
62
253
420
10526884
6
CONTINUOUS
370
0
390
F
0
LAYER
5
46
330
2
100
AcDbSymbolTableRecord
100
AcDbLayerTableRecord
2
disk_boundary
70
0
62
2
6
CONTINUOUS
370
0
390
F
0
LAYER
5
47
330
2
100
AcDbSymbolTableRecord
100
AcDbLayerTableRecord
2
fixture_hole
70
0
62
40
420
16755200
6
CONTINUOUS
370
0
390
F
0
LAYER
5
48
330
2
100
AcDbSymbolTableRecord
100
AcDbLayerTableRecord
2
inner_boundary
70
0
62
5
6
CONTINUOUS
370
0
390
F
0
LAYER
5
49
330
2
100
AcDbSymbolTableRecord
100
AcDbLayerTableRecord
2
mount_hole_1/4-20
70
0
62
6
6
CONTINUOUS
370
0
390
F
0
LAYER
5
4A
330
2
100
AcDbSymbolTableRecord
100
AcDbLayerTableRecord
2
mount_hole_8-32
70
0
62
4
6
CONTINUOUS
370
0
390
F
0
LAYER
5
4B
330
2
100
AcDbSymbolTableRecord
100
AcDbLayerTableRecord
2
outer_boundary
70
0
62
3
6
CONTINUOUS
370
0
390
F
0
LAYER
5
4C
330
2
100
AcDbSymbolTableRecord
100
AcDbLayerTableRecord
2
removal_annuli
70
0
62
56
420
8421376
6
CONTINUOUS
370
0
390
F
0
LAYER
5
4D
330
2
100
AcDbSymbolTableRecord
100
AcDbLayerTableRecord
2
removal_pockets
70
0
62
216
420
8388736
6
CONTINUOUS
370
0
390
F
0
ENDTAB
0
TABLE
2
STYLE
5
3
330
0
100
AcDbSymbolTable
70
3
0
STYLE
5
4E
330
2
100
AcDbSymbolTableRecord
100
AcDbTextStyleTableRecord
2
Standard
70
0
40
0
41
1
50
0
71
0
42
1
3
txt
4

0
ENDTAB
0
TABLE
2
VIEW
5
6
330
0
100
AcDbSymbolTable
70
0
0
ENDTAB
0
TABLE
2
UCS
5
7
330
0
100
AcDbSymbolTable
70
0
0
ENDTAB
0
TABLE
2
APPID
5
9
330
0
100
AcDbSymbolTable
70
1
0
APPID
5
12
330
9
100
AcDbSymbolTableRecord
100
AcDbRegAppTableRecord
2
ACAD
70
0
0
ENDTAB
0
TABLE
2
DIMSTYLE
5
A
330
0
100
AcDbSymbolTable
70
1
100
AcDbDimStyleTable
71
1
0
DIMSTYLE
105
4F
330
A
100
AcDbSymbolTableRecord
100
AcDbDimStyleTableRecord
2
Standard
70
0
40
1
41
0.25
42
0.025
43
0.38
44
0.05
45
0
46
0
47
0
48
0
140
0.25
141
0.09
142
0
143
25.4
144
1
145
0
146
1
147
0.025
148
0
71
0
72
0
73
0
74
1
75
0
76
0
77
0
78
0
79
0
170
0
171
2
172
0
173
0
174
0
175
0
176
0
177
0
178
0
179
0
271
4
272
4
273
2
274
2
275
0
276
0
277
2
278
46
279
0
280
0
281
0
282
0
283
1
284
0
285
0
286
0
288
0
289
3
340
Standard
341

371
-2
372
-2
0
ENDTAB
0
TABLE
2
BLOCK_RECORD
5
1
330
0
100
AcDbSymbolTable
70
2
0
BLOCK_RECORD
5
1F
330
1
100
AcDbSymbolTableRecord
100
AcDbBlockTableRecord
2
*Model_Space
70
0
280
1
281
0
0
BLOCK_RECORD
5
1E
330
1
100
AcDbSymbolTableRecord
100
AcDbBlockTableRecord
2
*Paper_Space
70
0
280
1
281
0
0
BLOCK_RECORD
5
50
330
1
100
AcDbSymbolTableRecord
100
AcDbBlockTableRecord
2
*D12
70
0
280
1
281
0
0
BLOCK_RECORD
5
53
330
1
100
AcDbSymbolTableRecord
100
AcDbBlockTableRecord
2
*D11
70
0
280
1
281
0
0
BLOCK_RECORD
5
56
330
1
100
AcDbSymbolTableRecord
100
AcDbBlockTableRecord
2
*D7
70
0
280
1
281
0
0
BLOCK_RECORD
5
59
330
1
100
AcDbSymbolTableRecord
100
AcDbBlockTableRecord
2
*D8
70
0
280
1
281
0
0
BLOCK_RECORD
5
5C
330
1
100
AcDbSymbolTableRecord
100
AcDbBlockTableRecord
2
*D10
70
0
280
1
281
0
0
BLOCK_RECORD
5
5F
330
1
100
AcDbSymbolTableRecord
100
AcDbBlockTableRecord
2
*D2
70
0
280
1
281
0
0
BLOCK_RECORD
5
62
330
1
100
AcDbSymbolTableRecord
100
AcDbBlockTableRecord
2
*D4
70
0
280
1
281
0
0
BLOCK_RECORD
5
65
330
1
100
AcDbSymbolTableRecord
100
AcDbBlockTableRecord
2
*D3
70
0
280
1
281
0
0
BLOCK_RECORD
5
68
330
1
100
AcDbSymbolTableRecord
100
AcDbBlockTableRecord
2
*D9
70
0
280
1
281
0
0
BLOCK_RECORD
5
6B
330
1
100
AcDbSymbolTableRecord
100
AcDbBlockTableRecord
2
*D13
70
0
280
1
281
0
0
BLOCK_RECORD
5
6E
330
1
100
AcDbSymbolTableRecord
100
AcDbBlockTableRecord
2
*D1
70
0
280
1
281
0
0
BLOCK_RECORD
5
71
330
1
100
AcDbSymbolTableRecord
100
AcDbBlockTableRecord
2
*D5
70
0
280
1
281
0
0
BLOCK_RECORD
5
74
330
1
100
AcDbSymbolTableRecord
100
AcDbBlockTableRecord
2
*D6
70
0
280
1
281
0
0
ENDTAB
0
ENDSEC
0
SECTION
2
BLOCKS
0
BLOCK
5
20
330
1F
100
AcDbEntity
8
0
100
AcDbBlockBegin
2
*Model_Space
70
0
10
0
20
0
30
0
3
*Model_Space
1

0
ENDBLK
5
21
330
1F
100
AcDbEntity
8
0
100
AcDbBlockEnd
0
BLOCK
5
1C
330
1B
100
AcDbEntity
8
0
100
AcDbBlockBegin
2
*Paper_Space
70
0
10
0
20
0
30
0
3
*Paper_Space
1

0
ENDBLK
5
1D
330
1F
100
AcDbEntity
8
0
100
AcDbBlockEnd
0
BLOCK
5
51
330
50
100
AcDbEntity
8
0
100
AcDbBlockBegin
2
*D12
70
1
10
0
20
0
3
*D12
1

0
LINE
5
77
100
AcDbEntity
8
construction
6
CONTINUOUS
62
7
370
0
100
AcDbLine
10
9.21430323376
20
8.57187296812
11
9.936963
21
8.57187296812
0
SOLID
5
78
100
AcDbEntity
8
construction
6
CONTINUOUS
62
7
370
0
100
AcDbTrace
10
9.21430323376
20
8.57187296812
30
0
11
9.46430323376
21
8.6135014339
31
0
12
9.46430323376
22
8.53024450234
32
0
13
9.46430323376
23
8.53024450234
33
0
0
SOLID
5
79
100
AcDbEntity
8
construction
6
CONTINUOUS
62
7
370
0
100
AcDbTrace
10
9.936963
20
8.57187296812
30
0
11
9.686963
21
8.53024450234
31
0
12
9.686963
22
8.6135014339
32
0
13
9.686963
23
8.6135014339
33
0
0
MTEXT
5
7A
100
AcDbEntity
8
construction
6
CONTINUOUS
62
7
370
0
100
AcDbMText
10
10.4480741111
20
8.72187296812
30
0
40
0.25
41
0.972222222222
71
5
72
1
1
0.7227
7
standard
210
0
220
0
230
1
50
0
73
2
44
1
0
LINE
5
7B
100
AcDbEntity
8
construction
6
CONTINUOUS
62
7
370
0
100
AcDbLine
10
9.21430323376
20
8.54687296812
11
9.21430323376
21
8.52187296812
0
LINE
5
7C
100
AcDbEntity
8
construction
6
CONTINUOUS
62
7
370
0
100
AcDbLine
10
9.936963
20
9.237163
11
9.936963
21
8.52187296812
0
ENDBLK
5
52
330
50
100
AcDbEntity
8
0
100
AcDbBlockEnd
0
BLOCK
5
54
330
53
100
AcDbEntity
8
0
100
AcDbBlockBegin
2
*D11
70
1
10
0
20
0
3
*D11
1

0
LINE
5
7D
100
AcDbEntity
8
construction
6
CONTINUOUS
62
7
370
0
100
AcDbLine
10
5.80085852819
20
3.40187776767
11
7.0558525573
21
3.40187776767
0
SOLID
5
7E
100
AcDbEntity
8
construction
6
CONTINUOUS
62
7
370
0
100
AcDbTrace
10
6.30085852819
20
3.40187776767
30
0
11
6.05085852819
21
3.36024930189
31
0
12
6.05085852819
22
3.44350623345
32
0
13
6.05085852819
23
3.44350623345
33
0
0
SOLID
5
7F
100
AcDbEntity
8
construction
6
CONTINUOUS
62
7
370
0
100
AcDbTrace
10
6.5558525573
20
3.40187776767
30
0
11
6.8058525573
21
3.44350623345
31
0
12
6.8058525573
22
3.36024930189
32
0
13
6.8058525573
23
3.36024930189
33
0
0
MTEXT
5
80
100
AcDbEntity
8
construction
6
CONTINUOUS
62
7
370
0
100
AcDbMText
10
6.96974144619
20
3.55187776767
30
0
40
0.25
41
0.777777777778
71
5
72
1
1
0.255
7
standard
210
0
220
0
230
1
50
0
73
2
44
1
0
LINE
5
81
100
AcDbEntity
8
construction
6
CONTINUOUS
62
7
370
0
100
AcDbLine
10
6.30085852819
20
4.13019993703
11
6.30085852819
21
3.35187776767
0
LINE
5
82
100
AcDbEntity
8
construction
6
CONTINUOUS
62
7
370
0
100
AcDbLine
10
6.5558525573
20
4.13019993703
11
6.5558525573
21
3.35187776767
0
ENDBLK
5
55
330
53
100
AcDbEntity
8
0
100
AcDbBlockEnd
0
BLOCK
5
57
330
56
100
AcDbEntity
8
0
100
AcDbBlockBegin
2
*D7
70
1
10
0
20
0
3
*D7
1

0
LINE
5
83
100
AcDbEntity
8
dimensions
6
CONTINUOUS
62
7
370
0
100
AcDbLine
10
9.57381996156
20
6.11811088
11
10.6217415753
21
6.11811110945
0
LINE
5
84
100
AcDbEntity
8
dimensions
6
CONTINUOUS
62
7
370
0
100
AcDbLine
10
9.57382056498
20
3.36220812184
11
10.6217421787
21
3.36220835129
0
LINE
5
85
100
AcDbEntity
8
dimensions
6
CONTINUOUS
62
7
370
0
100
AcDbLine
10
10.5717415753
20
6.1181110985
11
10.5717421787
21
3.36220834034
0
SOLID
5
86
100
AcDbEntity
8
dimensions
6
CONTINUOUS
62
7
370
0
100
AcDbTrace
10
10.5717415753
20
6.1181110985
30
0
11
10.6133700958
21
5.86811110762
31
0
12
10.5301131642
22
5.86811108939
32
0
13
10.5301131642
23
5.86811108939
33
0
0
SOLID
5
87
100
AcDbEntity
8
dimensions
6
CONTINUOUS
62
7
370
0
100
AcDbTrace
10
10.5717421787
20
3.36220834034
30
0
11
10.5301136582
21
3.61220833123
31
0
12
10.6133705897
22
3.61220834946
32
0
13
10.6133705897
23
3.61220834946
33
0
0
MTEXT
5
88
100
AcDbEntity
8
dimensions
6
CONTINUOUS
62
7
370
0
100
AcDbMText
10
10.421741877
20
4.74015968658
30
0
40
0.25
41
0.972222222222
71
5
72
1
1
2.7559
7
standard
210
0
220
0
230
1
50
90.0000125452
73
2
44
1
0
ENDBLK
5
58
330
56
100
AcDbEntity
8
0
100
AcDbBlockEnd
0
BLOCK
5
5A
330
59
100
AcDbEntity
8
0
100
AcDbBlockBegin
2
*D8
70
1
10
0
20
0
3
*D8
1

0
LINE
5
89
100
AcDbEntity
8
dimensions
6
CONTINUOUS
62
7
370
0
100
AcDbLine
10
3.25522171131
20
4.13015787007
11
3.25525503909
21
3.36876729558
0
LINE
5
8A
100
AcDbEntity
8
dimensions
6
CONTINUOUS
62
7
370
0
100
AcDbLine
10
4.17198076093
20
4.13019799868
11
4.17201408871
21
3.36880742419
0
LINE
5
8B
100
AcDbEntity
8
dimensions
6
CONTINUOUS
62
7
370
0
100
AcDbLine
10
3.25525285048
20
3.41876729553
11
4.1720119001
21
3.41880742414
0
SOLID
5
8C
100
AcDbEntity
8
dimensions
6
CONTINUOUS
62
7
370
0
100
AcDbTrace
10
3.25525285048
20
3.41876729553
30
0
11
3.50525102806
21
3.46040670433
31
0
12
3.50525467241
22
3.37714977286
32
0
13
3.50525467241
23
3.37714977286
33
0
0
SOLID
5
8D
100
AcDbEntity
8
dimensions
6
CONTINUOUS
62
7
370
0
100
AcDbTrace
10
4.1720119001
20
3.41880742414
30
0
11
3.92201372251
21
3.37716801534
31
0
12
3.92201007816
22
3.46042494681
32
0
13
3.92201007816
23
3.46042494681
33
0
0
MTEXT
5
8E
100
AcDbEntity
8
dimensions
6
CONTINUOUS
62
7
370
0
100
AcDbMText
10
3.71362580945
20
3.56878735969
30
0
40
0.25
41
0.916666666667
71
5
72
1
1
0.9168
7
standard
210
0
220
0
230
1
50
0.00250796541385
73
2
44
1
0
ENDBLK
5
5B
330
59
100
AcDbEntity
8
0
100
AcDbBlockEnd
0
BLOCK
5
5D
330
5C
100
AcDbEntity
8
0
100
AcDbBlockBegin
2
*D10
70
1
10
0
20
0
3
*D10
1

0
LINE
5
8F
100
AcDbEntity
8
dimensions
6
CONTINUOUS
62
7
370
0
100
AcDbLine
10
7.18661379754
20
3.3372071731
11
7.18661423337
21
2.24576923247
0
LINE
5
90
100
AcDbEntity
8
dimensions
6
CONTINUOUS
62
7
370
0
100
AcDbLine
10
9.54882057496
20
3.33720811637
11
9.54882101079
21
2.24577017574
0
LINE
5
91
100
AcDbEntity
8
dimensions
6
CONTINUOUS
62
7
370
0
100
AcDbLine
10
7.18661421341
20
2.29576923247
11
9.54882099083
21
2.29577017574
0
SOLID
5
92
100
AcDbEntity
8
dimensions
6
CONTINUOUS
62
7
370
0
100
AcDbTrace
10
7.18661421341
20
2.29576923247
30
0
11
7.43661419678
21
2.33739779808
31
0
12
7.43661423003
22
2.25414086652
32
0
13
7.43661423003
23
2.25414086652
33
0
0
SOLID
5
93
100
AcDbEntity
8
dimensions
6
CONTINUOUS
62
7
370
0
100
AcDbTrace
10
9.54882099083
20
2.29577017574
30
0
11
9.29882100745
21
2.25414161013
31
0
12
9.2988209742
22
2.33739854169
32
0
13
9.2988209742
23
2.33739854169
33
0
0
MTEXT
5
94
100
AcDbEntity
8
dimensions
6
CONTINUOUS
62
7
370
0
100
AcDbMText
10
8.36771754222
20
2.4457697041
30
0
40
0.25
41
0.972222222222
71
5
72
1
1
2.3622
7
standard
210
0
220
0
230
1
50
2.28791951944e-05
73
2
44
1
0
ENDBLK
5
5E
330
5C
100
AcDbEntity
8
0
100
AcDbBlockEnd
0
BLOCK
5
60
330
5F
100
AcDbEntity
8
0
100
AcDbBlockBegin
2
*D2
70
1
10
0
20
0
3
*D2
1

0
LINE
5
95
100
AcDbEntity
8
dimensions
6
CONTINUOUS
62
7
370
0
100
AcDbLine
10
0.1
20
0.975
11
0.1
21
0.0126663373209
0
LINE
5
96
100
AcDbEntity
8
dimensions
6
CONTINUOUS
62
7
370
0
100
AcDbLine
10
11.911024
20
0.975
11
11.911024
21
0.0126663373209
0
LINE
5
97
100
AcDbEntity
8
dimensions
6
CONTINUOUS
62
7
370
0
100
AcDbLine
10
0.1
20
0.0626663373209
11
11.911024
21
0.0626663373209
0
SOLID
5
98
100
AcDbEntity
8
dimensions
6
CONTINUOUS
62
7
370
0
100
AcDbTrace
10
0.1
20
0.0626663373209
30
0
11
0.35
21
0.104294803098
31
0
12
0.35
22
0.0210378715436
32
0
13
0.35
23
0.0210378715436
33
0
0
SOLID
5
99
100
AcDbEntity
8
dimensions
6
CONTINUOUS
62
7
370
0
100
AcDbTrace
10
11.911024
20
0.0626663373209
30
0
11
11.661024
21
0.0210378715436
31
0
12
11.661024
22
0.104294803098
32
0
13
11.661024
23
0.104294803098
33
0
0
MTEXT
5
9A
100
AcDbEntity
8
dimensions
6
CONTINUOUS
62
7
370
0
100
AcDbMText
10
6.005512
20
0.212666337321
30
0
40
0.25
41
0.75
71
5
72
1
1
11.811
7
standard
210
0
220
0
230
1
50
0
73
2
44
1
0
ENDBLK
5
61
330
5F
100
AcDbEntity
8
0
100
AcDbBlockEnd
0
BLOCK
5
63
330
62
100
AcDbEntity
8
0
100
AcDbBlockBegin
2
*D4
70
1
10
0
20
0
3
*D4
1

0
LINE
5
9B
100
AcDbEntity
8
dimensions
6
CONTINUOUS
62
7
370
0
100
AcDbLine
10
0.488369385197
20
10.1141823454
11
-0.531147374914
21
10.1141819902
0
LINE
5
9C
100
AcDbEntity
8
dimensions
6
CONTINUOUS
62
7
370
0
100
AcDbLine
10
0.488372169604
20
2.12205203704
11
-0.531144590507
21
2.12205168185
0
LINE
5
9D
100
AcDbEntity
8
dimensions
6
CONTINUOUS
62
7
370
0
100
AcDbLine
10
-0.481147374914
20
10.1141820076
11
-0.481144590507
21
2.12205169927
0
SOLID
5
9E
100
AcDbEntity
8
dimensions
6
CONTINUOUS
62
7
370
0
100
AcDbTrace
10
-0.481147374914
20
10.1141820076
30
0
11
-0.439518822038
21
9.86418202212
31
0
12
-0.522775753593
22
9.86418199311
32
0
13
-0.522775753593
23
9.86418199311
33
0
0
SOLID
5
9F
100
AcDbEntity
8
dimensions
6
CONTINUOUS
62
7
370
0
100
AcDbTrace
10
-0.481144590507
20
2.12205169927
30
0
11
-0.522773143383
21
2.37205168476
31
0
12
-0.439516211828
22
2.37205171377
32
0
13
-0.439516211828
23
2.37205171377
33
0
0
MTEXT
5
A0
100
AcDbEntity
8
dimensions
6
CONTINUOUS
62
7
370
0
100
AcDbMText
10
-0.631145982711
20
6.11811680116
30
0
40
0.25
41
0.916666666667
71
5
72
1
1
7.9921
7
standard
210
0
220
0
230
1
50
90.0000199615
73
2
44
1
0
ENDBLK
5
64
330
62
100
AcDbEntity
8
0
100
AcDbBlockEnd
0
BLOCK
5
66
330
65
100
AcDbEntity
8
0
100
AcDbBlockBegin
2
*D3
70
1
10
0
20
0
3
*D3
1

0
LINE
5
A1
100
AcDbEntity
8
dimensions
6
CONTINUOUS
62
7
370
0
100
AcDbLine
10
0.513369391851
20
10.1391823541
11
0.513369562286
21
10.7795238874
0
LINE
5
A2
100
AcDbEntity
8
dimensions
6
CONTINUOUS
62
7
370
0
100
AcDbLine
10
11.4976271734
20
10.1391794305
11
11.4976273438
21
10.7795209638
0
LINE
5
A3
100
AcDbEntity
8
dimensions
6
CONTINUOUS
62
7
370
0
100
AcDbLine
10
0.513369548978
20
10.7295238874
11
11.4976273305
21
10.7295209638
0
SOLID
5
A4
100
AcDbEntity
8
dimensions
6
CONTINUOUS
62
7
370
0
100
AcDbTrace
10
0.513369548978
20
10.7295238874
30
0
11
0.763369560058
21
10.7711522866
31
0
12
0.763369537898
22
10.6878953551
32
0
13
0.763369537898
23
10.6878953551
33
0
0
SOLID
5
A5
100
AcDbEntity
8
dimensions
6
CONTINUOUS
62
7
370
0
100
AcDbTrace
10
11.4976273305
20
10.7295209638
30
0
11
11.2476273194
21
10.6878925646
31
0
12
11.2476273416
22
10.7711494961
32
0
13
11.2476273416
23
10.7711494961
33
0
0
MTEXT
5
A6
100
AcDbEntity
8
dimensions
6
CONTINUOUS
62
7
370
0
100
AcDbMText
10
6.00549847967
20
10.8795224256
30
0
40
0.25
41
1.13888888889
71
5
72
1
1
10.9843
7
standard
210
0
220
0
230
1
50
359.99998475
73
2
44
1
0
ENDBLK
5
67
330
65
100
AcDbEntity
8
0
100
AcDbBlockEnd
0
BLOCK
5
69
330
68
100
AcDbEntity
8
0
100
AcDbBlockBegin
2
*D9
70
1
10
0
20
0
3
*D9
1

0
LINE
5
A7
100
AcDbEntity
8
dimensions
6
CONTINUOUS
62
7
370
0
100
AcDbLine
10
3.23018847991
20
5.1366881484
11
2.54555557872
21
5.13666573229
0
LINE
5
A8
100
AcDbEntity
8
dimensions
6
CONTINUOUS
62
7
370
0
100
AcDbLine
10
3.23022061701
20
4.1551570515
11
2.54558771582
21
4.15513463539
0
LINE
5
A9
100
AcDbEntity
8
dimensions
6
CONTINUOUS
62
7
370
0
100
AcDbLine
10
2.59555557869
20
5.13666736938
11
2.59558771579
21
4.15513627248
0
SOLID
5
AA
100
AcDbEntity
8
dimensions
6
CONTINUOUS
62
7
370
0
100
AcDbTrace
10
2.59555557869
20
5.13666736938
30
0
11
2.6371922299
21
4.8866687325
31
0
12
2.55393529839
22
4.88666600652
32
0
13
2.55393529839
23
4.88666600652
33
0
0
SOLID
5
AB
100
AcDbEntity
8
dimensions
6
CONTINUOUS
62
7
370
0
100
AcDbTrace
10
2.59558771579
20
4.15513627248
30
0
11
2.55395106458
21
4.40513490935
31
0
12
2.63720799609
22
4.40513763534
32
0
13
2.63720799609
23
4.40513763534
33
0
0
MTEXT
5
AC
100
AcDbEntity
8
dimensions
6
CONTINUOUS
62
7
370
0
100
AcDbMText
10
2.44557164732
20
4.64589690966
30
0
40
0.25
41
0.916666666667
71
5
72
1
1
0.9815
7
standard
210
0
220
0
230
1
50
90.0018759673
73
2
44
1
0
ENDBLK
5
6A
330
68
100
AcDbEntity
8
0
100
AcDbBlockEnd
0
BLOCK
5
6C
330
6B
100
AcDbEntity
8
0
100
AcDbBlockBegin
2
*D13
70
1
10
0
20
0
3
*D13
1

0
LINE
5
AD
100
AcDbEntity
8
dimensions
6
CONTINUOUS
62
7
370
0
100
AcDbLine
10
7.99885571064
20
3.98639924172
11
9.51288428936
21
4.32386075828
0
SOLID
5
AE
100
AcDbEntity
8
dimensions
6
CONTINUOUS
62
7
370
0
100
AcDbTrace
10
8.48688015099
20
4.09517490822
30
0
11
8.25192425904
21
4.00015565754
31
0
12
8.2338116026
22
4.0814184924
32
0
13
8.2338116026
23
4.0814184924
33
0
0
SOLID
5
AF
100
AcDbEntity
8
dimensions
6
CONTINUOUS
62
7
370
0
100
AcDbTrace
10
9.02485984901
20
4.21508509178
30
0
11
9.25981574096
21
4.31010434246
31
0
12
9.2779283974
22
4.2288415076
32
0
13
9.2779283974
23
4.2288415076
33
0
0
MTEXT
5
B0
100
AcDbEntity
8
dimensions
6
CONTINUOUS
62
7
370
0
100
AcDbMText
10
9.46398410806
20
4.46664223484
30
0
40
0.25
41
0.916666666667
71
5
72
1
1
0.5512
7
standard
210
0
220
0
230
1
50
12.5652515902
73
2
44
1
0
ENDBLK
5
6D
330
6B
100
AcDbEntity
8
0
100
AcDbBlockEnd
0
BLOCK
5
6F
330
6E
100
AcDbEntity
8
0
100
AcDbBlockBegin
2
*D1
70
1
10
0
20
0
3
*D1
1

0
LINE
5
B1
100
AcDbEntity
8
dimensions
6
CONTINUOUS
62
7
370
0
100
AcDbLine
10
11.936024
20
11.23622
11
12.8827404738
21
11.23622
0
LINE
5
B2
100
AcDbEntity
8
dimensions
6
CONTINUOUS
62
7
370
0
100
AcDbLine
10
11.936024
20
1
11
12.8827404738
21
1
0
LINE
5
B3
100
AcDbEntity
8
dimensions
6
CONTINUOUS
62
7
370
0
100
AcDbLine
10
12.8327404738
20
11.23622
11
12.8327404738
21
1
0
SOLID
5
B4
100
AcDbEntity
8
dimensions
6
CONTINUOUS
62
7
370
0
100
AcDbTrace
10
12.8327404738
20
11.23622
30
0
11
12.8743689396
21
10.98622
31
0
12
12.791112008
22
10.98622
32
0
13
12.791112008
23
10.98622
33
0
0
SOLID
5
B5
100
AcDbEntity
8
dimensions
6
CONTINUOUS
62
7
370
0
100
AcDbTrace
10
12.8327404738
20
1
30
0
11
12.791112008
21
1.25
31
0
12
12.8743689396
22
1.25
32
0
13
12.8743689396
23
1.25
33
0
0
MTEXT
5
B6
100
AcDbEntity
8
dimensions
6
CONTINUOUS
62
7
370
0
100
AcDbMText
10
12.6827404738
20
6.11811
30
0
40
0.25
41
1.11111111111
71
5
72
1
1
10.2362
7
standard
210
0
220
0
230
1
50
90
73
2
44
1
0
ENDBLK
5
70
330
6E
100
AcDbEntity
8
0
100
AcDbBlockEnd
0
BLOCK
5
72
330
71
100
AcDbEntity
8
0
100
AcDbBlockBegin
2
*D5
70
1
10
0
20
0
3
*D5
1

0
LINE
5
B7
100
AcDbEntity
8
dimensions
6
CONTINUOUS
62
7
370
0
100
AcDbLine
10
2.049058
20
9.262163
11
1.23104041498
21
9.262163
0
LINE
5
B8
100
AcDbEntity
8
dimensions
6
CONTINUOUS
62
7
370
0
100
AcDbLine
10
2.049058
20
2.974062
11
1.23104041498
21
2.974062
0
LINE
5
B9
100
AcDbEntity
8
dimensions
6
CONTINUOUS
62
7
370
0
100
AcDbLine
10
1.28104041498
20
9.262163
11
1.28104041498
21
2.974062
0
SOLID
5
BA
100
AcDbEntity
8
dimensions
6
CONTINUOUS
62
7
370
0
100
AcDbTrace
10
1.28104041498
20
9.262163
30
0
11
1.32266888076
21
9.012163
31
0
12
1.2394119492
22
9.012163
32
0
13
1.2394119492
23
9.012163
33
0
0
SOLID
5
BB
100
AcDbEntity
8
dimensions
6
CONTINUOUS
62
7
370
0
100
AcDbTrace
10
1.28104041498
20
2.974062
30
0
11
1.2394119492
21
3.224062
31
0
12
1.32266888076
22
3.224062
32
0
13
1.32266888076
23
3.224062
33
0
0
MTEXT
5
BC
100
AcDbEntity
8
dimensions
6
CONTINUOUS
62
7
370
0
100
AcDbMText
10
1.13104041498
20
6.1181125
30
0
40
0.25
41
0.916666666667
71
5
72
1
1
6.2881
7
standard
210
0
220
0
230
1
50
90
73
2
44
1
0
ENDBLK
5
73
330
71
100
AcDbEntity
8
0
100
AcDbBlockEnd
0
BLOCK
5
75
330
74
100
AcDbEntity
8
0
100
AcDbBlockBegin
2
*D6
70
1
10
0
20
0
3
*D6
1

0
LINE
5
BD
100
AcDbEntity
8
dimensions
6
CONTINUOUS
62
7
370
0
100
AcDbLine
10
2.074058
20
9.287163
11
2.074058
21
9.9359231222
0
LINE
5
BE
100
AcDbEntity
8
dimensions
6
CONTINUOUS
62
7
370
0
100
AcDbLine
10
9.936963
20
9.287163
11
9.936963
21
9.9359231222
0
LINE
5
BF
100
AcDbEntity
8
dimensions
6
CONTINUOUS
62
7
370
0
100
AcDbLine
10
2.074058
20
9.8859231222
11
9.936963
21
9.8859231222
0
SOLID
5
C0
100
AcDbEntity
8
dimensions
6
CONTINUOUS
62
7
370
0
100
AcDbTrace
10
2.074058
20
9.8859231222
30
0
11
2.324058
21
9.92755158798
31
0
12
2.324058
22
9.84429465642
32
0
13
2.324058
23
9.84429465642
33
0
0
SOLID
5
C1
100
AcDbEntity
8
dimensions
6
CONTINUOUS
62
7
370
0
100
AcDbTrace
10
9.936963
20
9.8859231222
30
0
11
9.686963
21
9.84429465642
31
0
12
9.686963
22
9.92755158798
32
0
13
9.686963
23
9.92755158798
33
0
0
MTEXT
5
C2
100
AcDbEntity
8
dimensions
6
CONTINUOUS
62
7
370
0
100
AcDbMText
10
6.0055105
20
10.0359231222
30
0
40
0.25
41
0.972222222222
71
5
72
1
1
7.8629
7
standard
210
0
220
0
230
1
50
0
73
2
44
1
0
ENDBLK
5
76
330
74
100
AcDbEntity
8
0
100
AcDbBlockEnd
0
ENDSEC
0
SECTION
2
ENTITIES
0
LINE
5
C3
100
AcDbEntity
8
inner_boundary
6
ByLayer
62
256
370
-1
100
AcDbLine
10
2.074058
20
9.262163
11
9.936963
21
9.262163
0
LINE
5
C4
100
AcDbEntity
8
inner_boundary
6
ByLayer
62
256
370
-1
100
AcDbLine
10
9.936963
20
9.262163
11
9.936963
21
2.974062
0
LINE
5
C5
100
AcDbEntity
8
inner_boundary
6
ByLayer
62
256
370
-1
100
AcDbLine
10
9.936963
20
2.974062
11
2.074058
21
2.974062
0
LINE
5
C6
100
AcDbEntity
8
inner_boundary
6
ByLayer
62
256
370
-1
100
AcDbLine
10
2.074058
20
2.974062
11
2.074058
21
9.262163
0
DIMENSION
5
C7
100
AcDbEntity
8
dimensions
6
ByLayer
62
256
370
-1
100
AcDbDimension
2
*D1
10
12.8327404738
20
1
30
0
11
12.6827404738
21
6.11811
31
0
70
33
71
5
72
0
3
Standard
53
0
210
0
220
0
230
1
100
AcDbAlignedDimension
13
11.911024
23
11.23622
33
0
14
11.911024
24
1
34
0
0
DIMENSION
5
C8
100
AcDbEntity
8
dimensions
6
ByLayer
62
256
370
-1
100
AcDbDimension
2
*D2
10
11.911024
20
0.0626663373209
30
0
11
6.005512
21
0.212666337321
31
0
70
33
71
5
72
0
3
Standard
53
0
210
0
220
0
230
1
100
AcDbAlignedDimension
13
0.1
23
1
33
0
14
11.911024
24
1
34
0
0
DIMENSION
5
C9
100
AcDbEntity
8
dimensions
6
ByLayer
62
256
370
-1
100
AcDbDimension
2
*D3
10
11.4976273305
20
10.7295209638
30
0
11
6.00549847967
21
10.8795224256
31
0
70
33
71
5
72
0
3
Standard
53
0
210
0
220
0
230
1
100
AcDbAlignedDimension
13
0.513369385197
23
10.1141823541
33
0
14
11.4976271667
24
10.1141794305
34
0
0
DIMENSION
5
CA
100
AcDbEntity
8
dimensions
6
ByLayer
62
256
370
-1
100
AcDbDimension
2
*D4
10
-0.481144590507
20
2.12205169927
30
0
11
-0.631145982711
21
6.11811680116
31
0
70
33
71
5
72
0
3
Standard
53
0
210
0
220
0
230
1
100
AcDbAlignedDimension
13
0.513369385197
23
10.1141823541
33
0
14
0.513372169604
24
2.12205204575
34
0
0
DIMENSION
5
CB
100
AcDbEntity
8
dimensions
6
ByLayer
62
256
370
-1
100
AcDbDimension
2
*D5
10
1.28104041498
20
2.974062
30
0
11
1.13104041498
21
6.1181125
31
0
70
33
71
5
72
0
3
Standard
53
0
210
0
220
0
230
1
100
AcDbAlignedDimension
13
2.074058
23
9.262163
33
0
14
2.074058
24
2.974062
34
0
0
DIMENSION
5
CC
100
AcDbEntity
8
dimensions
6
ByLayer
62
256
370
-1
100
AcDbDimension
2
*D6
10
9.936963
20
9.8859231222
30
0
11
6.0055105
21
10.0359231222
31
0
70
33
71
5
72
0
3
Standard
53
0
210
0
220
0
230
1
100
AcDbAlignedDimension
13
2.074058
23
9.262163
33
0
14
9.936963
24
9.262163
34
0
0
DIMENSION
5
CD
100
AcDbEntity
8
dimensions
6
ByLayer
62
256
370
-1
100
AcDbDimension
2
*D7
10
10.5717421787
20
3.36220834034
30
0
11
10.421741877
21
4.74015968658
31
0
70
33
71
5
72
0
3
Standard
53
0
210
0
220
0
230
1
100
AcDbAlignedDimension
13
9.54881996156
23
6.11811087453
33
0
14
9.54882056498
24
3.36220811637
34
0
0
DIMENSION
5
CE
100
AcDbEntity
8
dimensions
6
ByLayer
62
256
370
-1
100
AcDbDimension
2
*D8
10
4.1720119001
20
3.41880742414
30
0
11
3.71362580945
21
3.56878735969
31
0
70
33
71
5
72
0
3
Standard
53
0
210
0
220
0
230
1
100
AcDbAlignedDimension
13
3.255220617
23
4.15515787005
33
0
14
4.17197966662
24
4.15519799866
34
0
0
DIMENSION
5
CF
100
AcDbEntity
8
dimensions
6
ByLayer
62
256
370
-1
100
AcDbDimension
2
*D9
10
2.59558771579
20
4.15513627248
30
0
11
2.44557164732
21
4.64589690966
31
0
70
33
71
5
72
0
3
Standard
53
0
210
0
220
0
230
1
100
AcDbAlignedDimension
13
3.2551884799
23
5.13668896695
33
0
14
3.255220617
24
4.15515787005
34
0
0
CIRCLE
5
D0
100
AcDbEntity
8
mount_hole_8-32
6
ByLayer
62
256
370
-1
100
AcDbCircle
10
2.4622
20
8.87401
40
0.0885
0
CIRCLE
5
D1
100
AcDbEntity
8
mount_hole_8-32
6
ByLayer
62
256
370
-1
100
AcDbCircle
10
4.82441
20
8.87401
40
0.0885
0
CIRCLE
5
D2
100
AcDbEntity
8
mount_hole_8-32
6
ByLayer
62
256
370
-1
100
AcDbCircle
10
7.18662
20
8.87401
40
0.0885
0
CIRCLE
5
D3
100
AcDbEntity
8
mount_hole_8-32
6
ByLayer
62
256
370
-1
100
AcDbCircle
10
9.54881
20
8.87401
40
0.0885
0
CIRCLE
5
D4
100
AcDbEntity
8
mount_hole_8-32
6
ByLayer
62
256
370
-1
100
AcDbCircle
10
2.46221
20
6.11812
40
0.0885
0
CIRCLE
5
D5
100
AcDbEntity
8
mount_hole_8-32
6
ByLayer
62
256
370
-1
100
AcDbCircle
10
9.54882
20
6.11811
40
0.0885
0
CIRCLE
5
D6
100
AcDbEntity
8
mount_hole_8-32
6
ByLayer
62
256
370
-1
100
AcDbCircle
10
2.4622
20
3.36221
40
0.0885
0
CIRCLE
5
D7
100
AcDbEntity
8
mount_hole_8-32
6
ByLayer
62
256
370
-1
100
AcDbCircle
10
4.82441
20
3.36221
40
0.0885
0
CIRCLE
5
D8
100
AcDbEntity
8
mount_hole_8-32
6
ByLayer
62
256
370
-1
100
AcDbCircle
10
7.18661
20
3.36221
40
0.0885
0
DIMENSION
5
D9
100
AcDbEntity
8
dimensions
6
ByLayer
62
256
370
-1
100
AcDbDimension
2
*D10
10
9.54882099083
20
2.29577017574
30
0
11
8.36771754222
21
2.4457697041
31
0
70
33
71
5
72
0
3
Standard
53
0
210
0
220
0
230
1
100
AcDbAlignedDimension
13
7.18661378756
23
3.3622071731
33
0
14
9.54882056498
24
3.36220811637
34
0
0
CIRCLE
5
DA
100
AcDbEntity
8
mount_hole_8-32
6
ByLayer
62
256
370
-1
100
AcDbCircle
10
9.54882
20
3.36221
40
0.0885
0
CIRCLE
5
DB
100
AcDbEntity
8
mount_hole_1/4-20
6
ByLayer
62
256
370
-1
100
AcDbCircle
10
0.513369
20
10.11418
40
0.133
0
CIRCLE
5
DC
100
AcDbEntity
8
mount_hole_1/4-20
6
ByLayer
62
256
370
-1
100
AcDbCircle
10
11.4976
20
10.11418
40
0.133
0
CIRCLE
5
DD
100
AcDbEntity
8
mount_hole_1/4-20
6
ByLayer
62
256
370
-1
100
AcDbCircle
10
0.513372
20
2.12205
40
0.133
0
CIRCLE
5
DE
100
AcDbEntity
8
mount_hole_1/4-20
6
ByLayer
62
256
370
-1
100
AcDbCircle
10
11.4976
20
2.12205
40
0.133
0
CIRCLE
5
DF
100
AcDbEntity
8
removal_annuli
6
ByLayer
62
256
370
-1
100
AcDbCircle
10
3.2551907688
20
8.08104370118
40
0.5503
0
CIRCLE
5
E0
100
AcDbEntity
8
removal_annuli
6
ByLayer
62
256
370
-1
100
AcDbCircle
10
4.17195238816
20
8.08106172793
40
0.5503
0
CIRCLE
5
E1
100
AcDbEntity
8
removal_annuli
6
ByLayer
62
256
370
-1
100
AcDbCircle
10
5.08873490761
20
8.08106904913
40
0.5503
0
CIRCLE
5
E2
100
AcDbEntity
8
removal_annuli
6
ByLayer
62
256
370
-1
100
AcDbCircle
10
6.00551699149
20
8.08101739459
40
0.5503
0
CIRCLE
5
E3
100
AcDbEntity
8
removal_annuli
6
ByLayer
62
256
370
-1
100
AcDbCircle
10
6.92232744336
20
8.08103600226
40
0.5503
0
CIRCLE
5
E4
100
AcDbEntity
8
removal_annuli
6
ByLayer
62
256
370
-1
100
AcDbCircle
10
7.83910889809
20
8.08104577673
40
0.5503
0
CIRCLE
5
E5
100
AcDbEntity
8
removal_annuli
6
ByLayer
62
256
370
-1
100
AcDbCircle
10
8.75590492625
20
8.08106896258
40
0.5503
0
CIRCLE
5
E6
100
AcDbEntity
8
removal_annuli
6
ByLayer
62
256
370
-1
100
AcDbCircle
10
8.75589107972
20
7.09963758594
40
0.5503
0
CIRCLE
5
E7
100
AcDbEntity
8
removal_annuli
6
ByLayer
62
256
370
-1
100
AcDbCircle
10
7.83911245372
20
7.09956102792
40
0.5503
0
CIRCLE
5
E8
100
AcDbEntity
8
removal_annuli
6
ByLayer
62
256
370
-1
100
AcDbCircle
10
6.92230757678
20
7.09955870654
40
0.5503
0
CIRCLE
5
E9
100
AcDbEntity
8
removal_annuli
6
ByLayer
62
256
370
-1
100
AcDbCircle
10
6.00551863229
20
7.09956677839
40
0.5503
0
CIRCLE
5
EA
100
AcDbEntity
8
removal_annuli
6
ByLayer
62
256
370
-1
100
AcDbCircle
10
5.08874723711
20
7.09957363573
40
0.5503
0
CIRCLE
5
EB
100
AcDbEntity
8
removal_annuli
6
ByLayer
62
256
370
-1
100
AcDbCircle
10
4.17195636467
20
7.09955068892
40
0.5503
0
CIRCLE
5
EC
100
AcDbEntity
8
removal_annuli
6
ByLayer
62
256
370
-1
100
AcDbCircle
10
3.25516328447
20
7.09958996377
40
0.5503
0
CIRCLE
5
ED
100
AcDbEntity
8
removal_annuli
6
ByLayer
62
256
370
-1
100
AcDbCircle
10
3.25516952916
20
6.11809117043
40
0.5503
0
CIRCLE
5
EE
100
AcDbEntity
8
removal_annuli
6
ByLayer
62
256
370
-1
100
AcDbCircle
10
4.17198571252
20
6.11812338335
40
0.5503
0
CIRCLE
5
EF
100
AcDbEntity
8
removal_annuli
6
ByLayer
62
256
370
-1
100
AcDbCircle
10
5.08876275412
20
6.11815293673
40
0.5503
0
CIRCLE
5
F0
100
AcDbEntity
8
removal_annuli
6
ByLayer
62
256
370
-1
100
AcDbCircle
10
6.00551475126
20
6.11807763308
40
0.5503
0
CIRCLE
5
F1
100
AcDbEntity
8
removal_annuli
6
ByLayer
62
256
370
-1
100
AcDbCircle
10
6.92234414317
20
6.11810610056
40
0.5503
0
CIRCLE
5
F2
100
AcDbEntity
8
removal_annuli
6
ByLayer
62
256
370
-1
100
AcDbCircle
10
7.83910898776
20
6.11816242119
40
0.5503
0
CIRCLE
5
F3
100
AcDbEntity
8
removal_annuli
6
ByLayer
62
256
370
-1
100
AcDbCircle
10
8.75587726868
20
6.118113
40
0.5503
0
CIRCLE
5
F4
100
AcDbEntity
8
removal_annuli
6
ByLayer
62
256
370
-1
100
AcDbCircle
10
3.2551884799
20
5.13668896695
40
0.5503
0
CIRCLE
5
F5
100
AcDbEntity
8
removal_annuli
6
ByLayer
62
256
370
-1
100
AcDbCircle
10
4.17196775239
20
5.13669060885
40
0.5503
0
CIRCLE
5
F6
100
AcDbEntity
8
removal_annuli
6
ByLayer
62
256
370
-1
100
AcDbCircle
10
5.08876434511
20
5.13663832778
40
0.5503
0
CIRCLE
5
F7
100
AcDbEntity
8
removal_annuli
6
ByLayer
62
256
370
-1
100
AcDbCircle
10
6.00553758316
20
5.13660348948
40
0.5503
0
CIRCLE
5
F8
100
AcDbEntity
8
removal_annuli
6
ByLayer
62
256
370
-1
100
AcDbCircle
10
6.92233601494
20
5.13662374558
40
0.5503
0
CIRCLE
5
F9
100
AcDbEntity
8
removal_annuli
6
ByLayer
62
256
370
-1
100
AcDbCircle
10
7.83911692524
20
5.13668320217
40
0.5503
0
CIRCLE
5
FA
100
AcDbEntity
8
removal_annuli
6
ByLayer
62
256
370
-1
100
AcDbCircle
10
8.75590799158
20
5.13665278628
40
0.5503
0
CIRCLE
5
FB
100
AcDbEntity
8
removal_annuli
6
ByLayer
62
256
370
-1
100
AcDbCircle
10
8.75587378616
20
4.1551334297
40
0.5503
0
CIRCLE
5
FC
100
AcDbEntity
8
removal_annuli
6
ByLayer
62
256
370
-1
100
AcDbCircle
10
7.83910814439
20
4.15513769652
40
0.5503
0
CIRCLE
5
FD
100
AcDbEntity
8
removal_annuli
6
ByLayer
62
256
370
-1
100
AcDbCircle
10
6.92230164549
20
4.15518034733
40
0.5503
0
CIRCLE
5
FE
100
AcDbEntity
8
removal_annuli
6
ByLayer
62
256
370
-1
100
AcDbCircle
10
6.0055525573
20
4.15519993703
40
0.5503
0
CIRCLE
5
FF
100
AcDbEntity
8
removal_annuli
6
ByLayer
62
256
370
-1
100
AcDbCircle
10
5.0887404784
20
4.15511328305
40
0.5503
0
CIRCLE
5
100
100
AcDbEntity
8
removal_annuli
6
ByLayer
62
256
370
-1
100
AcDbCircle
10
4.17197966662
20
4.15519799866
40
0.5503
0
CIRCLE
5
101
100
AcDbEntity
8
removal_annuli
6
ByLayer
62
256
370
-1
100
AcDbCircle
10
3.255220617
20
4.15515787005
40
0.5503
0
LINE
5
102
100
AcDbEntity
8
construction
6
ByLayer
62
256
370
-1
100
AcDbLine
10
3.25516328447
20
7.09958996377
11
4.17195238816
21
8.08106172793
0
LINE
5
103
100
AcDbEntity
8
construction
6
ByLayer
62
256
370
-1
100
AcDbLine
10
3.25516952916
20
6.11809117043
11
4.17195636467
21
7.09955068892
0
LINE
5
104
100
AcDbEntity
8
construction
6
ByLayer
62
256
370
-1
100
AcDbLine
10
4.17195636467
20
7.09955068892
11
5.08873490761
21
8.08106904913
0
LINE
5
105
100
AcDbEntity
8
construction
6
ByLayer
62
256
370
-1
100
AcDbLine
10
3.2551884799
20
5.13668896695
11
4.17198571252
21
6.11812338335
0
LINE
5
106
100
AcDbEntity
8
construction
6
ByLayer
62
256
370
-1
100
AcDbLine
10
4.17198571252
20
6.11812338335
11
5.08874723711
21
7.09957363573
0
LINE
5
107
100
AcDbEntity
8
construction
6
ByLayer
62
256
370
-1
100
AcDbLine
10
5.08874723711
20
7.09957363573
11
6.00551699149
21
8.08101739459
0
LINE
5
108
100
AcDbEntity
8
construction
6
ByLayer
62
256
370
-1
100
AcDbLine
10
3.255220617
20
4.15515787005
11
4.17196775239
21
5.13669060885
0
LINE
5
109
100
AcDbEntity
8
construction
6
ByLayer
62
256
370
-1
100
AcDbLine
10
4.17196775239
20
5.13669060885
11
5.08876275412
21
6.11815293673
0
LINE
5
10A
100
AcDbEntity
8
construction
6
ByLayer
62
256
370
-1
100
AcDbLine
10
5.08876275412
20
6.11815293673
11
6.00551863229
21
7.09956677839
0
LINE
5
10B
100
AcDbEntity
8
construction
6
ByLayer
62
256
370
-1
100
AcDbLine
10
6.00551863229
20
7.09956677839
11
6.92232744336
21
8.08103600226
0
LINE
5
10C
100
AcDbEntity
8
construction
6
ByLayer
62
256
370
-1
100
AcDbLine
10
4.17197966662
20
4.15519799866
11
5.08876434511
21
5.13663832778
0
LINE
5
10D
100
AcDbEntity
8
construction
6
ByLayer
62
256
370
-1
100
AcDbLine
10
5.08876434511
20
5.13663832778
11
6.00551475126
21
6.11807763308
0
LINE
5
10E
100
AcDbEntity
8
construction
6
ByLayer
62
256
370
-1
100
AcDbLine
10
6.00551475126
20
6.11807763308
11
6.92230757678
21
7.09955870654
0
LINE
5
10F
100
AcDbEntity
8
construction
6
ByLayer
62
256
370
-1
100
AcDbLine
10
6.92230757678
20
7.09955870654
11
7.83910889809
21
8.08104577673
0
LINE
5
110
100
AcDbEntity
8
construction
6
ByLayer
62
256
370
-1
100
AcDbLine
10
5.0887404784
20
4.15511328305
11
6.00553758316
21
5.13660348948
0
LINE
5
111
100
AcDbEntity
8
construction
6
ByLayer
62
256
370
-1
100
AcDbLine
10
6.00553758316
20
5.13660348948
11
6.92234414317
21
6.11810610056
0
LINE
5
112
100
AcDbEntity
8
construction
6
ByLayer
62
256
370
-1
100
AcDbLine
10
6.92234414317
20
6.11810610056
11
7.83911245372
21
7.09956102792
0
LINE
5
113
100
AcDbEntity
8
construction
6
ByLayer
62
256
370
-1
100
AcDbLine
10
7.83911245372
20
7.09956102792
11
8.75590492625
21
8.08106896258
0
LINE
5
114
100
AcDbEntity
8
construction
6
ByLayer
62
256
370
-1
100
AcDbLine
10
6.0055525573
20
4.15519993703
11
6.92233601494
21
5.13662374558
0
LINE
5
115
100
AcDbEntity
8
construction
6
ByLayer
62
256
370
-1
100
AcDbLine
10
6.92233601494
20
5.13662374558
11
7.83910898776
21
6.11816242119
0
LINE
5
116
100
AcDbEntity
8
construction
6
ByLayer
62
256
370
-1
100
AcDbLine
10
7.83910898776
20
6.11816242119
11
8.75589107972
21
7.09963758594
0
LINE
5
117
100
AcDbEntity
8
construction
6
ByLayer
62
256
370
-1
100
AcDbLine
10
6.92230164549
20
4.15518034733
11
7.83911692524
21
5.13668320217
0
LINE
5
118
100
AcDbEntity
8
construction
6
ByLayer
62
256
370
-1
100
AcDbLine
10
7.83911692524
20
5.13668320217
11
8.75587726868
21
6.118113
0
LINE
5
119
100
AcDbEntity
8
construction
6
ByLayer
62
256
370
-1
100
AcDbLine
10
7.83910814439
20
4.15513769652
11
8.75590799158
21
5.13665278628
0
CIRCLE
5
11A
100
AcDbEntity
8
removal_pockets
6
ByLayer
62
256
370
-1
100
AcDbCircle
10
3.71355783631
20
7.59032584585
40
0.3
0
CIRCLE
5
11B
100
AcDbEntity
8
removal_pockets
6
ByLayer
62
256
370
-1
100
AcDbCircle
10
4.63034563614
20
7.59030986902
40
0.3
0
CIRCLE
5
11C
100
AcDbEntity
8
removal_pockets
6
ByLayer
62
256
370
-1
100
AcDbCircle
10
5.5471321143
20
7.59029551516
40
0.3
0
CIRCLE
5
11D
100
AcDbEntity
8
removal_pockets
6
ByLayer
62
256
370
-1
100
AcDbCircle
10
6.46392303782
20
7.59030139033
40
0.3
0
CIRCLE
5
11E
100
AcDbEntity
8
removal_pockets
6
ByLayer
62
256
370
-1
100
AcDbCircle
10
7.38070823743
20
7.59030224163
40
0.3
0
CIRCLE
5
11F
100
AcDbEntity
8
removal_pockets
6
ByLayer
62
256
370
-1
100
AcDbCircle
10
8.29750868999
20
7.59031499525
40
0.3
0
CIRCLE
5
120
100
AcDbEntity
8
removal_pockets
6
ByLayer
62
256
370
-1
100
AcDbCircle
10
8.29750003374
20
6.60890000357
40
0.3
0
CIRCLE
5
121
100
AcDbEntity
8
removal_pockets
6
ByLayer
62
256
370
-1
100
AcDbCircle
10
7.38072829844
20
6.60883356424
40
0.3
0
CIRCLE
5
122
100
AcDbEntity
8
removal_pockets
6
ByLayer
62
256
370
-1
100
AcDbCircle
10
6.46391116402
20
6.60881816981
40
0.3
0
CIRCLE
5
123
100
AcDbEntity
8
removal_pockets
6
ByLayer
62
256
370
-1
100
AcDbCircle
10
5.5471406932
20
6.60885985756
40
0.3
0
CIRCLE
5
124
100
AcDbEntity
8
removal_pockets
6
ByLayer
62
256
370
-1
100
AcDbCircle
10
4.63036647481
20
6.60884850954
40
0.3
0
CIRCLE
5
125
100
AcDbEntity
8
removal_pockets
6
ByLayer
62
256
370
-1
100
AcDbCircle
10
3.71356294691
20
6.60882092968
40
0.3
0
CIRCLE
5
126
100
AcDbEntity
8
removal_pockets
6
ByLayer
62
256
370
-1
100
AcDbCircle
10
3.71358709621
20
5.62740617515
40
0.3
0
CIRCLE
5
127
100
AcDbEntity
8
removal_pockets
6
ByLayer
62
256
370
-1
100
AcDbCircle
10
4.63036525325
20
5.62742177279
40
0.3
0
CIRCLE
5
128
100
AcDbEntity
8
removal_pockets
6
ByLayer
62
256
370
-1
100
AcDbCircle
10
5.54713954819
20
5.62735798043
40
0.3
0
CIRCLE
5
129
100
AcDbEntity
8
removal_pockets
6
ByLayer
62
256
370
-1
100
AcDbCircle
10
6.46394086317
20
5.62735479502
40
0.3
0
CIRCLE
5
12A
100
AcDbEntity
8
removal_pockets
6
ByLayer
62
256
370
-1
100
AcDbCircle
10
7.38072250135
20
5.62739308339
40
0.3
0
CIRCLE
5
12B
100
AcDbEntity
8
removal_pockets
6
ByLayer
62
256
370
-1
100
AcDbCircle
10
8.29749709696
20
5.62739810109
40
0.3
0
CIRCLE
5
12C
100
AcDbEntity
8
removal_pockets
6
ByLayer
62
256
370
-1
100
AcDbCircle
10
8.29750806798
20
4.6458952414
40
0.3
0
CIRCLE
5
12D
100
AcDbEntity
8
removal_pockets
6
ByLayer
62
256
370
-1
100
AcDbCircle
10
7.38070928536
20
4.64593177475
40
0.3
0
CIRCLE
5
12E
100
AcDbEntity
8
removal_pockets
6
ByLayer
62
256
370
-1
100
AcDbCircle
10
6.46394428612
20
4.64591184131
40
0.3
0
CIRCLE
5
12F
100
AcDbEntity
8
removal_pockets
6
ByLayer
62
256
370
-1
100
AcDbCircle
10
5.54713903078
20
4.64585838626
40
0.3
0
CIRCLE
5
130
100
AcDbEntity
8
removal_pockets
6
ByLayer
62
256
370
-1
100
AcDbCircle
10
4.63037200587
20
4.64591816322
40
0.3
0
CIRCLE
5
131
100
AcDbEntity
8
removal_pockets
6
ByLayer
62
256
370
-1
100
AcDbCircle
10
3.7135941847
20
4.64592423945
40
0.3
0
LINE
5
132
100
AcDbEntity
8
construction
6
ByLayer
62
256
370
-1
100
AcDbLine
10
2.79677003649
20
7.59034182268
11
3.71355783631
21
7.59032584585
0
LINE
5
133
100
AcDbEntity
8
construction
6
ByLayer
62
256
370
-1
100
AcDbLine
10
2.79677514709
20
6.6088369065
11
3.71356294691
21
6.60882092968
0
LINE
5
134
100
AcDbEntity
8
construction
6
ByLayer
62
256
370
-1
100
AcDbLine
10
2.79678025769
20
5.62733199033
11
3.71356805751
21
5.62731601351
0
LINE
5
135
100
AcDbEntity
8
construction
6
ByLayer
62
256
370
-1
100
AcDbLine
10
2.79678536829
20
4.64582707416
11
3.71357316811
21
4.64581109733
0
LINE
5
136
100
AcDbEntity
8
construction
6
ByLayer
62
256
370
-1
100
AcDbLine
10
8.29750868999
20
7.59031499525
11
9.21429648981
21
7.59029901842
0
LINE
5
137
100
AcDbEntity
8
construction
6
ByLayer
62
256
370
-1
100
AcDbLine
10
8.29751380059
20
6.60881007908
11
9.21430160041
21
6.60879410225
0
LINE
5
138
100
AcDbEntity
8
construction
6
ByLayer
62
256
370
-1
100
AcDbLine
10
8.29751891119
20
5.6273051629
11
9.21430671101
21
5.62728918608
0
LINE
5
139
100
AcDbEntity
8
construction
6
ByLayer
62
256
370
-1
100
AcDbLine
10
8.29752402179
20
4.64580024673
11
9.21431182161
21
4.64578426991
0
LINE
5
13A
100
AcDbEntity
8
construction
6
ByLayer
62
256
370
-1
100
AcDbLine
10
3.71355783631
20
7.59032584585
11
3.71355272571
21
8.57183076202
0
LINE
5
13B
100
AcDbEntity
8
construction
6
ByLayer
62
256
370
-1
100
AcDbLine
10
4.63034563614
20
7.59030986902
11
4.63034052554
21
8.5718147852
0
LINE
5
13C
100
AcDbEntity
8
construction
6
ByLayer
62
256
370
-1
100
AcDbLine
10
5.54713343596
20
7.5902938922
11
5.54712832536
21
8.57179880837
0
LINE
5
13D
100
AcDbEntity
8
construction
6
ByLayer
62
256
370
-1
100
AcDbLine
10
6.46392123579
20
7.59027791537
11
6.46391612519
21
8.57178283154
0
LINE
5
13E
100
AcDbEntity
8
construction
6
ByLayer
62
256
370
-1
100
AcDbLine
10
7.38070903562
20
7.59026193855
11
7.38070392502
21
8.57176685472
0
LINE
5
13F
100
AcDbEntity
8
construction
6
ByLayer
62
256
370
-1
100
AcDbLine
10
8.29749683544
20
7.59024596172
11
8.29749172484
21
8.57175087789
0
LINE
5
140
100
AcDbEntity
8
construction
6
ByLayer
62
256
370
-1
100
AcDbLine
10
3.71357827871
20
3.66430618116
11
3.71357316811
21
4.64581109733
0
LINE
5
141
100
AcDbEntity
8
construction
6
ByLayer
62
256
370
-1
100
AcDbLine
10
4.63036607854
20
3.66429020434
11
4.63036096794
21
4.64579512051
0
LINE
5
142
100
AcDbEntity
8
construction
6
ByLayer
62
256
370
-1
100
AcDbLine
10
5.54715387837
20
3.66427422751
11
5.54714876777
21
4.64577914368
0
LINE
5
143
100
AcDbEntity
8
construction
6
ByLayer
62
256
370
-1
100
AcDbLine
10
6.46394167819
20
3.66425825069
11
6.46393656759
21
4.64576316686
0
LINE
5
144
100
AcDbEntity
8
construction
6
ByLayer
62
256
370
-1
100
AcDbLine
10
7.38072947802
20
3.66424227386
11
7.38072436742
21
4.64574719003
0
LINE
5
145
100
AcDbEntity
8
construction
6
ByLayer
62
256
370
-1
100
AcDbLine
10
8.29751727784
20
3.66422629703
11
8.29751216724
21
4.6457312132
0
CIRCLE
5
146
100
AcDbEntity
8
removal_pockets
6
ByLayer
62
256
370
-1
100
AcDbCircle
10
2.79674901991
20
7.59022868056
40
0.3
0
CIRCLE
5
147
100
AcDbEntity
8
removal_pockets
6
ByLayer
62
256
370
-1
100
AcDbCircle
10
2.79675413051
20
6.60872376439
40
0.3
0
CIRCLE
5
148
100
AcDbEntity
8
removal_pockets
6
ByLayer
62
256
370
-1
100
AcDbCircle
10
2.7967782798
20
5.62730900986
40
0.3
0
CIRCLE
5
149
100
AcDbEntity
8
removal_pockets
6
ByLayer
62
256
370
-1
100
AcDbCircle
10
2.79678536829
20
4.64582707416
40
0.3
0
CIRCLE
5
14A
100
AcDbEntity
8
removal_pockets
6
ByLayer
62
256
370
-1
100
AcDbCircle
10
3.71355272571
20
8.57183076202
40
0.3
0
CIRCLE
5
14B
100
AcDbEntity
8
removal_pockets
6
ByLayer
62
256
370
-1
100
AcDbCircle
10
4.63034052554
20
8.5718147852
40
0.3
0
CIRCLE
5
14C
100
AcDbEntity
8
removal_pockets
6
ByLayer
62
256
370
-1
100
AcDbCircle
10
5.5471270037
20
8.57180043133
40
0.3
0
CIRCLE
5
14D
100
AcDbEntity
8
removal_pockets
6
ByLayer
62
256
370
-1
100
AcDbCircle
10
6.46391792722
20
8.5718063065
40
0.3
0
CIRCLE
5
14E
100
AcDbEntity
8
removal_pockets
6
ByLayer
62
256
370
-1
100
AcDbCircle
10
7.38070312683
20
8.57180715781
40
0.3
0
CIRCLE
5
14F
100
AcDbEntity
8
removal_pockets
6
ByLayer
62
256
370
-1
100
AcDbCircle
10
8.29750357939
20
8.57181991142
40
0.3
0
CIRCLE
5
150
100
AcDbEntity
8
removal_pockets
6
ByLayer
62
256
370
-1
100
AcDbCircle
10
2.79674390931
20
8.57173359673
40
0.3
0
CIRCLE
5
151
100
AcDbEntity
8
removal_pockets
6
ByLayer
62
256
370
-1
100
AcDbCircle
10
9.21430834436
20
7.59036805195
40
0.3
0
CIRCLE
5
152
100
AcDbEntity
8
removal_pockets
6
ByLayer
62
256
370
-1
100
AcDbCircle
10
9.21429968811
20
6.60895306027
40
0.3
0
CIRCLE
5
153
100
AcDbEntity
8
removal_pockets
6
ByLayer
62
256
370
-1
100
AcDbCircle
10
9.21429675133
20
5.62745115779
40
0.3
0
CIRCLE
5
154
100
AcDbEntity
8
removal_pockets
6
ByLayer
62
256
370
-1
100
AcDbCircle
10
9.21430772236
20
4.6459482981
40
0.3
0
CIRCLE
5
155
100
AcDbEntity
8
removal_pockets
6
ByLayer
62
256
370
-1
100
AcDbCircle
10
9.21430323376
20
8.57187296812
40
0.3
0
CIRCLE
5
156
100
AcDbEntity
8
removal_pockets
6
ByLayer
62
256
370
-1
100
AcDbCircle
10
8.29751317858
20
3.66439032523
40
0.3
0
CIRCLE
5
157
100
AcDbEntity
8
removal_pockets
6
ByLayer
62
256
370
-1
100
AcDbCircle
10
7.38071439596
20
3.66442685858
40
0.3
0
CIRCLE
5
158
100
AcDbEntity
8
removal_pockets
6
ByLayer
62
256
370
-1
100
AcDbCircle
10
6.46394939672
20
3.66440692514
40
0.3
0
CIRCLE
5
159
100
AcDbEntity
8
removal_pockets
6
ByLayer
62
256
370
-1
100
AcDbCircle
10
5.54714414138
20
3.66435347009
40
0.3
0
CIRCLE
5
15A
100
AcDbEntity
8
removal_pockets
6
ByLayer
62
256
370
-1
100
AcDbCircle
10
4.63037711647
20
3.66441324705
40
0.3
0
CIRCLE
5
15B
100
AcDbEntity
8
removal_pockets
6
ByLayer
62
256
370
-1
100
AcDbCircle
10
3.7135992953
20
3.66441932328
40
0.3
0
CIRCLE
5
15C
100
AcDbEntity
8
removal_pockets
6
ByLayer
62
256
370
-1
100
AcDbCircle
10
2.79679047889
20
3.66432215799
40
0.3
0
CIRCLE
5
15D
100
AcDbEntity
8
removal_pockets
6
ByLayer
62
256
370
-1
100
AcDbCircle
10
9.21431283296
20
3.66444338193
40
0.3
0
LWPOLYLINE
5
15E
100
AcDbEntity
8
construction
6
ByLayer
62
256
370
-1
100
AcDbPolyline
90
4
70
1
43
0
10
2.79679047889
20
3.66432215799
10
9.21430323376
20
3.66432215799
10
9.21430323376
20
8.57187296812
10
2.79679047889
20
8.57187296812
0
LINE
5
15F
100
AcDbEntity
8
construction
6
ByLayer
62
256
370
-1
100
AcDbLine
10
0.513369
20
10.11418
11
11.4976
21
10.11418
0
LINE
5
160
100
AcDbEntity
8
construction
6
ByLayer
62
256
370
-1
100
AcDbLine
10
0.513369
20
10.11418
11
0.513372
21
2.12205
0
LINE
5
161
100
AcDbEntity
8
construction
6
ByLayer
62
256
370
-1
100
AcDbLine
10
0.513372
20
2.12205
11
11.4976
21
2.12205
0
LINE
5
162
100
AcDbEntity
8
construction
6
ByLayer
62
256
370
-1
100
AcDbLine
10
11.4976
20
10.11418
11
11.4976
21
2.12205
0
CIRCLE
5
163
100
AcDbEntity
8
mount_hole_1/4-20
6
ByLayer
62
256
370
-1
100
AcDbCircle
10
6.0054845
20
10.11418
40
0.133
0
CIRCLE
5
164
100
AcDbEntity
8
mount_hole_1/4-20
6
ByLayer
62
256
370
-1
100
AcDbCircle
10
0.5133705
20
6.118115
40
0.133
0
CIRCLE
5
165
100
AcDbEntity
8
mount_hole_1/4-20
6
ByLayer
62
256
370
-1
100
AcDbCircle
10
6.005486
20
2.12205
40
0.133
0
CIRCLE
5
166
100
AcDbEntity
8
mount_hole_1/4-20
6
ByLayer
62
256
370
-1
100
AcDbCircle
10
11.4976
20
6.118115
40
0.133
0
ARC
5
167
100
AcDbEntity
8
outer_boundary
6
ByLayer
62
256
370
-1
100
AcDbCircle
10
11.661024
20
10.98622
40
0.25
100
AcDbArc
50
0
51
90
0
LINE
5
168
100
AcDbEntity
8
outer_boundary
6
ByLayer
62
256
370
-1
100
AcDbLine
10
0.35
20
11.23622
11
11.661024
21
11.23622
0
ARC
5
169
100
AcDbEntity
8
outer_boundary
6
ByLayer
62
256
370
-1
100
AcDbCircle
10
0.35
20
10.98622
40
0.25
100
AcDbArc
50
90
51
180
0
LINE
5
16A
100
AcDbEntity
8
outer_boundary
6
ByLayer
62
256
370
-1
100
AcDbLine
10
0.1
20
10.98622
11
0.1
21
1.25
0
ARC
5
16B
100
AcDbEntity
8
outer_boundary
6
ByLayer
62
256
370
-1
100
AcDbCircle
10
0.35
20
1.25
40
0.25
100
AcDbArc
50
180
51
270
0
LINE
5
16C
100
AcDbEntity
8
outer_boundary
6
ByLayer
62
256
370
-1
100
AcDbLine
10
11.661024
20
1
11
0.35
21
1
0
LINE
5
16D
100
AcDbEntity
8
outer_boundary
6
ByLayer
62
256
370
-1
100
AcDbLine
10
11.911024
20
10.98622
11
11.911024
21
1.25
0
ARC
5
16E
100
AcDbEntity
8
outer_boundary
6
ByLayer
62
256
370
-1
100
AcDbCircle
10
11.661024
20
1.25
40
0.25
100
AcDbArc
50
270
51
0
0
LINE
5
16F
100
AcDbEntity
8
construction
6
ByLayer
62
256
370
-1
100
AcDbLine
10
6.0055525573
20
4.15519993703
11
9.0055525573
21
4.15519993703
0
LINE
5
170
100
AcDbEntity
8
construction
6
ByLayer
62
256
370
-1
100
AcDbLine
10
6.92230164549
20
4.15518034733
11
9.92230164549
21
4.15518034733
0
DIMENSION
5
171
100
AcDbEntity
8
construction
6
ByLayer
62
256
370
-1
100
AcDbDimension
2
*D11
10
6.5558525573
20
3.40187776767
30
0
11
6.42835554275
21
3.55187776767
31
0
70
32
71
5
72
0
3
Standard
53
0
210
0
220
0
230
1
100
AcDbAlignedDimension
13
6.30085852819
23
4.15519993703
33
0
14
6.5558525573
24
4.15519993703
34
0
100
AcDbRotatedDimension
0
LINE
5
172
100
AcDbEntity
8
construction
6
ByLayer
62
256
370
-1
100
AcDbLine
10
2.79679047889
20
3.66432215799
11
2.67179047889
21
3.66432215799
0
LINE
5
173
100
AcDbEntity
8
construction
6
ByLayer
62
256
370
-1
100
AcDbLine
10
2.79679047889
20
3.66432215799
11
2.79679047889
21
3.53932215799
0
DIMENSION
5
174
100
AcDbEntity
8
construction
6
ByLayer
62
256
370
-1
100
AcDbDimension
2
*D12
10
9.936963
20
8.57187296812
30
0
11
9.57563311688
21
8.72187296812
31
0
70
32
71
5
3
Standard
53
0
210
0
220
0
230
1
100
AcDbAlignedDimension
13
9.21430323376
23
8.57187296812
33
0
14
9.936963
24
9.262163
34
0
100
AcDbRotatedDimension
0
LINE
5
175
100
AcDbEntity
8
construction
6
ByLayer
62
256
370
-1
100
AcDbLine
10
0.513372
20
2.12205
11
6.005486
21
2.12205
0
LINE
5
176
100
AcDbEntity
8
construction
6
ByLayer
62
256
370
-1
100
AcDbLine
10
6.005486
20
2.12205
11
11.4976
21
2.12205
0
LINE
5
177
100
AcDbEntity
8
construction
6
ByLayer
62
256
370
-1
100
AcDbLine
10
0.513369
20
10.11418
11
6.0054845
21
10.11418
0
LINE
5
178
100
AcDbEntity
8
construction
6
ByLayer
62
256
370
-1
100
AcDbLine
10
6.0054845
20
10.11418
11
11.4976
21
10.11418
0
LINE
5
179
100
AcDbEntity
8
construction
6
ByLayer
62
256
370
-1
100
AcDbLine
10
0.513369
20
10.11418
11
0.5133705
21
6.118115
0
LINE
5
17A
100
AcDbEntity
8
construction
6
ByLayer
62
256
370
-1
100
AcDbLine
10
0.5133705
20
6.118115
11
0.513372
21
2.12205
0
LINE
5
17B
100
AcDbEntity
8
construction
6
ByLayer
62
256
370
-1
100
AcDbLine
10
11.4976
20
6.118115
11
11.4976
21
2.12205
0
LINE
5
17C
100
AcDbEntity
8
construction
6
ByLayer
62
256
370
-1
100
AcDbLine
10
11.4976
20
10.11418
11
11.4976
21
6.118115
0
CIRCLE
5
17D
100
AcDbEntity
8
fixture_hole
6
ByLayer
62
256
370
-1
100
AcDbCircle
10
3.25943
20
2.12205
40
0.09
0
CIRCLE
5
17E
100
AcDbEntity
8
fixture_hole
6
ByLayer
62
256
370
-1
100
AcDbCircle
10
8.75154
20
2.12205
40
0.09
0
CIRCLE
5
17F
100
AcDbEntity
8
fixture_hole
6
ByLayer
62
256
370
-1
100
AcDbCircle
10
11.4976
20
4.12008
40
0.09
0
CIRCLE
5
180
100
AcDbEntity
8
fixture_hole
6
ByLayer
62
256
370
-1
100
AcDbCircle
10
11.4976
20
8.11615
40
0.09
0
CIRCLE
5
181
100
AcDbEntity
8
fixture_hole
6
ByLayer
62
256
370
-1
100
AcDbCircle
10
8.75154
20
10.1142
40
0.09
0
CIRCLE
5
182
100
AcDbEntity
8
fixture_hole
6
ByLayer
62
256
370
-1
100
AcDbCircle
10
3.25943
20
10.1142
40
0.09
0
CIRCLE
5
183
100
AcDbEntity
8
fixture_hole
6
ByLayer
62
256
370
-1
100
AcDbCircle
10
0.51337
20
8.11615
40
0.09
0
CIRCLE
5
184
100
AcDbEntity
8
fixture_hole
6
ByLayer
62
256
370
-1
100
AcDbCircle
10
0.513371
20
4.12008
40
0.09
0
CIRCLE
5
185
100
AcDbEntity
8
disk_boundary
6
ByLayer
62
256
370
-1
100
AcDbCircle
10
3.25522
20
4.15516
40
0.275590551181
0
CIRCLE
5
186
100
AcDbEntity
8
disk_boundary
6
ByLayer
62
256
370
-1
100
AcDbCircle
10
4.17198
20
4.1552
40
0.275590551181
0
CIRCLE
5
187
100
AcDbEntity
8
disk_boundary
6
ByLayer
62
256
370
-1
100
AcDbCircle
10
5.08874
20
4.15511
40
0.275590551181
0
CIRCLE
5
188
100
AcDbEntity
8
disk_boundary
6
ByLayer
62
256
370
-1
100
AcDbCircle
10
6.00555
20
4.1552
40
0.275590551181
0
CIRCLE
5
189
100
AcDbEntity
8
disk_boundary
6
ByLayer
62
256
370
-1
100
AcDbCircle
10
6.9223
20
4.15518
40
0.275590551181
0
CIRCLE
5
18A
100
AcDbEntity
8
disk_boundary
6
ByLayer
62
256
370
-1
100
AcDbCircle
10
7.83911
20
4.15514
40
0.275590551181
0
CIRCLE
5
18B
100
AcDbEntity
8
disk_boundary
6
ByLayer
62
256
370
-1
100
AcDbCircle
10
8.75587
20
4.15513
40
0.275590551181
0
CIRCLE
5
18C
100
AcDbEntity
8
disk_boundary
6
ByLayer
62
256
370
-1
100
AcDbCircle
10
3.25519
20
5.13669
40
0.275590551181
0
CIRCLE
5
18D
100
AcDbEntity
8
disk_boundary
6
ByLayer
62
256
370
-1
100
AcDbCircle
10
4.17197
20
5.13669
40
0.275590551181
0
CIRCLE
5
18E
100
AcDbEntity
8
disk_boundary
6
ByLayer
62
256
370
-1
100
AcDbCircle
10
5.08876
20
5.13664
40
0.275590551181
0
CIRCLE
5
18F
100
AcDbEntity
8
disk_boundary
6
ByLayer
62
256
370
-1
100
AcDbCircle
10
6.00554
20
5.1366
40
0.275590551181
0
CIRCLE
5
190
100
AcDbEntity
8
disk_boundary
6
ByLayer
62
256
370
-1
100
AcDbCircle
10
6.92234
20
5.13662
40
0.275590551181
0
CIRCLE
5
191
100
AcDbEntity
8
disk_boundary
6
ByLayer
62
256
370
-1
100
AcDbCircle
10
7.83912
20
5.13668
40
0.275590551181
0
CIRCLE
5
192
100
AcDbEntity
8
disk_boundary
6
ByLayer
62
256
370
-1
100
AcDbCircle
10
8.75591
20
5.13665
40
0.275590551181
0
CIRCLE
5
193
100
AcDbEntity
8
disk_boundary
6
ByLayer
62
256
370
-1
100
AcDbCircle
10
8.75588
20
6.11811
40
0.275590551181
0
CIRCLE
5
194
100
AcDbEntity
8
disk_boundary
6
ByLayer
62
256
370
-1
100
AcDbCircle
10
7.83911
20
6.11816
40
0.275590551181
0
CIRCLE
5
195
100
AcDbEntity
8
disk_boundary
6
ByLayer
62
256
370
-1
100
AcDbCircle
10
6.92234
20
6.11811
40
0.275590551181
0
CIRCLE
5
196
100
AcDbEntity
8
disk_boundary
6
ByLayer
62
256
370
-1
100
AcDbCircle
10
6.00551
20
6.11808
40
0.275590551181
0
CIRCLE
5
197
100
AcDbEntity
8
disk_boundary
6
ByLayer
62
256
370
-1
100
AcDbCircle
10
5.08876
20
6.11815
40
0.275591
0
CIRCLE
5
198
100
AcDbEntity
8
disk_boundary
6
ByLayer
62
256
370
-1
100
AcDbCircle
10
4.17199
20
6.11812
40
0.275590551181
0
CIRCLE
5
199
100
AcDbEntity
8
disk_boundary
6
ByLayer
62
256
370
-1
100
AcDbCircle
10
3.25517
20
6.11809
40
0.275590551181
0
CIRCLE
5
19A
100
AcDbEntity
8
disk_boundary
6
ByLayer
62
256
370
-1
100
AcDbCircle
10
8.75589
20
7.09964
40
0.275590551181
0
CIRCLE
5
19B
100
AcDbEntity
8
disk_boundary
6
ByLayer
62
256
370
-1
100
AcDbCircle
10
7.83911
20
7.09956
40
0.275590551181
0
CIRCLE
5
19C
100
AcDbEntity
8
disk_boundary
6
ByLayer
62
256
370
-1
100
AcDbCircle
10
6.92231
20
7.09956
40
0.275590551181
0
CIRCLE
5
19D
100
AcDbEntity
8
disk_boundary
6
ByLayer
62
256
370
-1
100
AcDbCircle
10
6.00552
20
7.09957
40
0.275590551181
0
CIRCLE
5
19E
100
AcDbEntity
8
disk_boundary
6
ByLayer
62
256
370
-1
100
AcDbCircle
10
5.08875
20
7.09957
40
0.275590551181
0
CIRCLE
5
19F
100
AcDbEntity
8
disk_boundary
6
ByLayer
62
256
370
-1
100
AcDbCircle
10
3.25516
20
7.09959
40
0.275590551181
0
CIRCLE
5
1A0
100
AcDbEntity
8
disk_boundary
6
ByLayer
62
256
370
-1
100
AcDbCircle
10
8.7559
20
8.08107
40
0.275590551181
0
CIRCLE
5
1A1
100
AcDbEntity
8
disk_boundary
6
ByLayer
62
256
370
-1
100
AcDbCircle
10
7.83911
20
8.08105
40
0.275590551181
0
CIRCLE
5
1A2
100
AcDbEntity
8
disk_boundary
6
ByLayer
62
256
370
-1
100
AcDbCircle
10
6.92233
20
8.08104
40
0.275590551181
0
CIRCLE
5
1A3
100
AcDbEntity
8
disk_boundary
6
ByLayer
62
256
370
-1
100
AcDbCircle
10
6.00552
20
8.08102
40
0.275590551181
0
CIRCLE
5
1A4
100
AcDbEntity
8
disk_boundary
6
ByLayer
62
256
370
-1
100
AcDbCircle
10
5.08873
20
8.08107
40
0.275590551181
0
CIRCLE
5
1A5
100
AcDbEntity
8
disk_boundary
6
ByLayer
62
256
370
-1
100
AcDbCircle
10
4.17195
20
8.08106
40
0.275590551181
0
CIRCLE
5
1A6
100
AcDbEntity
8
disk_boundary
6
ByLayer
62
256
370
-1
100
AcDbCircle
10
3.25519
20
8.08104
40
0.275590551181
0
CIRCLE
5
1A7
100
AcDbEntity
8
disk_boundary
6
ByLayer
62
256
370
-1
100
AcDbCircle
10
4.17196
20
7.09955
40
0.275591
0
DIMENSION
5
1A8
100
AcDbEntity
8
dimensions
6
ByLayer
62
256
370
-1
100
AcDbDimension
2
*D13
10
8.48688015099
20
4.09517490822
30
0
11
8.72323730005
21
4.3015373321
31
0
70
35
71
5
3
Standard
53
0
210
0
220
0
230
1
100
AcDbDiametricDimension
15
9.02485984901
25
4.21508509178
35
0
40
0
0
ENDSEC
0
SECTION
2
OBJECTS
0
DICTIONARY
5
C
330
0
100
AcDbDictionary
281
1
3
ACAD_GROUP
350
D
0
DICTIONARY
5
D
330
C
100
AcDbDictionary
281
1
0
ENDSEC
0
EOF
