999
dxfrw 0.6.3
  0
SECTION
  2
HEADER
  9
$ACADVER
  1
AC1021
  9
$DWGCODEPAGE
  3
ANSI_1252
  9
$INSBASE
 10
0
 20
0
 30
0
  9
$EXTMIN
 10
-0.8561461423911521
 20
-0.9873336626790761
 30
0
  9
$EXTMAX
 10
12.78274047383256
 20
10.23622
 30
0
  9
$LIMMIN
 10
0
 20
0
  9
$LIMMAX
 10
420
 20
297
  9
$ORTHOMODE
 70
    0
  9
$REGENMODE
 70
    1
  9
$FILLMODE
 70
    1
  9
$QTEXTMODE
 70
    0
  9
$MIRRTEXT
 70
    0
  9
$LTSCALE
 40
1
  9
$ATTMODE
 70
    0
  9
$TEXTSIZE
 40
2.5
  9
$TRACEWID
 40
15.68
  9
$TEXTSTYLE
  7
STANDARD
  9
$CLAYER
  8
construction
  9
$CELTYPE
  6
BYLAYER
  9
$CECOLOR
 62
  256
  9
$CELTSCALE
 40
1
  9
$DISPSILH
 70
    0
  9
$DIMSCALE
 40
1
  9
$DIMASZ
 40
0.25
  9
$DIMEXO
 40
0.025
  9
$DIMDLI
 40
3.75
  9
$DIMRND
 40
0
  9
$DIMDLE
 40
0
  9
$DIMEXE
 40
0.05
  9
$DIMTP
 40
0
  9
$DIMTM
 40
0
  9
$DIMTXT
 40
0.25
  9
$DIMCEN
 40
2.5
  9
$DIMTSZ
 40
0
  9
$DIMTOL
 70
    0
  9
$DIMLIM
 70
    0
  9
$DIMTIH
 70
    0
  9
$DIMTOH
 70
    0
  9
$DIMSE1
 70
    0
  9
$DIMSE2
 70
    0
  9
$DIMTAD
 70
    1
  9
$DIMZIN
 70
    1
  9
$DIMBLK
  1

  9
$DIMASO
 70
    1
  9
$DIMSHO
 70
    1
  9
$DIMPOST
  1

  9
$DIMAPOST
  1

  9
$DIMALT
 70
    0
  9
$DIMALTD
 70
    3
  9
$DIMALTF
 40
0.03937
  9
$DIMLFAC
 40
1
  9
$DIMTOFL
 70
    1
  9
$DIMTVP
 40
0
  9
$DIMTIX
 70
    0
  9
$DIMSOXD
 70
    0
  9
$DIMSAH
 70
    0
  9
$DIMBLK1
  1

  9
$DIMBLK2
  1

  9
$DIMSTYLE
  2
Standard
  9
$DIMCLRD
 70
    0
  9
$DIMCLRE
 70
    0
  9
$DIMCLRT
 70
    0
  9
$DIMTFAC
 40
1
  9
$DIMGAP
 40
0.025
  9
$DIMJUST
 70
    0
  9
$DIMSD1
 70
    0
  9
$DIMSD2
 70
    0
  9
$DIMTOLJ
 70
    0
  9
$DIMTZIN
 70
    8
  9
$DIMALTZ
 70
    0
  9
$DIMALTTZ
 70
    0
  9
$DIMUPT
 70
    0
  9
$DIMDEC
 70
    4
  9
$DIMTDEC
 70
    2
  9
$DIMALTU
 70
    2
  9
$DIMALTTD
 70
    3
  9
$DIMTXSTY
  7
standard
  9
$DIMAUNIT
 70
    0
  9
$DIMADEC
 70
    2
  9
$DIMALTRND
 40
0
  9
$DIMAZIN
 70
    0
  9
$DIMDSEP
 70
    0
  9
$DIMATFIT
 70
    3
  9
$DIMFRAC
 70
    0
  9
$DIMLDRBLK
  1
STANDARD
  9
$DIMLUNIT
 70
    2
  9
$DIMLWD
 70
   -2
  9
$DIMLWE
 70
   -2
  9
$DIMTMOVE
 70
    0
  9
$DIMFXL
 40
0.04
  9
$DIMFXLON
 70
    0
  9
$DIMJOGANG
 40
0.7854
  9
$DIMTFILL
 70
    0
  9
$DIMTFILLCLR
 70
    0
  9
$DIMARCSYM
 70
    0
  9
$DIMLTYPE
  6

  9
$DIMLTEX1
  6

  9
$DIMLTEX2
  6

  9
$LUNITS
 70
    2
  9
$LUPREC
 70
    4
  9
$SKETCHINC
 40
1
  9
$FILLETRAD
 40
0
  9
$AUNITS
 70
    0
  9
$AUPREC
 70
    2
  9
$MENU
  1
.
  9
$ELEVATION
 40
0
  9
$PELEVATION
 40
0
  9
$THICKNESS
 40
0
  9
$LIMCHECK
 70
    0
  9
$CHAMFERA
 40
0
  9
$CHAMFERB
 40
0
  9
$CHAMFERC
 40
0
  9
$CHAMFERD
 40
0
  9
$SKPOLY
 70
    0
  9
$USRTIMER
 70
    1
  9
$ANGBASE
 50
0
  9
$ANGDIR
 70
    0
  9
$PDMODE
 70
   34
  9
$PDSIZE
 40
0
  9
$PLINEWID
 40
0
  9
$SPLFRAME
 70
    0
  9
$SPLINETYPE
 70
    2
  9
$SPLINESEGS
 70
    8
  9
$HANDSEED
  5
20000
  9
$SURFTAB1
 70
    6
  9
$SURFTAB2
 70
    6
  9
$SURFTYPE
 70
    6
  9
$SURFU
 70
    6
  9
$SURFV
 70
    6
  9
$UCSBASE
  2

  9
$UCSNAME
  2

  9
$UCSORG
 10
0
 20
0
 30
0
  9
$UCSXDIR
 10
1
 20
0
 30
0
  9
$UCSYDIR
 10
0
 20
1
 30
0
  9
$UCSORTHOREF
  2

  9
$UCSORTHOVIEW
 70
    0
  9
$UCSORGTOP
 10
0
 20
0
 30
0
  9
$UCSORGBOTTOM
 10
0
 20
0
 30
0
  9
$UCSORGLEFT
 10
0
 20
0
 30
0
  9
$UCSORGRIGHT
 10
0
 20
0
 30
0
  9
$UCSORGFRONT
 10
0
 20
0
 30
0
  9
$UCSORGBACK
 10
0
 20
0
 30
0
  9
$PUCSBASE
  2

  9
$PUCSNAME
  2

  9
$PUCSORG
 10
0
 20
0
 30
0
  9
$PUCSXDIR
 10
1
 20
0
 30
0
  9
$PUCSYDIR
 10
0
 20
1
 30
0
  9
$PUCSORTHOREF
  2

  9
$PUCSORTHOVIEW
 70
    0
  9
$PUCSORGTOP
 10
0
 20
0
 30
0
  9
$PUCSORGBOTTOM
 10
0
 20
0
 30
0
  9
$PUCSORGLEFT
 10
0
 20
0
 30
0
  9
$PUCSORGRIGHT
 10
0
 20
0
 30
0
  9
$PUCSORGFRONT
 10
0
 20
0
 30
0
  9
$PUCSORGBACK
 10
0
 20
0
 30
0
  9
$USERI1
 70
    0
  9
$USERI2
 70
    0
  9
$USERI3
 70
    0
  9
$USERI4
 70
    0
  9
$USERI5
 70
    0
  9
$USERR1
 40
0
  9
$USERR2
 40
0
  9
$USERR3
 40
0
  9
$USERR4
 40
0
  9
$USERR5
 40
0
  9
$WORLDVIEW
 70
    1
  9
$SHADEDGE
 70
    3
  9
$SHADEDIF
 70
   70
  9
$TILEMODE
 70
    1
  9
$MAXACTVP
 70
   64
  9
$PINSBASE
 10
0
 20
0
 30
0
  9
$PLIMCHECK
 70
    0
  9
$PEXTMIN
 10
0
 20
0
 30
0
  9
$PEXTMAX
 10
0
 20
0
 30
0
  9
$GRIDMODE
 70
    1
  9
$SNAPSTYLE
 70
    0
  9
$GRIDUNIT
 10
0
 20
0
  9
$PLIMMIN
 10
0
 20
0
  9
$PLIMMAX
 10
1.878711e-12
 20
2.657094e-12
  9
$UNITMODE
 70
    0
  9
$VISRETAIN
 70
    1
  9
$PLINEGEN
 70
    0
  9
$PSLTSCALE
 70
    1
  9
$TREEDEPTH
 70
 3020
  9
$CMLSTYLE
  2
Standard
  9
$CMLJUST
 70
    0
  9
$CMLSCALE
 40
20
  9
$PROXYGRAPHICS
 70
    1
  9
$MEASUREMENT
 70
    1
  9
$CELWEIGHT
370
   -1
  9
$ENDCAPS
280
    0
  9
$JOINSTYLE
280
    0
  9
$LWDISPLAY
290
    0
  9
$INSUNITS
 70
    1
  9
$HYPERLINKBASE
  1

  9
$STYLESHEET
  1

  9
$XEDIT
290
    1
  9
$CEPSNTYPE
380
    0
  9
$PSTYLEMODE
290
    1
  9
$EXTNAMES
290
    1
  9
$PSVPSCALE
 40
1
  9
$OLESTARTUP
290
    0
  9
$SORTENTS
280
  127
  9
$INDEXCTL
280
    0
  9
$HIDETEXT
280
    1
  9
$XCLIPFRAME
290
    0
  9
$HALOGAP
280
    0
  9
$OBSCOLOR
 70
  257
  9
$OBSLTYPE
280
    0
  9
$INTERSECTIONDISPLAY
280
    0
  9
$INTERSECTIONCOLOR
 70
  257
  9
$DIMASSOC
280
    1
  9
$PROJECTNAME
  1

  9
$CAMERADISPLAY
290
    0
  9
$LENSLENGTH
 40
50
  9
$CAMERAHEIGHT
 40
0
  9
$STEPSPERSEC
 40
2
  9
$STEPSIZE
 40
50
  9
$3DDWFPREC
 40
2
  9
$PSOLWIDTH
 40
5
  9
$PSOLHEIGHT
 40
80
  9
$LOFTANG1
 40
1.570796326794897
  9
$LOFTANG2
 40
1.570796326794897
  9
$LOFTMAG1
 40
0
  9
$LOFTMAG2
 40
0
  9
$LOFTPARAM
 70
    7
  9
$LOFTNORMALS
280
    1
  9
$LATITUDE
 40
1
  9
$LONGITUDE
 40
1
  9
$NORTHDIRECTION
 40
0
  9
$TIMEZONE
 70
-8000
  9
$LIGHTGLYPHDISPLAY
280
    1
  9
$TILEMODELIGHTSYNCH
280
    1
  9
$SOLIDHIST
280
    1
  9
$SHOWHIST
280
    1
  9
$DWFFRAME
280
    2
  9
$DGNFRAME
280
    0
  9
$REALWORLDSCALE
290
    1
  9
$INTERFERECOLOR
 62
    1
  9
$CSHADOW
280
    0
  9
$SHADOWPLANELOCATION
 40
0
  0
ENDSEC
  0
SECTION
  2
CLASSES
  0
ENDSEC
  0
SECTION
  2
TABLES
  0
TABLE
  2
VPORT
  5
8
330
0
100
AcDbSymbolTable
 70
    1
  0
VPORT
  5
31
330
2
100
AcDbSymbolTableRecord
100
AcDbViewportTableRecord
  2
*ACTIVE
 70
    0
 10
0
 20
0
 11
1
 21
1
 12
8.590335303358216
 22
5.194490861829675
 13
0
 23
0
 14
10
 24
10
 15
10
 25
10
 16
0
 26
0
 36
1
 17
0
 27
0
 37
0
 40
11.51133708992726
 41
1.9475
 42
50
 43
0
 44
0
 50
0
 51
0
 71
    0
 72
  100
 73
    1
 74
    3
 75
    0
 76
    1
 77
    0
 78
    0
281
    0
 65
    1
110
0
120
0
130
0
111
1
121
0
131
0
112
0
122
1
132
0
 79
    0
146
0
348
10020
 60
    7
 61
    5
292
1
282
    1
141
0
142
0
 63
  250
421
3358443
  0
ENDTAB
  0
TABLE
  2
LTYPE
  5
5
330
0
100
AcDbSymbolTable
 70
    4
  0
LTYPE
  5
14
330
5
100
AcDbSymbolTableRecord
100
AcDbLinetypeTableRecord
  2
ByBlock
 70
    0
  3

 72
   65
 73
    0
 40
0
  0
LTYPE
  5
15
330
5
100
AcDbSymbolTableRecord
100
AcDbLinetypeTableRecord
  2
ByLayer
 70
    0
  3

 72
   65
 73
    0
 40
0
  0
LTYPE
  5
16
330
5
100
AcDbSymbolTableRecord
100
AcDbLinetypeTableRecord
  2
Continuous
 70
    0
  3
Solid line
 72
   65
 73
    0
 40
0
  0
LTYPE
  5
32
330
5
100
AcDbSymbolTableRecord
100
AcDbLinetypeTableRecord
  2
DOT
 70
    0
  3
Dot . . . . . . . . . . . . . . . . . . . . . .
 72
   65
 73
    2
 40
6.35
 49
0
 74
    0
 49
-6.35
 74
    0
  0
LTYPE
  5
33
330
5
100
AcDbSymbolTableRecord
100
AcDbLinetypeTableRecord
  2
DOTTINY
 70
    0
  3
Dot (.15x) .....................................
 72
   65
 73
    2
 40
0.9525
 49
0
 74
    0
 49
-0.9525
 74
    0
  0
LTYPE
  5
34
330
5
100
AcDbSymbolTableRecord
100
AcDbLinetypeTableRecord
  2
DOT2
 70
    0
  3
Dot (.5x) .....................................
 72
   65
 73
    2
 40
3.175
 49
0
 74
    0
 49
-3.175
 74
    0
  0
LTYPE
  5
35
330
5
100
AcDbSymbolTableRecord
100
AcDbLinetypeTableRecord
  2
DOTX2
 70
    0
  3
Dot (2x) .  .  .  .  .  .  .  .  .  .  .  .  .
 72
   65
 73
    2
 40
12.7
 49
0
 74
    0
 49
-12.7
 74
    0
  0
LTYPE
  5
36
330
5
100
AcDbSymbolTableRecord
100
AcDbLinetypeTableRecord
  2
DASHED
 70
    0
  3
Dashed _ _ _ _ _ _ _ _ _ _ _ _ _ _ _ _ _
 72
   65
 73
    2
 40
19.05
 49
12.7
 74
    0
 49
-6.35
 74
    0
  0
LTYPE
  5
37
330
5
100
AcDbSymbolTableRecord
100
AcDbLinetypeTableRecord
  2
DASHEDTINY
 70
    0
  3
Dashed (.15x) _ _ _ _ _ _ _ _ _ _ _ _ _ _ _ _ _
 72
   65
 73
    2
 40
2.8575
 49
1.905
 74
    0
 49
-0.9525
 74
    0
  0
LTYPE
  5
38
330
5
100
AcDbSymbolTableRecord
100
AcDbLinetypeTableRecord
  2
DASHED2
 70
    0
  3
Dashed (.5x) _ _ _ _ _ _ _ _ _ _ _ _ _ _ _ _ _
 72
   65
 73
    2
 40
9.524999999999999
 49
6.35
 74
    0
 49
-3.175
 74
    0
  0
LTYPE
  5
39
330
5
100
AcDbSymbolTableRecord
100
AcDbLinetypeTableRecord
  2
DASHEDX2
 70
    0
  3
Dashed (2x) ____  ____  ____  ____  ____  ___
 72
   65
 73
    2
 40
38.09999999999999
 49
25.4
 74
    0
 49
-12.7
 74
    0
  0
LTYPE
  5
3A
330
5
100
AcDbSymbolTableRecord
100
AcDbLinetypeTableRecord
  2
DASHDOT
 70
    0
  3
Dash dot __ . __ . __ . __ . __ . __ . __ . __
 72
   65
 73
    4
 40
25.4
 49
12.7
 74
    0
 49
-6.35
 74
    0
 49
0
 74
    0
 49
-6.35
 74
    0
  0
LTYPE
  5
3B
330
5
100
AcDbSymbolTableRecord
100
AcDbLinetypeTableRecord
  2
DASHDOTTINY
 70
    0
  3
Dash dot (.15x) _._._._._._._._._._._._._._._.
 72
   65
 73
    4
 40
3.81
 49
1.905
 74
    0
 49
-0.9525
 74
    0
 49
0
 74
    0
 49
-0.9525
 74
    0
  0
LTYPE
  5
3C
330
5
100
AcDbSymbolTableRecord
100
AcDbLinetypeTableRecord
  2
DASHDOT2
 70
    0
  3
Dash dot (.5x) _._._._._._._._._._._._._._._.
 72
   65
 73
    4
 40
12.7
 49
6.35
 74
    0
 49
-3.175
 74
    0
 49
0
 74
    0
 49
-3.175
 74
    0
  0
LTYPE
  5
3D
330
5
100
AcDbSymbolTableRecord
100
AcDbLinetypeTableRecord
  2
DASHDOTX2
 70
    0
  3
Dash dot (2x) ____  .  ____  .  ____  .  ___
 72
   65
 73
    4
 40
50.8
 49
25.4
 74
    0
 49
-12.7
 74
    0
 49
0
 74
    0
 49
-12.7
 74
    0
  0
LTYPE
  5
3E
330
5
100
AcDbSymbolTableRecord
100
AcDbLinetypeTableRecord
  2
DIVIDE
 70
    0
  3
Divide ____ . . ____ . . ____ . . ____ . . ____
 72
   65
 73
    6
 40
31.75
 49
12.7
 74
    0
 49
-6.35
 74
    0
 49
0
 74
    0
 49
-6.35
 74
    0
 49
0
 74
    0
 49
-6.35
 74
    0
  0
LTYPE
  5
3F
330
5
100
AcDbSymbolTableRecord
100
AcDbLinetypeTableRecord
  2
DIVIDETINY
 70
    0
  3
Divide (.15x) __..__..__..__..__..__..__..__.._
 72
   65
 73
    6
 40
4.7625
 49
1.905
 74
    0
 49
-0.9525
 74
    0
 49
0
 74
    0
 49
-0.9525
 74
    0
 49
0
 74
    0
 49
-0.9525
 74
    0
  0
LTYPE
  5
40
330
5
100
AcDbSymbolTableRecord
100
AcDbLinetypeTableRecord
  2
DIVIDE2
 70
    0
  3
Divide (.5x) __..__..__..__..__..__..__..__.._
 72
   65
 73
    6
 40
15.875
 49
6.35
 74
    0
 49
-3.175
 74
    0
 49
0
 74
    0
 49
-3.175
 74
    0
 49
0
 74
    0
 49
-3.175
 74
    0
  0
LTYPE
  5
41
330
5
100
AcDbSymbolTableRecord
100
AcDbLinetypeTableRecord
  2
DIVIDEX2
 70
    0
  3
Divide (2x) ________  .  .  ________  .  .  _
 72
   65
 73
    6
 40
63.5
 49
25.4
 74
    0
 49
-12.7
 74
    0
 49
0
 74
    0
 49
-12.7
 74
    0
 49
0
 74
    0
 49
-12.7
 74
    0
  0
LTYPE
  5
42
330
5
100
AcDbSymbolTableRecord
100
AcDbLinetypeTableRecord
  2
BORDER
 70
    0
  3
Border __ __ . __ __ . __ __ . __ __ . __ __ .
 72
   65
 73
    6
 40
44.45
 49
12.7
 74
    0
 49
-6.35
 74
    0
 49
12.7
 74
    0
 49
-6.35
 74
    0
 49
0
 74
    0
 49
-6.35
 74
    0
  0
LTYPE
  5
43
330
5
100
AcDbSymbolTableRecord
100
AcDbLinetypeTableRecord
  2
BORDERTINY
 70
    0
  3
Border (.15x) __.__.__.__.__.__.__.__.__.__.__.
 72
   65
 73
    6
 40
6.6675
 49
1.905
 74
    0
 49
-0.9525
 74
    0
 49
1.905
 74
    0
 49
-0.9525
 74
    0
 49
0
 74
    0
 49
-0.9525
 74
    0
  0
LTYPE
  5
44
330
5
100
AcDbSymbolTableRecord
100
AcDbLinetypeTableRecord
  2
BORDER2
 70
    0
  3
Border (.5x) __.__.__.__.__.__.__.__.__.__.__.
 72
   65
 73
    6
 40
22.225
 49
6.35
 74
    0
 49
-3.175
 74
    0
 49
6.35
 74
    0
 49
-3.175
 74
    0
 49
0
 74
    0
 49
-3.175
 74
    0
  0
LTYPE
  5
45
330
5
100
AcDbSymbolTableRecord
100
AcDbLinetypeTableRecord
  2
BORDERX2
 70
    0
  3
Border (2x) ____  ____  .  ____  ____  .  ___
 72
   65
 73
    6
 40
88.89999999999999
 49
25.4
 74
    0
 49
-12.7
 74
    0
 49
25.4
 74
    0
 49
-12.7
 74
    0
 49
0
 74
    0
 49
-12.7
 74
    0
  0
LTYPE
  5
46
330
5
100
AcDbSymbolTableRecord
100
AcDbLinetypeTableRecord
  2
CENTER
 70
    0
  3
Center ____ _ ____ _ ____ _ ____ _ ____ _ ____
 72
   65
 73
    4
 40
50.8
 49
31.75
 74
    0
 49
-6.35
 74
    0
 49
6.35
 74
    0
 49
-6.35
 74
    0
  0
LTYPE
  5
47
330
5
100
AcDbSymbolTableRecord
100
AcDbLinetypeTableRecord
  2
CENTERTINY
 70
    0
  3
Center (.15x) ___ _ ___ _ ___ _ ___ _ ___ _ ___
 72
   65
 73
    4
 40
7.619999999999999
 49
4.7625
 74
    0
 49
-0.9525
 74
    0
 49
0.9525
 74
    0
 49
-0.9525
 74
    0
  0
LTYPE
  5
48
330
5
100
AcDbSymbolTableRecord
100
AcDbLinetypeTableRecord
  2
CENTER2
 70
    0
  3
Center (.5x) ___ _ ___ _ ___ _ ___ _ ___ _ ___
 72
   65
 73
    4
 40
28.575
 49
19.05
 74
    0
 49
-3.175
 74
    0
 49
3.175
 74
    0
 49
-3.175
 74
    0
  0
LTYPE
  5
49
330
5
100
AcDbSymbolTableRecord
100
AcDbLinetypeTableRecord
  2
CENTERX2
 70
    0
  3
Center (2x) ________  __  ________  __  _____
 72
   65
 73
    4
 40
101.6
 49
63.5
 74
    0
 49
-12.7
 74
    0
 49
12.7
 74
    0
 49
-12.7
 74
    0
  0
ENDTAB
  0
TABLE
  2
LAYER
  5
2
330
0
100
AcDbSymbolTable
 70
    1
  0
LAYER
  5
10
330
2
100
AcDbSymbolTableRecord
100
AcDbLayerTableRecord
  2
0
 70
    0
 62
    7
  6
CONTINUOUS
370
   -3
390
F
  0
LAYER
  5
4A
330
2
100
AcDbSymbolTableRecord
100
AcDbLayerTableRecord
  2
construction
 70
    1
 62
    8
  6
CONTINUOUS
370
    0
390
F
  0
LAYER
  5
4B
330
2
100
AcDbSymbolTableRecord
100
AcDbLayerTableRecord
  2
dimensions
 70
    0
 62
  253
420
10526884
  6
CONTINUOUS
370
    0
390
F
  0
LAYER
  5
4C
330
2
100
AcDbSymbolTableRecord
100
AcDbLayerTableRecord
  2
disk_boundary
 70
    0
 62
    2
  6
CONTINUOUS
370
    0
390
F
  0
LAYER
  5
4D
330
2
100
AcDbSymbolTableRecord
100
AcDbLayerTableRecord
  2
inner_boundary
 70
    0
 62
    5
  6
CONTINUOUS
370
    0
390
F
  0
LAYER
  5
4E
330
2
100
AcDbSymbolTableRecord
100
AcDbLayerTableRecord
  2
mount_hole_1/4-20
 70
    0
 62
    6
  6
CONTINUOUS
370
    0
390
F
  0
LAYER
  5
4F
330
2
100
AcDbSymbolTableRecord
100
AcDbLayerTableRecord
  2
mount_hole_8-32
 70
    0
 62
    4
  6
CONTINUOUS
370
    0
390
F
  0
LAYER
  5
50
330
2
100
AcDbSymbolTableRecord
100
AcDbLayerTableRecord
  2
outer_boundary
 70
    0
 62
    3
  6
CONTINUOUS
370
    0
390
F
  0
LAYER
  5
51
330
2
100
AcDbSymbolTableRecord
100
AcDbLayerTableRecord
  2
removal_annuli
 70
    1
 62
   56
420
8421376
  6
CONTINUOUS
370
    0
390
F
  0
LAYER
  5
52
330
2
100
AcDbSymbolTableRecord
100
AcDbLayerTableRecord
  2
removal_pockets
 70
    1
 62
  216
420
8388736
  6
CONTINUOUS
370
    0
390
F
  0
ENDTAB
  0
TABLE
  2
STYLE
  5
3
330
0
100
AcDbSymbolTable
 70
    3
  0
STYLE
  5
53
330
2
100
AcDbSymbolTableRecord
100
AcDbTextStyleTableRecord
  2
Standard
 70
    0
 40
0
 41
1
 50
0
 71
    0
 42
1
  3
txt
  4

  0
ENDTAB
  0
TABLE
  2
VIEW
  5
6
330
0
100
AcDbSymbolTable
 70
    0
  0
ENDTAB
  0
TABLE
  2
UCS
  5
7
330
0
100
AcDbSymbolTable
 70
    0
  0
ENDTAB
  0
TABLE
  2
APPID
  5
9
330
0
100
AcDbSymbolTable
 70
    1
  0
APPID
  5
12
330
9
100
AcDbSymbolTableRecord
100
AcDbRegAppTableRecord
  2
ACAD
 70
    0
  0
APPID
  5
54
330
9
100
AcDbSymbolTableRecord
100
AcDbRegAppTableRecord
  2
LibreCad
 70
    0
  0
ENDTAB
  0
TABLE
  2
DIMSTYLE
  5
A
330
0
100
AcDbSymbolTable
 70
    1
100
AcDbDimStyleTable
 71
    1
  0
DIMSTYLE
105
55
330
A
100
AcDbSymbolTableRecord
100
AcDbDimStyleTableRecord
  2
Standard
 70
    0
 40
1
 41
0.25
 42
0.025
 43
0.38
 44
0.05
 45
0
 46
0
 47
0
 48
0
 49
0.04
140
0.25
141
0.09
142
0
143
25.4
144
1
145
0
146
1
147
0.025
148
0
 71
    0
 72
    0
 73
    0
 74
    1
 75
    0
 76
    0
 77
    0
 78
    1
 79
    0
170
    0
171
    2
172
    0
173
    0
174
    0
175
    0
176
    0
177
    0
178
    0
179
    2
271
    4
272
    4
273
    2
274
    2
275
    0
276
    0
277
    2
278
    0
279
    0
280
    0
281
    0
282
    0
283
    1
284
    0
285
    0
286
    0
288
    0
289
    3
340
standard
341

371
   -2
372
   -2
  0
ENDTAB
  0
TABLE
  2
BLOCK_RECORD
  5
1
330
0
100
AcDbSymbolTable
 70
    2
  0
BLOCK_RECORD
  5
1F
330
1
100
AcDbSymbolTableRecord
100
AcDbBlockTableRecord
  2
*Model_Space
 70
    0
280
    1
281
    0
  0
BLOCK_RECORD
  5
1E
330
1
100
AcDbSymbolTableRecord
100
AcDbBlockTableRecord
  2
*Paper_Space
 70
    0
280
    1
281
    0
  0
BLOCK_RECORD
  5
56
330
1
100
AcDbSymbolTableRecord
100
AcDbBlockTableRecord
  2
*D1
 70
    0
280
    1
281
    0
  0
BLOCK_RECORD
  5
59
330
1
100
AcDbSymbolTableRecord
100
AcDbBlockTableRecord
  2
*D10
 70
    0
280
    1
281
    0
  0
BLOCK_RECORD
  5
5C
330
1
100
AcDbSymbolTableRecord
100
AcDbBlockTableRecord
  2
*D9
 70
    0
280
    1
281
    0
  0
BLOCK_RECORD
  5
5F
330
1
100
AcDbSymbolTableRecord
100
AcDbBlockTableRecord
  2
*D12
 70
    0
280
    1
281
    0
  0
BLOCK_RECORD
  5
62
330
1
100
AcDbSymbolTableRecord
100
AcDbBlockTableRecord
  2
*D2
 70
    0
280
    1
281
    0
  0
BLOCK_RECORD
  5
65
330
1
100
AcDbSymbolTableRecord
100
AcDbBlockTableRecord
  2
*D6
 70
    0
280
    1
281
    0
  0
BLOCK_RECORD
  5
68
330
1
100
AcDbSymbolTableRecord
100
AcDbBlockTableRecord
  2
*D3
 70
    0
280
    1
281
    0
  0
BLOCK_RECORD
  5
6B
330
1
100
AcDbSymbolTableRecord
100
AcDbBlockTableRecord
  2
*D4
 70
    0
280
    1
281
    0
  0
BLOCK_RECORD
  5
6E
330
1
100
AcDbSymbolTableRecord
100
AcDbBlockTableRecord
  2
*D5
 70
    0
280
    1
281
    0
  0
BLOCK_RECORD
  5
71
330
1
100
AcDbSymbolTableRecord
100
AcDbBlockTableRecord
  2
*D7
 70
    0
280
    1
281
    0
  0
BLOCK_RECORD
  5
74
330
1
100
AcDbSymbolTableRecord
100
AcDbBlockTableRecord
  2
*D8
 70
    0
280
    1
281
    0
  0
BLOCK_RECORD
  5
77
330
1
100
AcDbSymbolTableRecord
100
AcDbBlockTableRecord
  2
*D11
 70
    0
280
    1
281
    0
  0
BLOCK_RECORD
  5
7A
330
1
100
AcDbSymbolTableRecord
100
AcDbBlockTableRecord
  2
*D13
 70
    0
280
    1
281
    0
  0
ENDTAB
  0
ENDSEC
  0
SECTION
  2
BLOCKS
  0
BLOCK
  5
20
330
1F
100
AcDbEntity
  8
0
100
AcDbBlockBegin
  2
*Model_Space
 70
    0
 10
0
 20
0
 30
0
  3
*Model_Space
  1

  0
ENDBLK
  5
21
330
1F
100
AcDbEntity
  8
0
100
AcDbBlockEnd
  0
BLOCK
  5
1C
330
1B
100
AcDbEntity
  8
0
100
AcDbBlockBegin
  2
*Paper_Space
 70
    0
 10
0
 20
0
 30
0
  3
*Paper_Space
  1

  0
ENDBLK
  5
1D
330
1F
100
AcDbEntity
  8
0
100
AcDbBlockEnd
  0
BLOCK
  5
57
330
56
100
AcDbEntity
  8
0
100
AcDbBlockBegin
  2
*D1
 70
    1
 10
0
 20
0
  3
*D1
  1

  0
LINE
  5
7D
100
AcDbEntity
  8
dimensions
  6
ByBlock
 62
    0
370
   -2
100
AcDbLine
 10
11.836024
 20
10.23622
 11
12.78274047383256
 21
10.23622
  0
LINE
  5
7E
100
AcDbEntity
  8
dimensions
  6
ByBlock
 62
    0
370
   -2
100
AcDbLine
 10
11.836024
 20
-6.123233995736766e-18
 11
12.78274047383256
 21
-2.380018938715597e-16
  0
LINE
  5
7F
100
AcDbEntity
  8
dimensions
  6
ByBlock
 62
    0
370
   -2
100
AcDbLine
 10
12.73274047383256
 20
10.23622
 11
12.73274047383256
 21
-2.257554258800861e-16
  0
SOLID
  5
80
100
AcDbEntity
  8
dimensions
  6
ByBlock
 62
    0
370
   -2
100
AcDbTrace
 10
12.73274047383256
 20
10.23622
 30
0
 11
12.77436893960984
 21
9.986219999999999
 31
0
 12
12.69111200805528
 22
9.986219999999999
 32
0
 13
12.69111200805528
 23
9.986219999999999
 33
0
  0
SOLID
  5
81
100
AcDbEntity
  8
dimensions
  6
ByBlock
 62
    0
370
   -2
100
AcDbTrace
 10
12.73274047383256
 20
-2.257554258800861e-16
 30
0
 11
12.69111200805528
 21
0.2499999999999998
 31
0
 12
12.77436893960984
 22
0.2499999999999998
 32
0
 13
12.77436893960984
 23
0.2499999999999998
 33
0
  0
MTEXT
  5
82
100
AcDbEntity
  8
dimensions
  6
CONTINUOUS
 62
    0
370
   -2
100
AcDbMText
 10
12.58274047383256
 20
5.11811
 30
0
 40
0.25
 41
1.111111111111142
 71
    5
 72
    1
  1
10.2362
  7
standard
210
0
220
0
230
1
 50
90
 73
    2
 44
1
  0
ENDBLK
  5
58
330
56
100
AcDbEntity
  8
0
100
AcDbBlockEnd
  0
BLOCK
  5
5A
330
59
100
AcDbEntity
  8
0
100
AcDbBlockBegin
  2
*D10
 70
    1
 10
0
 20
0
  3
*D10
  1

  0
LINE
  5
83
100
AcDbEntity
  8
dimensions
  6
ByBlock
 62
    0
370
   -2
100
AcDbLine
 10
3.130188479916717
 20
4.136688148408111
 11
2.445555578715459
 21
4.136665732291868
  0
LINE
  5
84
100
AcDbEntity
  8
dimensions
  6
ByBlock
 62
    0
370
   -2
100
AcDbLine
 10
3.130220617015484
 20
3.155157051501627
 11
2.445587715814225
 21
3.155134635385384
  0
LINE
  5
85
100
AcDbEntity
  8
dimensions
  6
ByBlock
 62
    0
370
   -2
100
AcDbLine
 10
2.495555578688659
 20
4.136667369382065
 11
2.495587715787425
 21
3.155136272475582
  0
SOLID
  5
86
100
AcDbEntity
  8
dimensions
  6
ByBlock
 62
    0
370
   -2
100
AcDbTrace
 10
2.495555578688659
 20
4.136667369382065
 30
0
 11
2.537192229894618
 21
3.886668732507134
 31
0
 12
2.453935298384676
 22
3.886666006525003
 32
0
 13
2.453935298384676
 23
3.886666006525003
 33
0
  0
SOLID
  5
87
100
AcDbEntity
  8
dimensions
  6
ByBlock
 62
    0
370
   -2
100
AcDbTrace
 10
2.495587715787425
 20
3.155136272475582
 30
0
 11
2.453951064581466
 21
3.405134909350513
 31
0
 12
2.537207996091408
 22
3.405137635332644
 32
0
 13
2.537207996091408
 23
3.405137635332644
 33
0
  0
MTEXT
  5
88
100
AcDbEntity
  8
dimensions
  6
CONTINUOUS
 62
    0
370
   -2
100
AcDbMText
 10
2.345571647318444
 20
3.645896909658232
 30
0
 40
0.25
 41
0.9166666666666821
 71
    5
 72
    1
  1
0.9815
  7
standard
210
0
220
0
230
1
 50
90.00187596718048
 73
    2
 44
1
  0
ENDBLK
  5
5B
330
59
100
AcDbEntity
  8
0
100
AcDbBlockEnd
  0
BLOCK
  5
5D
330
5C
100
AcDbEntity
  8
0
100
AcDbBlockBegin
  2
*D9
 70
    1
 10
0
 20
0
  3
*D9
  1

  0
LINE
  5
89
100
AcDbEntity
  8
dimensions
  6
ByBlock
 62
    0
370
   -2
100
AcDbLine
 10
3.155221711308563
 20
3.130157870070676
 11
3.155255039094176
 21
2.368767295576397
  0
LINE
  5
8A
100
AcDbEntity
  8
dimensions
  6
ByBlock
 62
    0
370
   -2
100
AcDbLine
 10
4.071980760928925
 20
3.130197998685461
 11
4.072014088714538
 21
2.368807424191182
  0
LINE
  5
8B
100
AcDbEntity
  8
dimensions
  6
ByBlock
 62
    0
370
   -2
100
AcDbLine
 10
3.155252850481216
 20
2.418767295528497
 11
4.072011900101578
 21
2.418807424143282
  0
SOLID
  5
8C
100
AcDbEntity
  8
dimensions
  6
ByBlock
 62
    0
370
   -2
100
AcDbTrace
 10
3.155252850481216
 20
2.418767295528497
 30
0
 11
3.405251028069721
 21
2.460406704330702
 31
0
 12
3.405254672413709
 22
2.377149772855894
 32
0
 13
3.405254672413709
 23
2.377149772855894
 33
0
  0
SOLID
  5
8D
100
AcDbEntity
  8
dimensions
  6
ByBlock
 62
    0
370
   -2
100
AcDbTrace
 10
4.072011900101578
 20
2.418807424143282
 30
0
 11
3.822013722513073
 21
2.377168015341077
 31
0
 12
3.822010078169085
 22
2.460424946815885
 32
0
 13
3.822010078169085
 23
2.460424946815885
 33
0
  0
MTEXT
  5
8E
100
AcDbEntity
  8
dimensions
  6
CONTINUOUS
 62
    0
370
   -2
100
AcDbMText
 10
3.613625809452517
 20
2.568787359692189
 30
0
 40
0.25
 41
0.9166666666666822
 71
    5
 72
    1
  1
0.9168
  7
standard
210
0
220
0
230
1
 50
0.002507965712875955
 73
    2
 44
1
  0
ENDBLK
  5
5E
330
5C
100
AcDbEntity
  8
0
100
AcDbBlockEnd
  0
BLOCK
  5
60
330
5F
100
AcDbEntity
  8
0
100
AcDbBlockBegin
  2
*D12
 70
    1
 10
0
 20
0
  3
*D12
  1

  0
LINE
  5
8F
100
AcDbEntity
  8
construction
  6
ByBlock
 62
    0
370
   -2
100
AcDbLine
 10
5.700858528194759
 20
2.401877767668021
 11
6.955852557303306
 21
2.401877767668021
  0
SOLID
  5
90
100
AcDbEntity
  8
construction
  6
ByBlock
 62
    0
370
   -2
100
AcDbTrace
 10
6.200858528194759
 20
2.401877767668021
 30
0
 11
5.950858528194759
 21
2.360249301890737
 31
0
 12
5.950858528194759
 22
2.443506233445305
 32
0
 13
5.950858528194759
 23
2.443506233445305
 33
0
  0
SOLID
  5
91
100
AcDbEntity
  8
construction
  6
ByBlock
 62
    0
370
   -2
100
AcDbTrace
 10
6.455852557303306
 20
2.401877767668021
 30
0
 11
6.705852557303306
 21
2.443506233445305
 31
0
 12
6.705852557303306
 22
2.360249301890737
 32
0
 13
6.705852557303306
 23
2.360249301890737
 33
0
  0
MTEXT
  5
92
100
AcDbEntity
  8
construction
  6
CONTINUOUS
 62
    0
370
   -2
100
AcDbMText
 10
6.966963668414433
 20
2.551877767668021
 30
0
 40
0.25
 41
0.9722222222222532
 71
    5
 72
    1
  1
0.2550
  7
standard
210
0
220
0
230
1
 50
0
 73
    2
 44
1
  0
LINE
  5
93
100
AcDbEntity
  8
construction
  6
ByBlock
 62
    0
370
   -2
100
AcDbLine
 10
6.200858528194759
 20
3.130199937034088
 11
6.200858528194759
 21
2.351877767668021
  0
LINE
  5
94
100
AcDbEntity
  8
construction
  6
ByBlock
 62
    0
370
   -2
100
AcDbLine
 10
6.455852557303306
 20
3.130199937034088
 11
6.455852557303306
 21
2.351877767668021
  0
ENDBLK
  5
61
330
5F
100
AcDbEntity
  8
0
100
AcDbBlockEnd
  0
BLOCK
  5
63
330
62
100
AcDbEntity
  8
0
100
AcDbBlockBegin
  2
*D2
 70
    1
 10
0
 20
0
  3
*D2
  1

  0
LINE
  5
95
100
AcDbEntity
  8
dimensions
  6
ByBlock
 62
    0
370
   -2
100
AcDbLine
 10
-4.592425496802574e-18
 20
-0.025
 11
-1.813702514535544e-16
 21
-0.9873336626790761
  0
LINE
  5
96
100
AcDbEntity
  8
dimensions
  6
ByBlock
 62
    0
370
   -2
100
AcDbLine
 10
11.811024
 20
-0.025
 11
11.811024
 21
-0.9873336626790761
  0
LINE
  5
97
100
AcDbEntity
  8
dimensions
  6
ByBlock
 62
    0
370
   -2
100
AcDbLine
 10
-1.721854004599493e-16
 20
-0.937333662679076
 11
11.811024
 21
-0.937333662679076
  0
SOLID
  5
98
100
AcDbEntity
  8
dimensions
  6
ByBlock
 62
    0
370
   -2
100
AcDbTrace
 10
-1.721854004599493e-16
 20
-0.937333662679076
 30
0
 11
0.2499999999999998
 21
-0.895705196901792
 31
0
 12
0.2499999999999998
 22
-0.9789621284563601
 32
0
 13
0.2499999999999998
 23
-0.9789621284563601
 33
0
  0
SOLID
  5
99
100
AcDbEntity
  8
dimensions
  6
ByBlock
 62
    0
370
   -2
100
AcDbTrace
 10
11.811024
 20
-0.937333662679076
 30
0
 11
11.561024
 21
-0.9789621284563601
 31
0
 12
11.561024
 22
-0.895705196901792
 32
0
 13
11.561024
 23
-0.895705196901792
 33
0
  0
MTEXT
  5
9A
100
AcDbEntity
  8
dimensions
  6
CONTINUOUS
 62
    0
370
   -2
100
AcDbMText
 10
5.905512
 20
-0.787333662679076
 30
0
 40
0.25
 41
0.9444444444444444
 71
    5
 72
    1
  1
11.8110
  7
standard
210
0
220
0
230
1
 50
0
 73
    2
 44
1
  0
ENDBLK
  5
64
330
62
100
AcDbEntity
  8
0
100
AcDbBlockEnd
  0
BLOCK
  5
66
330
65
100
AcDbEntity
  8
0
100
AcDbBlockBegin
  2
*D6
 70
    1
 10
0
 20
0
  3
*D6
  1

  0
LINE
  5
9B
100
AcDbEntity
  8
dimensions
  6
ByBlock
 62
    0
370
   -2
100
AcDbLine
 10
1.974058
 20
8.287163000000001
 11
1.974058
 21
8.935923122197723
  0
LINE
  5
9C
100
AcDbEntity
  8
dimensions
  6
ByBlock
 62
    0
370
   -2
100
AcDbLine
 10
9.836963000000001
 20
8.287163000000001
 11
9.836963000000001
 21
8.935923122197723
  0
LINE
  5
9D
100
AcDbEntity
  8
dimensions
  6
ByBlock
 62
    0
370
   -2
100
AcDbLine
 10
1.974058
 20
8.885923122197722
 11
9.836963000000001
 21
8.885923122197722
  0
SOLID
  5
9E
100
AcDbEntity
  8
dimensions
  6
ByBlock
 62
    0
370
   -2
100
AcDbTrace
 10
1.974058
 20
8.885923122197722
 30
0
 11
2.224058
 21
8.927551587975007
 31
0
 12
2.224058
 22
8.844294656420438
 32
0
 13
2.224058
 23
8.844294656420438
 33
0
  0
SOLID
  5
9F
100
AcDbEntity
  8
dimensions
  6
ByBlock
 62
    0
370
   -2
100
AcDbTrace
 10
9.836963000000001
 20
8.885923122197722
 30
0
 11
9.586963000000001
 21
8.844294656420438
 31
0
 12
9.586963000000001
 22
8.927551587975007
 32
0
 13
9.586963000000001
 23
8.927551587975007
 33
0
  0
MTEXT
  5
A0
100
AcDbEntity
  8
dimensions
  6
CONTINUOUS
 62
    0
370
   -2
100
AcDbMText
 10
5.9055105
 20
9.035923122197723
 30
0
 40
0.25
 41
0.9722222222222376
 71
    5
 72
    1
  1
7.8629
  7
standard
210
0
220
0
230
1
 50
0
 73
    2
 44
1
  0
ENDBLK
  5
67
330
65
100
AcDbEntity
  8
0
100
AcDbBlockEnd
  0
BLOCK
  5
69
330
68
100
AcDbEntity
  8
0
100
AcDbBlockBegin
  2
*D3
 70
    1
 10
0
 20
0
  3
*D3
  1

  0
LINE
  5
A1
100
AcDbEntity
  8
dimensions
  6
ByBlock
 62
    0
370
   -2
100
AcDbLine
 10
0.4133693918509182
 20
9.139182354056958
 11
0.413369562283151
 21
9.779523887378716
  0
LINE
  5
A2
100
AcDbEntity
  8
dimensions
  6
ByBlock
 62
    0
370
   -2
100
AcDbLine
 10
11.39762717338496
 20
9.139179430505228
 11
11.39762734381719
 21
9.779520963826986
  0
LINE
  5
A3
100
AcDbEntity
  8
dimensions
  6
ByBlock
 62
    0
370
   -2
100
AcDbLine
 10
0.4133695489752345
 20
9.729523887378717
 11
11.39762733050928
 21
9.729520963826987
  0
SOLID
  5
A4
100
AcDbEntity
  8
dimensions
  6
ByBlock
 62
    0
370
   -2
100
AcDbTrace
 10
0.4133695489752345
 20
9.729523887378717
 30
0
 11
0.6633695600549887
 21
9.771152286616417
 31
0
 12
0.6633695378954627
 22
9.687895355061851
 32
0
 13
0.6633695378954627
 23
9.687895355061851
 33
0
  0
SOLID
  5
A5
100
AcDbEntity
  8
dimensions
  6
ByBlock
 62
    0
370
   -2
100
AcDbTrace
 10
11.39762733050928
 20
9.729520963826987
 30
0
 11
11.14762731942952
 21
9.687892564589287
 31
0
 12
11.14762734158905
 22
9.771149496143853
 32
0
 13
11.14762734158905
 23
9.771149496143853
 33
0
  0
MTEXT
  5
A6
100
AcDbEntity
  8
dimensions
  6
CONTINUOUS
 62
    0
370
   -2
100
AcDbMText
 10
5.905498479666006
 20
9.879522425602847
 30
0
 40
0.25
 41
1.138888888888904
 71
    5
 72
    1
  1
10.9843
  7
standard
210
0
220
0
230
1
 50
359.9999847502509
 73
    2
 44
1
  0
ENDBLK
  5
6A
330
68
100
AcDbEntity
  8
0
100
AcDbBlockEnd
  0
BLOCK
  5
6C
330
6B
100
AcDbEntity
  8
0
100
AcDbBlockBegin
  2
*D4
 70
    1
 10
0
 20
0
  3
*D4
  1

  0
LINE
  5
A7
100
AcDbEntity
  8
dimensions
  6
ByBlock
 62
    0
370
   -2
100
AcDbLine
 10
0.3883693851969615
 20
9.114182345347119
 11
-0.6311473749143478
 21
9.114181990153989
  0
LINE
  5
A8
100
AcDbEntity
  8
dimensions
  6
ByBlock
 62
    0
370
   -2
100
AcDbLine
 10
0.3883721696041407
 20
1.122052037038636
 11
-0.6311445905071686
 21
1.122051681845505
  0
LINE
  5
A9
100
AcDbEntity
  8
dimensions
  6
ByBlock
 62
    0
370
   -2
100
AcDbLine
 10
-0.5811473749143509
 20
9.114182007573669
 11
-0.5811445905071717
 21
1.122051699265186
  0
SOLID
  5
AA
100
AcDbEntity
  8
dimensions
  6
ByBlock
 62
    0
370
   -2
100
AcDbTrace
 10
-0.5811473749143509
 20
9.114182007573669
 30
0
 11
-0.5395188220386653
 21
8.864182022076776
 31
0
 12
-0.6227757535932283
 22
8.864181993070593
 32
0
 13
-0.6227757535932283
 23
8.864181993070593
 33
0
  0
SOLID
  5
AB
100
AcDbEntity
  8
dimensions
  6
ByBlock
 62
    0
370
   -2
100
AcDbTrace
 10
-0.5811445905071717
 20
1.122051699265186
 30
0
 11
-0.6227731433828573
 21
1.372051684762079
 31
0
 12
-0.5395162118282942
 22
1.372051713768262
 32
0
 13
-0.5395162118282942
 23
1.372051713768262
 33
0
  0
MTEXT
  5
AC
100
AcDbEntity
  8
dimensions
  6
CONTINUOUS
 62
    0
370
   -2
100
AcDbMText
 10
-0.7311459827107522
 20
5.118116801160386
 30
0
 40
0.25
 41
0.9166666666666665
 71
    5
 72
    1
  1
7.9921
  7
standard
210
0
220
0
230
1
 50
90.00001996148382
 73
    2
 44
1
  0
ENDBLK
  5
6D
330
6B
100
AcDbEntity
  8
0
100
AcDbBlockEnd
  0
BLOCK
  5
6F
330
6E
100
AcDbEntity
  8
0
100
AcDbBlockBegin
  2
*D5
 70
    1
 10
0
 20
0
  3
*D5
  1

  0
LINE
  5
AD
100
AcDbEntity
  8
dimensions
  6
ByBlock
 62
    0
370
   -2
100
AcDbLine
 10
1.949058
 20
8.262163000000001
 11
1.131040414975645
 21
8.262163000000001
  0
LINE
  5
AE
100
AcDbEntity
  8
dimensions
  6
ByBlock
 62
    0
370
   -2
100
AcDbLine
 10
1.949058
 20
1.974062000000001
 11
1.131040414975645
 21
1.974062000000001
  0
LINE
  5
AF
100
AcDbEntity
  8
dimensions
  6
ByBlock
 62
    0
370
   -2
100
AcDbLine
 10
1.181040414975645
 20
8.262163000000001
 11
1.181040414975645
 21
1.974062000000001
  0
SOLID
  5
B0
100
AcDbEntity
  8
dimensions
  6
ByBlock
 62
    0
370
   -2
100
AcDbTrace
 10
1.181040414975645
 20
8.262163000000001
 30
0
 11
1.222668880752929
 21
8.012163000000001
 31
0
 12
1.139411949198361
 22
8.012163000000001
 32
0
 13
1.139411949198361
 23
8.012163000000001
 33
0
  0
SOLID
  5
B1
100
AcDbEntity
  8
dimensions
  6
ByBlock
 62
    0
370
   -2
100
AcDbTrace
 10
1.181040414975645
 20
1.974062000000001
 30
0
 11
1.139411949198361
 21
2.224062000000001
 31
0
 12
1.222668880752929
 22
2.224062000000001
 32
0
 13
1.222668880752929
 23
2.224062000000001
 33
0
  0
MTEXT
  5
B2
100
AcDbEntity
  8
dimensions
  6
CONTINUOUS
 62
    0
370
   -2
100
AcDbMText
 10
1.031040414975646
 20
5.118112500000001
 30
0
 40
0.25
 41
0.9166666666666822
 71
    5
 72
    1
  1
6.2881
  7
standard
210
0
220
0
230
1
 50
90
 73
    2
 44
1
  0
ENDBLK
  5
70
330
6E
100
AcDbEntity
  8
0
100
AcDbBlockEnd
  0
BLOCK
  5
72
330
71
100
AcDbEntity
  8
0
100
AcDbBlockBegin
  2
*D7
 70
    1
 10
0
 20
0
  3
*D7
  1

  0
LINE
  5
B3
100
AcDbEntity
  8
dimensions
  6
ByBlock
 62
    0
370
   -2
100
AcDbLine
 10
9.473819961560601
 20
5.118110880004184
 11
10.52174157527976
 21
5.118111109452218
  0
LINE
  5
B4
100
AcDbEntity
  8
dimensions
  6
ByBlock
 62
    0
370
   -2
100
AcDbLine
 10
9.47382056498023
 20
2.362208121848701
 11
10.52174217869939
 21
2.362208351296735
  0
LINE
  5
B5
100
AcDbEntity
  8
dimensions
  6
ByBlock
 62
    0
370
   -2
100
AcDbLine
 10
10.47174157527976
 20
5.118111098504451
 11
10.47174217869939
 21
2.362208340348968
  0
SOLID
  5
B6
100
AcDbEntity
  8
dimensions
  6
ByBlock
 62
    0
370
   -2
100
AcDbTrace
 10
10.47174157527976
 20
5.118111098504451
 30
0
 11
10.51337009579588
 21
4.868111107619232
 31
0
 12
10.43011316424131
 22
4.868111089389682
 32
0
 13
10.43011316424131
 23
4.868111089389682
 33
0
  0
SOLID
  5
B7
100
AcDbEntity
  8
dimensions
  6
ByBlock
 62
    0
370
   -2
100
AcDbTrace
 10
10.47174217869939
 20
2.362208340348968
 30
0
 11
10.43011365818327
 21
2.612208331234187
 31
0
 12
10.51337058973784
 22
2.612208349463737
 32
0
 13
10.51337058973784
 23
2.612208349463737
 33
0
  0
MTEXT
  5
B8
100
AcDbEntity
  8
dimensions
  6
CONTINUOUS
 62
    0
370
   -2
100
AcDbMText
 10
10.32174187698958
 20
3.740159686583408
 30
0
 40
0.25
 41
0.9722222222222532
 71
    5
 72
    1
  1
2.7559
  7
standard
210
0
220
0
230
1
 50
90.00001254521695
 73
    2
 44
1
  0
ENDBLK
  5
73
330
71
100
AcDbEntity
  8
0
100
AcDbBlockEnd
  0
BLOCK
  5
75
330
74
100
AcDbEntity
  8
0
100
AcDbBlockBegin
  2
*D8
 70
    1
 10
0
 20
0
  3
*D8
  1

  0
LINE
  5
B9
100
AcDbEntity
  8
dimensions
  6
ByBlock
 62
    0
370
   -2
100
AcDbLine
 10
8.023305352294784
 20
2.67310526453338
 11
9.288442220018013
 21
3.637161594874018
  0
SOLID
  5
BA
100
AcDbEntity
  8
dimensions
  6
ByBlock
 62
    0
370
   -2
100
AcDbTrace
 10
8.420999613302218
 20
2.97615521876824
 30
0
 11
8.247383492095848
 21
2.791519437782469
 31
0
 12
8.196921473501154
 22
2.85774104551915
 32
0
 13
8.196921473501154
 23
2.85774104551915
 33
0
  0
SOLID
  5
BB
100
AcDbEntity
  8
dimensions
  6
ByBlock
 62
    0
370
   -2
100
AcDbTrace
 10
8.890747959010579
 20
3.334111640639158
 30
0
 11
9.064364080216949
 21
3.518747421624929
 31
0
 12
9.114826098811642
 22
3.452525813888248
 32
0
 13
9.114826098811642
 23
3.452525813888248
 33
0
  0
MTEXT
  5
BC
100
AcDbEntity
  8
dimensions
  6
CONTINUOUS
 62
    0
370
   -2
100
AcDbMText
 10
9.206364883992176
 20
3.763204316603699
 30
0
 40
0.25
 41
0.9722222222222533
 71
    5
 72
    1
  1
0.5906
  7
standard
210
0
220
0
230
1
 50
37.30803205991325
 73
    2
 44
1
  0
ENDBLK
  5
76
330
74
100
AcDbEntity
  8
0
100
AcDbBlockEnd
  0
BLOCK
  5
78
330
77
100
AcDbEntity
  8
0
100
AcDbBlockBegin
  2
*D11
 70
    1
 10
0
 20
0
  3
*D11
  1

  0
LINE
  5
BD
100
AcDbEntity
  8
dimensions
  6
ByBlock
 62
    0
370
   -2
100
AcDbLine
 10
7.086613797541982
 20
2.337207173097613
 11
7.086614233375347
 21
1.245769232463042
  0
LINE
  5
BE
100
AcDbEntity
  8
dimensions
  6
ByBlock
 62
    0
370
   -2
100
AcDbLine
 10
9.448820574963239
 20
2.337208116374819
 11
9.448821010796605
 21
1.245770175740248
  0
LINE
  5
BF
100
AcDbEntity
  8
dimensions
  6
ByBlock
 62
    0
370
   -2
100
AcDbLine
 10
7.086614213409331
 20
1.295769232463038
 11
9.448820990830589
 21
1.295770175740244
  0
SOLID
  5
C0
100
AcDbEntity
  8
dimensions
  6
ByBlock
 62
    0
370
   -2
100
AcDbTrace
 10
7.086614213409331
 20
1.295769232463038
 30
0
 11
7.336614196786218
 21
1.337397798070403
 31
0
 12
7.336614230032404
 22
1.254140866515841
 32
0
 13
7.336614230032404
 23
1.254140866515841
 33
0
  0
SOLID
  5
C1
100
AcDbEntity
  8
dimensions
  6
ByBlock
 62
    0
370
   -2
100
AcDbTrace
 10
9.448820990830589
 20
1.295770175740244
 30
0
 11
9.198821007453702
 21
1.254141610132879
 31
0
 12
9.198820974207516
 22
1.337398541687441
 32
0
 13
9.198820974207516
 23
1.337398541687441
 33
0
  0
MTEXT
  5
C2
100
AcDbEntity
  8
dimensions
  6
CONTINUOUS
 62
    0
370
   -2
100
AcDbMText
 10
8.267717542221908
 20
1.445769704101629
 30
0
 40
0.25
 41
0.9722222222222533
 71
    5
 72
    1
  1
2.3622
  7
standard
210
0
220
0
230
1
 50
2.287936997220521e-05
 73
    2
 44
1
  0
ENDBLK
  5
79
330
77
100
AcDbEntity
  8
0
100
AcDbBlockEnd
  0
BLOCK
  5
7B
330
7A
100
AcDbEntity
  8
0
100
AcDbBlockBegin
  2
*D13
 70
    1
 10
0
 20
0
  3
*D13
  1

  0
LINE
  5
C3
100
AcDbEntity
  8
construction
  6
ByBlock
 62
    0
370
   -2
100
AcDbLine
 10
9.114303233759538
 20
7.571872968120509
 11
9.836963000000001
 21
7.571872968120509
  0
SOLID
  5
C4
100
AcDbEntity
  8
construction
  6
ByBlock
 62
    0
370
   -2
100
AcDbTrace
 10
9.114303233759538
 20
7.571872968120509
 30
0
 11
9.364303233759538
 21
7.613501433897793
 31
0
 12
9.364303233759538
 22
7.530244502343225
 32
0
 13
9.364303233759538
 23
7.530244502343225
 33
0
  0
SOLID
  5
C5
100
AcDbEntity
  8
construction
  6
ByBlock
 62
    0
370
   -2
100
AcDbTrace
 10
9.836963000000001
 20
7.571872968120509
 30
0
 11
9.586963000000001
 21
7.530244502343225
 31
0
 12
9.586963000000001
 22
7.613501433897793
 32
0
 13
9.586963000000001
 23
7.613501433897793
 33
0
  0
MTEXT
  5
C6
100
AcDbEntity
  8
construction
  6
CONTINUOUS
 62
    0
370
   -2
100
AcDbMText
 10
10.34807411111111
 20
7.721872968120509
 30
0
 40
0.25
 41
0.9722222222222222
 71
    5
 72
    1
  1
0.7227
  7
standard
210
0
220
0
230
1
 50
0
 73
    2
 44
1
  0
LINE
  5
C7
100
AcDbEntity
  8
construction
  6
ByBlock
 62
    0
370
   -2
100
AcDbLine
 10
9.114303233759538
 20
7.546872968120509
 11
9.114303233759538
 21
7.521872968120509
  0
LINE
  5
C8
100
AcDbEntity
  8
construction
  6
ByBlock
 62
    0
370
   -2
100
AcDbLine
 10
9.836963000000001
 20
8.237163000000001
 11
9.836963000000001
 21
7.521872968120509
  0
ENDBLK
  5
7C
330
7A
100
AcDbEntity
  8
0
100
AcDbBlockEnd
  0
ENDSEC
  0
SECTION
  2
ENTITIES
  0
LINE
  5
C9
100
AcDbEntity
  8
inner_boundary
  6
ByLayer
 62
  256
370
   -1
100
AcDbLine
 10
1.974058
 20
8.262163000000001
 11
9.836963000000001
 21
8.262163000000001
  0
LINE
  5
CA
100
AcDbEntity
  8
inner_boundary
  6
ByLayer
 62
  256
370
   -1
100
AcDbLine
 10
9.836963000000001
 20
8.262163000000001
 11
9.836963000000001
 21
1.974062000000001
  0
LINE
  5
CB
100
AcDbEntity
  8
inner_boundary
  6
ByLayer
 62
  256
370
   -1
100
AcDbLine
 10
9.836963000000001
 20
1.974062000000001
 11
1.974058
 21
1.974062000000001
  0
LINE
  5
CC
100
AcDbEntity
  8
inner_boundary
  6
ByLayer
 62
  256
370
   -1
100
AcDbLine
 10
1.974058
 20
1.974062000000001
 11
1.974058
 21
8.262163000000001
  0
CIRCLE
  5
CD
100
AcDbEntity
  8
disk_boundary
  6
ByLayer
 62
  256
370
   -1
100
AcDbCircle
 10
3.155190768796071
 20
7.081043701181464
 40
0.2953105120788272
  0
CIRCLE
  5
CE
100
AcDbEntity
  8
disk_boundary
  6
ByLayer
 62
  256
370
   -1
100
AcDbCircle
 10
4.071952388158842
 20
7.081061727925109
 40
0.2952829247170486
  0
CIRCLE
  5
CF
100
AcDbEntity
  8
disk_boundary
  6
ByLayer
 62
  256
370
   -1
100
AcDbCircle
 10
4.988734907609372
 20
7.081069049125214
 40
0.2952788398541717
  0
CIRCLE
  5
D0
100
AcDbEntity
  8
disk_boundary
  6
ByLayer
 62
  256
370
   -1
100
AcDbCircle
 10
5.905516991488131
 20
7.081017394588474
 40
0.2953104458803777
  0
CIRCLE
  5
D1
100
AcDbEntity
  8
disk_boundary
  6
ByLayer
 62
  256
370
   -1
100
AcDbCircle
 10
6.822327443360078
 20
7.08103600226328
 40
0.2953183344039106
  0
CIRCLE
  5
D2
100
AcDbEntity
  8
disk_boundary
  6
ByLayer
 62
  256
370
   -1
100
AcDbCircle
 10
7.739108898093014
 20
7.081045776725344
 40
0.2953108870023743
  0
CIRCLE
  5
D3
100
AcDbEntity
  8
disk_boundary
  6
ByLayer
 62
  256
370
   -1
100
AcDbCircle
 10
8.655904926253656
 20
7.081068962576858
 40
0.2953004249362276
  0
CIRCLE
  5
D4
100
AcDbEntity
  8
disk_boundary
  6
ByLayer
 62
  256
370
   -1
100
AcDbCircle
 10
3.155163284468437
 20
6.099589963773572
 40
0.2952771127806688
  0
CIRCLE
  5
D5
100
AcDbEntity
  8
disk_boundary
  6
ByLayer
 62
  256
370
   -1
100
AcDbCircle
 10
4.071956364668877
 20
6.099550688921726
 40
0.2953009089793491
  0
CIRCLE
  5
D6
100
AcDbEntity
  8
disk_boundary
  6
ByLayer
 62
  256
370
   -1
100
AcDbCircle
 10
4.98874723711103
 20
6.099573635731448
 40
0.295300844927723
  0
CIRCLE
  5
D7
100
AcDbEntity
  8
disk_boundary
  6
ByLayer
 62
  256
370
   -1
100
AcDbCircle
 10
5.90551863228533
 20
6.099566778392393
 40
0.295295936376671
  0
CIRCLE
  5
D8
100
AcDbEntity
  8
disk_boundary
  6
ByLayer
 62
  256
370
   -1
100
AcDbCircle
 10
6.822307576776494
 20
6.099558706543051
 40
0.2953039770699983
  0
CIRCLE
  5
D9
100
AcDbEntity
  8
disk_boundary
  6
ByLayer
 62
  256
370
   -1
100
AcDbCircle
 10
7.739112453721655
 20
6.099561027917829
 40
0.2953180497579422
  0
CIRCLE
  5
DA
100
AcDbEntity
  8
disk_boundary
  6
ByLayer
 62
  256
370
   -1
100
AcDbCircle
 10
8.655891079721219
 20
6.099637585936494
 40
0.2952984562272906
  0
CIRCLE
  5
DB
100
AcDbEntity
  8
disk_boundary
  6
ByLayer
 62
  256
370
   -1
100
AcDbCircle
 10
3.155169529158794
 20
5.1180911704336
 40
0.2952905735321792
  0
CIRCLE
  5
DC
100
AcDbEntity
  8
disk_boundary
  6
ByLayer
 62
  256
370
   -1
100
AcDbCircle
 10
4.071985712515922
 20
5.118123383353494
 40
0.2953164933239008
  0
CIRCLE
  5
DD
100
AcDbEntity
  8
disk_boundary
  6
ByLayer
 62
  256
370
   -1
100
AcDbCircle
 10
4.988762754116983
 20
5.118152936733088
 40
0.2952987548509035
  0
CIRCLE
  5
DE
100
AcDbEntity
  8
disk_boundary
  6
ByLayer
 62
  256
370
   -1
100
AcDbCircle
 10
5.905514751264633
 20
5.118077633082051
 40
0.2953002612111861
  0
CIRCLE
  5
DF
100
AcDbEntity
  8
disk_boundary
  6
ByLayer
 62
  256
370
   -1
100
AcDbCircle
 10
6.822344143167768
 20
5.118106100559911
 40
0.2953237875311336
  0
CIRCLE
  5
E0
100
AcDbEntity
  8
disk_boundary
  6
ByLayer
 62
  256
370
   -1
100
AcDbCircle
 10
7.739108987761099
 20
5.118162421193705
 40
0.2952973881321762
  0
CIRCLE
  5
E1
100
AcDbEntity
  8
disk_boundary
  6
ByLayer
 62
  256
370
   -1
100
AcDbCircle
 10
8.655877268676614
 20
5.118113
 40
0.2952912665865155
  0
CIRCLE
  5
E2
100
AcDbEntity
  8
disk_boundary
  6
ByLayer
 62
  256
370
   -1
100
AcDbCircle
 10
3.155188479903317
 20
4.13668896695321
 40
0.2952920893671934
  0
CIRCLE
  5
E3
100
AcDbEntity
  8
disk_boundary
  6
ByLayer
 62
  256
370
   -1
100
AcDbCircle
 10
4.071967752391819
 20
4.136690608850699
 40
0.2952975146698255
  0
CIRCLE
  5
E4
100
AcDbEntity
  8
disk_boundary
  6
ByLayer
 62
  256
370
   -1
100
AcDbCircle
 10
4.988764345113972
 20
4.136638327783558
 40
0.295309356065632
  0
CIRCLE
  5
E5
100
AcDbEntity
  8
disk_boundary
  6
ByLayer
 62
  256
370
   -1
100
AcDbCircle
 10
5.905537583163774
 20
4.13660348947745
 40
0.2953134022789242
  0
CIRCLE
  5
E6
100
AcDbEntity
  8
disk_boundary
  6
ByLayer
 62
  256
370
   -1
100
AcDbCircle
 10
6.822336014943445
 20
4.136623745584574
 40
0.2953197780473182
  0
CIRCLE
  5
E7
100
AcDbEntity
  8
disk_boundary
  6
ByLayer
 62
  256
370
   -1
100
AcDbCircle
 10
7.739116925236877
 20
4.136683202172807
 40
0.2952997720063936
  0
CIRCLE
  5
E8
100
AcDbEntity
  8
disk_boundary
  6
ByLayer
 62
  256
370
   -1
100
AcDbCircle
 10
8.655907991575999
 20
4.136652786276068
 40
0.2953176667696467
  0
CIRCLE
  5
E9
100
AcDbEntity
  8
disk_boundary
  6
ByLayer
 62
  256
370
   -1
100
AcDbCircle
 10
8.655873786156398
 20
3.155133429703699
 40
0.2952948984720071
  0
CIRCLE
  5
EA
100
AcDbEntity
  8
disk_boundary
  6
ByLayer
 62
  256
370
   -1
100
AcDbCircle
 10
7.739108144391188
 20
3.155137696520857
 40
0.295313619258571
  0
CIRCLE
  5
EB
100
AcDbEntity
  8
disk_boundary
  6
ByLayer
 62
  256
370
   -1
100
AcDbCircle
 10
6.822301645491095
 20
3.155180347332352
 40
0.2952821659110595
  0
CIRCLE
  5
EC
100
AcDbEntity
  8
disk_boundary
  6
ByLayer
 62
  256
370
   -1
100
AcDbCircle
 10
5.905552557303292
 20
3.155199937034088
 40
0.2953059708914541
  0
CIRCLE
  5
ED
100
AcDbEntity
  8
disk_boundary
  6
ByLayer
 62
  256
370
   -1
100
AcDbCircle
 10
4.988740478402304
 20
3.155113283046798
 40
0.2953032205853721
  0
CIRCLE
  5
EE
100
AcDbEntity
  8
disk_boundary
  6
ByLayer
 62
  256
370
   -1
100
AcDbCircle
 10
4.071979666622445
 20
3.155197998661511
 40
0.2952940022030966
  0
CIRCLE
  5
EF
100
AcDbEntity
  8
disk_boundary
  6
ByLayer
 62
  256
370
   -1
100
AcDbCircle
 10
3.155220617002083
 20
3.155157870046726
 40
0.2953306304943643
  0
DIMENSION
  5
F0
100
AcDbEntity
  8
dimensions
  6
ByLayer
 62
  256
370
   -1
100
AcDbDimension
  2
*D1
 10
12.73274047383256
 20
-2.257554258800872e-16
 30
0
 11
12.58274047383256
 21
5.11811
 31
0
 70
   33
 71
    5
 72
    0
  3
Standard
 53
0
210
0
220
0
230
1
100
AcDbAlignedDimension
 13
11.811024
 23
10.23622
 33
0
 14
11.811024
 24
0
 34
0
  0
DIMENSION
  5
F1
100
AcDbEntity
  8
dimensions
  6
ByLayer
 62
  256
370
   -1
100
AcDbDimension
  2
*D2
 10
11.811024
 20
-0.937333662679076
 30
0
 11
5.905512
 21
-0.787333662679076
 31
0
 70
   33
 71
    5
 72
    0
  3
Standard
 53
0
210
0
220
0
230
1
100
AcDbAlignedDimension
 13
0
 23
0
 33
0
 14
11.811024
 24
0
 34
0
  0
DIMENSION
  5
F2
100
AcDbEntity
  8
dimensions
  6
ByLayer
 62
  256
370
   -1
100
AcDbDimension
  2
*D3
 10
11.39762733050928
 20
9.729520963826987
 30
0
 11
5.905498479666006
 21
9.879522425602847
 31
0
 70
   33
 71
    5
 72
    0
  3
Standard
 53
0
210
0
220
0
230
1
100
AcDbAlignedDimension
 13
0.41336938519696
 23
9.114182354056959
 33
0
 14
11.397627166731
 24
9.11417943050523
 34
0
  0
DIMENSION
  5
F3
100
AcDbEntity
  8
dimensions
  6
ByLayer
 62
  256
370
   -1
100
AcDbDimension
  2
*D4
 10
-0.5811445905071717
 20
1.122051699265186
 30
0
 11
-0.7311459827107522
 21
5.118116801160386
 31
0
 70
   33
 71
    5
 72
    0
  3
Standard
 53
0
210
0
220
0
230
1
100
AcDbAlignedDimension
 13
0.41336938519696
 23
9.114182354056959
 33
0
 14
0.4133721696041392
 24
1.122052045748476
 34
0
  0
DIMENSION
  5
F4
100
AcDbEntity
  8
dimensions
  6
ByLayer
 62
  256
370
   -1
100
AcDbDimension
  2
*D5
 10
1.181040414975645
 20
1.974062000000001
 30
0
 11
1.031040414975646
 21
5.118112500000001
 31
0
 70
   33
 71
    5
 72
    0
  3
Standard
 53
0
210
0
220
0
230
1
100
AcDbAlignedDimension
 13
1.974058
 23
8.262163000000001
 33
0
 14
1.974058
 24
1.974062000000001
 34
0
  0
DIMENSION
  5
F5
100
AcDbEntity
  8
dimensions
  6
ByLayer
 62
  256
370
   -1
100
AcDbDimension
  2
*D6
 10
9.836963000000001
 20
8.885923122197722
 30
0
 11
5.9055105
 21
9.035923122197723
 31
0
 70
   33
 71
    5
 72
    0
  3
Standard
 53
0
210
0
220
0
230
1
100
AcDbAlignedDimension
 13
1.974058
 23
8.262163000000001
 33
0
 14
9.836963000000001
 24
8.262163000000001
 34
0
  0
DIMENSION
  5
F6
100
AcDbEntity
  8
dimensions
  6
ByLayer
 62
  256
370
   -1
100
AcDbDimension
  2
*D7
 10
10.47174217869939
 20
2.362208340348968
 30
0
 11
10.32174187698958
 21
3.740159686583408
 31
0
 70
   33
 71
    5
 72
    0
  3
Standard
 53
0
210
0
220
0
230
1
100
AcDbAlignedDimension
 13
9.448819961560602
 23
5.1181108745303
 33
0
 14
9.448820564980231
 24
2.362208116374817
 34
0
  0
DIMENSION
  5
F7
100
AcDbEntity
  8
dimensions
  6
ByLayer
 62
  256
370
   -1
100
AcDbDimension
  2
*D8
 10
8.420999613302218
 20
2.97615521876824
 30
0
 11
8.56495879988594
 21
3.274441708005929
 31
0
 70
   35
 71
    5
 72
    0
  3
Standard
 53
0
210
0
220
0
230
1
100
AcDbDiametricDimension
 15
8.890747959010579
 25
3.334111640639158
 35
0
 40
0
  0
DIMENSION
  5
F8
100
AcDbEntity
  8
dimensions
  6
ByLayer
 62
  256
370
   -1
100
AcDbDimension
  2
*D9
 10
4.072011900101578
 20
2.418807424143282
 30
0
 11
3.613625809452517
 21
2.568787359692189
 31
0
 70
   33
 71
    5
 72
    0
  3
Standard
 53
0
210
0
220
0
230
1
100
AcDbAlignedDimension
 13
3.155220617002083
 23
3.155157870046726
 33
0
 14
4.071979666622445
 24
3.155197998661511
 34
0
  0
DIMENSION
  5
F9
100
AcDbEntity
  8
dimensions
  6
ByLayer
 62
  256
370
   -1
100
AcDbDimension
  2
*D10
 10
2.495587715787425
 20
3.155136272475582
 30
0
 11
2.345571647318444
 21
3.645896909658232
 31
0
 70
   33
 71
    5
 72
    0
  3
Standard
 53
0
210
0
220
0
230
1
100
AcDbAlignedDimension
 13
3.155188479903317
 23
4.13668896695321
 33
0
 14
3.155220617002083
 24
3.155157870046726
 34
0
  0
CIRCLE
  5
FA
100
AcDbEntity
  8
mount_hole_8-32
  6
ByLayer
 62
  256
370
   -1
100
AcDbCircle
 10
2.3622
 20
7.87401
 40
0.0885
  0
CIRCLE
  5
FB
100
AcDbEntity
  8
mount_hole_8-32
  6
ByLayer
 62
  256
370
   -1
100
AcDbCircle
 10
4.72441
 20
7.87401
 40
0.0885
  0
CIRCLE
  5
FC
100
AcDbEntity
  8
mount_hole_8-32
  6
ByLayer
 62
  256
370
   -1
100
AcDbCircle
 10
7.08662
 20
7.87401
 40
0.0885
  0
CIRCLE
  5
FD
100
AcDbEntity
  8
mount_hole_8-32
  6
ByLayer
 62
  256
370
   -1
100
AcDbCircle
 10
9.44881
 20
7.87401
 40
0.0885
  0
CIRCLE
  5
FE
100
AcDbEntity
  8
mount_hole_8-32
  6
ByLayer
 62
  256
370
   -1
100
AcDbCircle
 10
2.36221
 20
5.11812
 40
0.0885
  0
CIRCLE
  5
FF
100
AcDbEntity
  8
mount_hole_8-32
  6
ByLayer
 62
  256
370
   -1
100
AcDbCircle
 10
9.44882
 20
5.11811
 40
0.0885
  0
CIRCLE
  5
100
100
AcDbEntity
  8
mount_hole_8-32
  6
ByLayer
 62
  256
370
   -1
100
AcDbCircle
 10
2.3622
 20
2.36221
 40
0.0885
  0
CIRCLE
  5
101
100
AcDbEntity
  8
mount_hole_8-32
  6
ByLayer
 62
  256
370
   -1
100
AcDbCircle
 10
4.72441
 20
2.36221
 40
0.0885
  0
CIRCLE
  5
102
100
AcDbEntity
  8
mount_hole_8-32
  6
ByLayer
 62
  256
370
   -1
100
AcDbCircle
 10
7.08661
 20
2.36221
 40
0.0885
  0
DIMENSION
  5
103
100
AcDbEntity
  8
dimensions
  6
ByLayer
 62
  256
370
   -1
100
AcDbDimension
  2
*D11
 10
9.448820990830589
 20
1.295770175740244
 30
0
 11
8.267717542221908
 21
1.445769704101629
 31
0
 70
   33
 71
    5
 72
    0
  3
Standard
 53
0
210
0
220
0
230
1
100
AcDbAlignedDimension
 13
7.086613787558973
 23
2.362207173097611
 33
0
 14
9.448820564980231
 24
2.362208116374817
 34
0
  0
CIRCLE
  5
104
100
AcDbEntity
  8
mount_hole_8-32
  6
ByLayer
 62
  256
370
   -1
100
AcDbCircle
 10
9.44882
 20
2.36221
 40
0.0885
  0
CIRCLE
  5
105
100
AcDbEntity
  8
mount_hole_1/4-20
  6
ByLayer
 62
  256
370
   -1
100
AcDbCircle
 10
0.413369
 20
9.114179999999999
 40
0.133
  0
CIRCLE
  5
106
100
AcDbEntity
  8
mount_hole_1/4-20
  6
ByLayer
 62
  256
370
   -1
100
AcDbCircle
 10
11.3976
 20
9.114179999999999
 40
0.133
  0
CIRCLE
  5
107
100
AcDbEntity
  8
mount_hole_1/4-20
  6
ByLayer
 62
  256
370
   -1
100
AcDbCircle
 10
0.413372
 20
1.12205
 40
0.133
  0
CIRCLE
  5
108
100
AcDbEntity
  8
mount_hole_1/4-20
  6
ByLayer
 62
  256
370
   -1
100
AcDbCircle
 10
11.3976
 20
1.12205
 40
0.133
  0
CIRCLE
  5
109
100
AcDbEntity
  8
removal_annuli
  6
ByLayer
 62
  256
370
   -1
100
AcDbCircle
 10
3.155190768796071
 20
7.081043701181464
 40
0.5503
  0
CIRCLE
  5
10A
100
AcDbEntity
  8
removal_annuli
  6
ByLayer
 62
  256
370
   -1
100
AcDbCircle
 10
4.071952388158842
 20
7.081061727925109
 40
0.5503
  0
CIRCLE
  5
10B
100
AcDbEntity
  8
removal_annuli
  6
ByLayer
 62
  256
370
   -1
100
AcDbCircle
 10
4.988734907609372
 20
7.081069049125214
 40
0.5503
  0
CIRCLE
  5
10C
100
AcDbEntity
  8
removal_annuli
  6
ByLayer
 62
  256
370
   -1
100
AcDbCircle
 10
5.905516991488131
 20
7.081017394588474
 40
0.5503
  0
CIRCLE
  5
10D
100
AcDbEntity
  8
removal_annuli
  6
ByLayer
 62
  256
370
   -1
100
AcDbCircle
 10
6.822327443360078
 20
7.08103600226328
 40
0.5503
  0
CIRCLE
  5
10E
100
AcDbEntity
  8
removal_annuli
  6
ByLayer
 62
  256
370
   -1
100
AcDbCircle
 10
7.739108898093014
 20
7.081045776725344
 40
0.5503
  0
CIRCLE
  5
10F
100
AcDbEntity
  8
removal_annuli
  6
ByLayer
 62
  256
370
   -1
100
AcDbCircle
 10
8.655904926253656
 20
7.081068962576858
 40
0.5503
  0
CIRCLE
  5
110
100
AcDbEntity
  8
removal_annuli
  6
ByLayer
 62
  256
370
   -1
100
AcDbCircle
 10
8.655891079721219
 20
6.099637585936494
 40
0.5503
  0
CIRCLE
  5
111
100
AcDbEntity
  8
removal_annuli
  6
ByLayer
 62
  256
370
   -1
100
AcDbCircle
 10
7.739112453721655
 20
6.099561027917829
 40
0.5503
  0
CIRCLE
  5
112
100
AcDbEntity
  8
removal_annuli
  6
ByLayer
 62
  256
370
   -1
100
AcDbCircle
 10
6.822307576776494
 20
6.099558706543051
 40
0.5503
  0
CIRCLE
  5
113
100
AcDbEntity
  8
removal_annuli
  6
ByLayer
 62
  256
370
   -1
100
AcDbCircle
 10
5.90551863228533
 20
6.099566778392393
 40
0.5503
  0
CIRCLE
  5
114
100
AcDbEntity
  8
removal_annuli
  6
ByLayer
 62
  256
370
   -1
100
AcDbCircle
 10
4.98874723711103
 20
6.099573635731448
 40
0.5503
  0
CIRCLE
  5
115
100
AcDbEntity
  8
removal_annuli
  6
ByLayer
 62
  256
370
   -1
100
AcDbCircle
 10
4.071956364668877
 20
6.099550688921726
 40
0.5503
  0
CIRCLE
  5
116
100
AcDbEntity
  8
removal_annuli
  6
ByLayer
 62
  256
370
   -1
100
AcDbCircle
 10
3.155163284468437
 20
6.099589963773572
 40
0.5503
  0
CIRCLE
  5
117
100
AcDbEntity
  8
removal_annuli
  6
ByLayer
 62
  256
370
   -1
100
AcDbCircle
 10
3.155169529158794
 20
5.1180911704336
 40
0.5503
  0
CIRCLE
  5
118
100
AcDbEntity
  8
removal_annuli
  6
ByLayer
 62
  256
370
   -1
100
AcDbCircle
 10
4.071985712515922
 20
5.118123383353494
 40
0.5503
  0
CIRCLE
  5
119
100
AcDbEntity
  8
removal_annuli
  6
ByLayer
 62
  256
370
   -1
100
AcDbCircle
 10
4.988762754116983
 20
5.118152936733088
 40
0.5503
  0
CIRCLE
  5
11A
100
AcDbEntity
  8
removal_annuli
  6
ByLayer
 62
  256
370
   -1
100
AcDbCircle
 10
5.905514751264633
 20
5.118077633082051
 40
0.5503
  0
CIRCLE
  5
11B
100
AcDbEntity
  8
removal_annuli
  6
ByLayer
 62
  256
370
   -1
100
AcDbCircle
 10
6.822344143167768
 20
5.118106100559911
 40
0.5503
  0
CIRCLE
  5
11C
100
AcDbEntity
  8
removal_annuli
  6
ByLayer
 62
  256
370
   -1
100
AcDbCircle
 10
7.739108987761099
 20
5.118162421193705
 40
0.5503
  0
CIRCLE
  5
11D
100
AcDbEntity
  8
removal_annuli
  6
ByLayer
 62
  256
370
   -1
100
AcDbCircle
 10
8.655877268676614
 20
5.118113
 40
0.5503
  0
CIRCLE
  5
11E
100
AcDbEntity
  8
removal_annuli
  6
ByLayer
 62
  256
370
   -1
100
AcDbCircle
 10
3.155188479903317
 20
4.13668896695321
 40
0.5503
  0
CIRCLE
  5
11F
100
AcDbEntity
  8
removal_annuli
  6
ByLayer
 62
  256
370
   -1
100
AcDbCircle
 10
4.071967752391819
 20
4.136690608850699
 40
0.5503
  0
CIRCLE
  5
120
100
AcDbEntity
  8
removal_annuli
  6
ByLayer
 62
  256
370
   -1
100
AcDbCircle
 10
4.988764345113972
 20
4.136638327783558
 40
0.5503
  0
CIRCLE
  5
121
100
AcDbEntity
  8
removal_annuli
  6
ByLayer
 62
  256
370
   -1
100
AcDbCircle
 10
5.905537583163774
 20
4.13660348947745
 40
0.5503
  0
CIRCLE
  5
122
100
AcDbEntity
  8
removal_annuli
  6
ByLayer
 62
  256
370
   -1
100
AcDbCircle
 10
6.822336014943445
 20
4.136623745584574
 40
0.5503
  0
CIRCLE
  5
123
100
AcDbEntity
  8
removal_annuli
  6
ByLayer
 62
  256
370
   -1
100
AcDbCircle
 10
7.739116925236877
 20
4.136683202172807
 40
0.5503
  0
CIRCLE
  5
124
100
AcDbEntity
  8
removal_annuli
  6
ByLayer
 62
  256
370
   -1
100
AcDbCircle
 10
8.655907991575999
 20
4.136652786276068
 40
0.5503
  0
CIRCLE
  5
125
100
AcDbEntity
  8
removal_annuli
  6
ByLayer
 62
  256
370
   -1
100
AcDbCircle
 10
8.655873786156398
 20
3.155133429703699
 40
0.5503
  0
CIRCLE
  5
126
100
AcDbEntity
  8
removal_annuli
  6
ByLayer
 62
  256
370
   -1
100
AcDbCircle
 10
7.739108144391188
 20
3.155137696520857
 40
0.5503
  0
CIRCLE
  5
127
100
AcDbEntity
  8
removal_annuli
  6
ByLayer
 62
  256
370
   -1
100
AcDbCircle
 10
6.822301645491095
 20
3.155180347332352
 40
0.5503
  0
CIRCLE
  5
128
100
AcDbEntity
  8
removal_annuli
  6
ByLayer
 62
  256
370
   -1
100
AcDbCircle
 10
5.905552557303292
 20
3.155199937034088
 40
0.5503
  0
CIRCLE
  5
129
100
AcDbEntity
  8
removal_annuli
  6
ByLayer
 62
  256
370
   -1
100
AcDbCircle
 10
4.988740478402304
 20
3.155113283046798
 40
0.5503
  0
CIRCLE
  5
12A
100
AcDbEntity
  8
removal_annuli
  6
ByLayer
 62
  256
370
   -1
100
AcDbCircle
 10
4.071979666622445
 20
3.155197998661511
 40
0.5503
  0
CIRCLE
  5
12B
100
AcDbEntity
  8
removal_annuli
  6
ByLayer
 62
  256
370
   -1
100
AcDbCircle
 10
3.155220617002083
 20
3.155157870046726
 40
0.5503
  0
LINE
  5
12C
100
AcDbEntity
  8
construction
  6
ByLayer
 62
  256
370
   -1
100
AcDbLine
 10
3.155163284468437
 20
6.099589963773572
 11
4.071952388158842
 21
7.081061727925109
  0
LINE
  5
12D
100
AcDbEntity
  8
construction
  6
ByLayer
 62
  256
370
   -1
100
AcDbLine
 10
3.155169529158794
 20
5.1180911704336
 11
4.071956364668877
 21
6.099550688921726
  0
LINE
  5
12E
100
AcDbEntity
  8
construction
  6
ByLayer
 62
  256
370
   -1
100
AcDbLine
 10
4.071956364668877
 20
6.099550688921726
 11
4.988734907609372
 21
7.081069049125214
  0
LINE
  5
12F
100
AcDbEntity
  8
construction
  6
ByLayer
 62
  256
370
   -1
100
AcDbLine
 10
3.155188479903317
 20
4.13668896695321
 11
4.071985712515922
 21
5.118123383353494
  0
LINE
  5
130
100
AcDbEntity
  8
construction
  6
ByLayer
 62
  256
370
   -1
100
AcDbLine
 10
4.071985712515922
 20
5.118123383353494
 11
4.98874723711103
 21
6.099573635731448
  0
LINE
  5
131
100
AcDbEntity
  8
construction
  6
ByLayer
 62
  256
370
   -1
100
AcDbLine
 10
4.98874723711103
 20
6.099573635731448
 11
5.905516991488131
 21
7.081017394588474
  0
LINE
  5
132
100
AcDbEntity
  8
construction
  6
ByLayer
 62
  256
370
   -1
100
AcDbLine
 10
3.155220617002083
 20
3.155157870046726
 11
4.071967752391819
 21
4.136690608850699
  0
LINE
  5
133
100
AcDbEntity
  8
construction
  6
ByLayer
 62
  256
370
   -1
100
AcDbLine
 10
4.071967752391819
 20
4.136690608850699
 11
4.988762754116983
 21
5.118152936733088
  0
LINE
  5
134
100
AcDbEntity
  8
construction
  6
ByLayer
 62
  256
370
   -1
100
AcDbLine
 10
4.988762754116983
 20
5.118152936733088
 11
5.90551863228533
 21
6.099566778392393
  0
LINE
  5
135
100
AcDbEntity
  8
construction
  6
ByLayer
 62
  256
370
   -1
100
AcDbLine
 10
5.90551863228533
 20
6.099566778392393
 11
6.822327443360078
 21
7.08103600226328
  0
LINE
  5
136
100
AcDbEntity
  8
construction
  6
ByLayer
 62
  256
370
   -1
100
AcDbLine
 10
4.071979666622445
 20
3.155197998661511
 11
4.988764345113972
 21
4.136638327783558
  0
LINE
  5
137
100
AcDbEntity
  8
construction
  6
ByLayer
 62
  256
370
   -1
100
AcDbLine
 10
4.988764345113972
 20
4.136638327783558
 11
5.905514751264633
 21
5.118077633082051
  0
LINE
  5
138
100
AcDbEntity
  8
construction
  6
ByLayer
 62
  256
370
   -1
100
AcDbLine
 10
5.905514751264633
 20
5.118077633082051
 11
6.822307576776494
 21
6.099558706543051
  0
LINE
  5
139
100
AcDbEntity
  8
construction
  6
ByLayer
 62
  256
370
   -1
100
AcDbLine
 10
6.822307576776494
 20
6.099558706543051
 11
7.739108898093014
 21
7.081045776725344
  0
LINE
  5
13A
100
AcDbEntity
  8
construction
  6
ByLayer
 62
  256
370
   -1
100
AcDbLine
 10
4.988740478402304
 20
3.155113283046798
 11
5.905537583163774
 21
4.13660348947745
  0
LINE
  5
13B
100
AcDbEntity
  8
construction
  6
ByLayer
 62
  256
370
   -1
100
AcDbLine
 10
5.905537583163774
 20
4.13660348947745
 11
6.822344143167768
 21
5.118106100559911
  0
LINE
  5
13C
100
AcDbEntity
  8
construction
  6
ByLayer
 62
  256
370
   -1
100
AcDbLine
 10
6.822344143167768
 20
5.118106100559911
 11
7.739112453721655
 21
6.099561027917829
  0
LINE
  5
13D
100
AcDbEntity
  8
construction
  6
ByLayer
 62
  256
370
   -1
100
AcDbLine
 10
7.739112453721655
 20
6.099561027917829
 11
8.655904926253656
 21
7.081068962576858
  0
LINE
  5
13E
100
AcDbEntity
  8
construction
  6
ByLayer
 62
  256
370
   -1
100
AcDbLine
 10
5.905552557303292
 20
3.155199937034088
 11
6.822336014943445
 21
4.136623745584574
  0
LINE
  5
13F
100
AcDbEntity
  8
construction
  6
ByLayer
 62
  256
370
   -1
100
AcDbLine
 10
6.822336014943445
 20
4.136623745584574
 11
7.739108987761099
 21
5.118162421193705
  0
LINE
  5
140
100
AcDbEntity
  8
construction
  6
ByLayer
 62
  256
370
   -1
100
AcDbLine
 10
7.739108987761099
 20
5.118162421193705
 11
8.655891079721219
 21
6.099637585936494
  0
LINE
  5
141
100
AcDbEntity
  8
construction
  6
ByLayer
 62
  256
370
   -1
100
AcDbLine
 10
6.822301645491095
 20
3.155180347332352
 11
7.739116925236877
 21
4.136683202172807
  0
LINE
  5
142
100
AcDbEntity
  8
construction
  6
ByLayer
 62
  256
370
   -1
100
AcDbLine
 10
7.739116925236877
 20
4.136683202172807
 11
8.655877268676614
 21
5.118113
  0
LINE
  5
143
100
AcDbEntity
  8
construction
  6
ByLayer
 62
  256
370
   -1
100
AcDbLine
 10
7.739108144391188
 20
3.155137696520857
 11
8.655907991575999
 21
4.136652786276068
  0
CIRCLE
  5
144
100
AcDbEntity
  8
removal_pockets
  6
ByLayer
 62
  256
370
   -1
100
AcDbCircle
 10
3.61355783631364
 20
6.590325845849341
 40
0.3
  0
CIRCLE
  5
145
100
AcDbEntity
  8
removal_pockets
  6
ByLayer
 62
  256
370
   -1
100
AcDbCircle
 10
4.530345636139124
 20
6.59030986902347
 40
0.3
  0
CIRCLE
  5
146
100
AcDbEntity
  8
removal_pockets
  6
ByLayer
 62
  256
370
   -1
100
AcDbCircle
 10
5.447132114299581
 20
6.590295515159961
 40
0.3
  0
CIRCLE
  5
147
100
AcDbEntity
  8
removal_pockets
  6
ByLayer
 62
  256
370
   -1
100
AcDbCircle
 10
6.363923037822704
 20
6.590301390327836
 40
0.3
  0
CIRCLE
  5
148
100
AcDbEntity
  8
removal_pockets
  6
ByLayer
 62
  256
370
   -1
100
AcDbCircle
 10
7.280708237434753
 20
6.590302241634197
 40
0.3
  0
CIRCLE
  5
149
100
AcDbEntity
  8
removal_pockets
  6
ByLayer
 62
  256
370
   -1
100
AcDbCircle
 10
8.197508689987655
 20
6.590314995247343
 40
0.3
  0
CIRCLE
  5
14A
100
AcDbEntity
  8
removal_pockets
  6
ByLayer
 62
  256
370
   -1
100
AcDbCircle
 10
8.197500033741159
 20
5.6089000035651
 40
0.3
  0
CIRCLE
  5
14B
100
AcDbEntity
  8
removal_pockets
  6
ByLayer
 62
  256
370
   -1
100
AcDbCircle
 10
7.280728298444711
 20
5.60883356423887
 40
0.3
  0
CIRCLE
  5
14C
100
AcDbEntity
  8
removal_pockets
  6
ByLayer
 62
  256
370
   -1
100
AcDbCircle
 10
6.363911164020563
 20
5.608818169812551
 40
0.3
  0
CIRCLE
  5
14D
100
AcDbEntity
  8
removal_pockets
  6
ByLayer
 62
  256
370
   -1
100
AcDbCircle
 10
5.447140693201156
 20
5.60885985756274
 40
0.3
  0
CIRCLE
  5
14E
100
AcDbEntity
  8
removal_pockets
  6
ByLayer
 62
  256
370
   -1
100
AcDbCircle
 10
4.530366474813476
 20
5.60884850954247
 40
0.3
  0
CIRCLE
  5
14F
100
AcDbEntity
  8
removal_pockets
  6
ByLayer
 62
  256
370
   -1
100
AcDbCircle
 10
3.613562946913835
 20
5.608820929677663
 40
0.3
  0
CIRCLE
  5
150
100
AcDbEntity
  8
removal_pockets
  6
ByLayer
 62
  256
370
   -1
100
AcDbCircle
 10
3.613587096209619
 20
4.627406175153352
 40
0.3
  0
CIRCLE
  5
151
100
AcDbEntity
  8
removal_pockets
  6
ByLayer
 62
  256
370
   -1
100
AcDbCircle
 10
4.5303652532544
 20
4.627421772791894
 40
0.3
  0
CIRCLE
  5
152
100
AcDbEntity
  8
removal_pockets
  6
ByLayer
 62
  256
370
   -1
100
AcDbCircle
 10
5.447139548189302
 20
4.627357980432805
 40
0.3
  0
CIRCLE
  5
153
100
AcDbEntity
  8
removal_pockets
  6
ByLayer
 62
  256
370
   -1
100
AcDbCircle
 10
6.363940863165771
 20
4.627354795018681
 40
0.3
  0
CIRCLE
  5
154
100
AcDbEntity
  8
removal_pockets
  6
ByLayer
 62
  256
370
   -1
100
AcDbCircle
 10
7.280722501352272
 20
4.627393083389139
 40
0.3
  0
CIRCLE
  5
155
100
AcDbEntity
  8
removal_pockets
  6
ByLayer
 62
  256
370
   -1
100
AcDbCircle
 10
8.197497096956745
 20
4.627398101086404
 40
0.3
  0
CIRCLE
  5
156
100
AcDbEntity
  8
removal_pockets
  6
ByLayer
 62
  256
370
   -1
100
AcDbCircle
 10
8.197508067983593
 20
3.645895241398462
 40
0.3
  0
CIRCLE
  5
157
100
AcDbEntity
  8
removal_pockets
  6
ByLayer
 62
  256
370
   -1
100
AcDbCircle
 10
7.280709285363987
 20
3.645931774752579
 40
0.3
  0
CIRCLE
  5
158
100
AcDbEntity
  8
removal_pockets
  6
ByLayer
 62
  256
370
   -1
100
AcDbCircle
 10
6.363944286123369
 20
3.645911841309331
 40
0.3
  0
CIRCLE
  5
159
100
AcDbEntity
  8
removal_pockets
  6
ByLayer
 62
  256
370
   -1
100
AcDbCircle
 10
5.447139030783039
 20
3.645858386262124
 40
0.3
  0
CIRCLE
  5
15A
100
AcDbEntity
  8
removal_pockets
  6
ByLayer
 62
  256
370
   -1
100
AcDbCircle
 10
4.530372005868209
 20
3.645918163222535
 40
0.3
  0
CIRCLE
  5
15B
100
AcDbEntity
  8
removal_pockets
  6
ByLayer
 62
  256
370
   -1
100
AcDbCircle
 10
3.613594184696951
 20
3.645924239448713
 40
0.3
  0
LINE
  5
15C
100
AcDbEntity
  8
construction
  6
ByLayer
 62
  256
370
   -1
100
AcDbLine
 10
2.696770036488155
 20
6.590341822675212
 11
3.61355783631364
 21
6.590325845849341
  0
LINE
  5
15D
100
AcDbEntity
  8
construction
  6
ByLayer
 62
  256
370
   -1
100
AcDbLine
 10
2.696775147088351
 20
5.608836906503534
 11
3.613562946913835
 21
5.608820929677663
  0
LINE
  5
15E
100
AcDbEntity
  8
construction
  6
ByLayer
 62
  256
370
   -1
100
AcDbLine
 10
2.696780257688546
 20
4.627331990331855
 11
3.613568057514031
 21
4.627316013505984
  0
LINE
  5
15F
100
AcDbEntity
  8
construction
  6
ByLayer
 62
  256
370
   -1
100
AcDbLine
 10
2.696785368288742
 20
3.645827074160177
 11
3.613573168114226
 21
3.645811097334306
  0
LINE
  5
160
100
AcDbEntity
  8
construction
  6
ByLayer
 62
  256
370
   -1
100
AcDbLine
 10
8.197508689987655
 20
6.590314995247343
 11
9.114296489813139
 21
6.590299018421472
  0
LINE
  5
161
100
AcDbEntity
  8
construction
  6
ByLayer
 62
  256
370
   -1
100
AcDbLine
 10
8.197513800587851
 20
5.608810079075665
 11
9.114301600413334
 21
5.608794102249794
  0
LINE
  5
162
100
AcDbEntity
  8
construction
  6
ByLayer
 62
  256
370
   -1
100
AcDbLine
 10
8.197518911188046
 20
4.627305162903987
 11
9.11430671101353
 21
4.627289186078116
  0
LINE
  5
163
100
AcDbEntity
  8
construction
  6
ByLayer
 62
  256
370
   -1
100
AcDbLine
 10
8.197524021788242
 20
3.645800246732309
 11
9.114311821613725
 21
3.645784269906438
  0
LINE
  5
164
100
AcDbEntity
  8
construction
  6
ByLayer
 62
  256
370
   -1
100
AcDbLine
 10
3.61355783631364
 20
6.590325845849341
 11
3.613552725713444
 21
7.571830762021019
  0
LINE
  5
165
100
AcDbEntity
  8
construction
  6
ByLayer
 62
  256
370
   -1
100
AcDbLine
 10
4.530345636139124
 20
6.59030986902347
 11
4.530340525538929
 21
7.571814785195148
  0
LINE
  5
166
100
AcDbEntity
  8
construction
  6
ByLayer
 62
  256
370
   -1
100
AcDbLine
 10
5.447133435964608
 20
6.590293892197598
 11
5.447128325364413
 21
7.571798808369277
  0
LINE
  5
167
100
AcDbEntity
  8
construction
  6
ByLayer
 62
  256
370
   -1
100
AcDbLine
 10
6.363921235790093
 20
6.590277915371727
 11
6.363916125189897
 21
7.571782831543405
  0
LINE
  5
168
100
AcDbEntity
  8
construction
  6
ByLayer
 62
  256
370
   -1
100
AcDbLine
 10
7.280709035615577
 20
6.590261938545856
 11
7.280703925015382
 21
7.571766854717534
  0
LINE
  5
169
100
AcDbEntity
  8
construction
  6
ByLayer
 62
  256
370
   -1
100
AcDbLine
 10
8.197496835441061
 20
6.590245961719985
 11
8.197491724840866
 21
7.571750877891663
  0
LINE
  5
16A
100
AcDbEntity
  8
construction
  6
ByLayer
 62
  256
370
   -1
100
AcDbLine
 10
3.613578278714422
 20
2.664306181162628
 11
3.613573168114226
 21
3.645811097334306
  0
LINE
  5
16B
100
AcDbEntity
  8
construction
  6
ByLayer
 62
  256
370
   -1
100
AcDbLine
 10
4.530366078539906
 20
2.664290204336757
 11
4.530360967939711
 21
3.645795120508435
  0
LINE
  5
16C
100
AcDbEntity
  8
construction
  6
ByLayer
 62
  256
370
   -1
100
AcDbLine
 10
5.44715387836539
 20
2.664274227510885
 11
5.447148767765195
 21
3.645779143682564
  0
LINE
  5
16D
100
AcDbEntity
  8
construction
  6
ByLayer
 62
  256
370
   -1
100
AcDbLine
 10
6.363941678190875
 20
2.664258250685014
 11
6.363936567590679
 21
3.645763166856693
  0
LINE
  5
16E
100
AcDbEntity
  8
construction
  6
ByLayer
 62
  256
370
   -1
100
AcDbLine
 10
7.280729478016359
 20
2.664242273859143
 11
7.280724367416163
 21
3.645747190030821
  0
LINE
  5
16F
100
AcDbEntity
  8
construction
  6
ByLayer
 62
  256
370
   -1
100
AcDbLine
 10
8.197517277841843
 20
2.664226297033272
 11
8.197512167241648
 21
3.64573121320495
  0
CIRCLE
  5
170
100
AcDbEntity
  8
removal_pockets
  6
ByLayer
 62
  256
370
   -1
100
AcDbCircle
 10
2.696749019905431
 20
6.590228680560806
 40
0.3
  0
CIRCLE
  5
171
100
AcDbEntity
  8
removal_pockets
  6
ByLayer
 62
  256
370
   -1
100
AcDbCircle
 10
2.696754130505626
 20
5.608723764389127
 40
0.3
  0
CIRCLE
  5
172
100
AcDbEntity
  8
removal_pockets
  6
ByLayer
 62
  256
370
   -1
100
AcDbCircle
 10
2.69677827980141
 20
4.627309009864817
 40
0.3
  0
CIRCLE
  5
173
100
AcDbEntity
  8
removal_pockets
  6
ByLayer
 62
  256
370
   -1
100
AcDbCircle
 10
2.696785368288742
 20
3.645827074160177
 40
0.3
  0
CIRCLE
  5
174
100
AcDbEntity
  8
removal_pockets
  6
ByLayer
 62
  256
370
   -1
100
AcDbCircle
 10
3.613552725713444
 20
7.571830762021019
 40
0.3
  0
CIRCLE
  5
175
100
AcDbEntity
  8
removal_pockets
  6
ByLayer
 62
  256
370
   -1
100
AcDbCircle
 10
4.530340525538929
 20
7.571814785195148
 40
0.3
  0
CIRCLE
  5
176
100
AcDbEntity
  8
removal_pockets
  6
ByLayer
 62
  256
370
   -1
100
AcDbCircle
 10
5.447127003699386
 20
7.571800431331639
 40
0.3
  0
CIRCLE
  5
177
100
AcDbEntity
  8
removal_pockets
  6
ByLayer
 62
  256
370
   -1
100
AcDbCircle
 10
6.363917927222508
 20
7.571806306499514
 40
0.3
  0
CIRCLE
  5
178
100
AcDbEntity
  8
removal_pockets
  6
ByLayer
 62
  256
370
   -1
100
AcDbCircle
 10
7.280703126834558
 20
7.571807157805876
 40
0.3
  0
CIRCLE
  5
179
100
AcDbEntity
  8
removal_pockets
  6
ByLayer
 62
  256
370
   -1
100
AcDbCircle
 10
8.19750357938746
 20
7.571819911419022
 40
0.3
  0
CIRCLE
  5
17A
100
AcDbEntity
  8
removal_pockets
  6
ByLayer
 62
  256
370
   -1
100
AcDbCircle
 10
2.696743909305235
 20
7.571733596732484
 40
0.3
  0
CIRCLE
  5
17B
100
AcDbEntity
  8
removal_pockets
  6
ByLayer
 62
  256
370
   -1
100
AcDbCircle
 10
9.114308344359733
 20
6.590368051948831
 40
0.3
  0
CIRCLE
  5
17C
100
AcDbEntity
  8
removal_pockets
  6
ByLayer
 62
  256
370
   -1
100
AcDbCircle
 10
9.114299688113237
 20
5.608953060266587
 40
0.3
  0
CIRCLE
  5
17D
100
AcDbEntity
  8
removal_pockets
  6
ByLayer
 62
  256
370
   -1
100
AcDbCircle
 10
9.114296751328823
 20
4.627451157787891
 40
0.3
  0
CIRCLE
  5
17E
100
AcDbEntity
  8
removal_pockets
  6
ByLayer
 62
  256
370
   -1
100
AcDbCircle
 10
9.114307722355671
 20
3.64594829809995
 40
0.3
  0
CIRCLE
  5
17F
100
AcDbEntity
  8
removal_pockets
  6
ByLayer
 62
  256
370
   -1
100
AcDbCircle
 10
9.114303233759538
 20
7.571872968120509
 40
0.3
  0
CIRCLE
  5
180
100
AcDbEntity
  8
removal_pockets
  6
ByLayer
 62
  256
370
   -1
100
AcDbCircle
 10
8.197513178583788
 20
2.664390325226784
 40
0.3
  0
CIRCLE
  5
181
100
AcDbEntity
  8
removal_pockets
  6
ByLayer
 62
  256
370
   -1
100
AcDbCircle
 10
7.280714395964182
 20
2.664426858580901
 40
0.3
  0
CIRCLE
  5
182
100
AcDbEntity
  8
removal_pockets
  6
ByLayer
 62
  256
370
   -1
100
AcDbCircle
 10
6.363949396723564
 20
2.664406925137653
 40
0.3
  0
CIRCLE
  5
183
100
AcDbEntity
  8
removal_pockets
  6
ByLayer
 62
  256
370
   -1
100
AcDbCircle
 10
5.447144141383235
 20
2.664353470090446
 40
0.3
  0
CIRCLE
  5
184
100
AcDbEntity
  8
removal_pockets
  6
ByLayer
 62
  256
370
   -1
100
AcDbCircle
 10
4.530377116468404
 20
2.664413247050856
 40
0.3
  0
CIRCLE
  5
185
100
AcDbEntity
  8
removal_pockets
  6
ByLayer
 62
  256
370
   -1
100
AcDbCircle
 10
3.613599295297147
 20
2.664419323277035
 40
0.3
  0
CIRCLE
  5
186
100
AcDbEntity
  8
removal_pockets
  6
ByLayer
 62
  256
370
   -1
100
AcDbCircle
 10
2.696790478888937
 20
2.664322157988499
 40
0.3
  0
CIRCLE
  5
187
100
AcDbEntity
  8
removal_pockets
  6
ByLayer
 62
  256
370
   -1
100
AcDbCircle
 10
9.114312832955866
 20
2.664443381928272
 40
0.3
  0
LWPOLYLINE
  5
188
100
AcDbEntity
  8
construction
  6
ByLayer
 62
  256
370
   -1
100
AcDbPolyline
 90
    4
 70
    1
 43
0
 10
2.696790478888937
 20
2.664322157988499
 10
9.114303233759538
 20
2.664322157988499
 10
9.114303233759538
 20
7.571872968120509
 10
2.696790478888937
 20
7.571872968120509
  0
LINE
  5
189
100
AcDbEntity
  8
construction
  6
ByLayer
 62
  256
370
   -1
100
AcDbLine
 10
0.413369
 20
9.114179999999999
 11
11.3976
 21
9.114179999999999
  0
LINE
  5
18A
100
AcDbEntity
  8
construction
  6
ByLayer
 62
  256
370
   -1
100
AcDbLine
 10
0.413369
 20
9.114179999999999
 11
0.413372
 21
1.12205
  0
LINE
  5
18B
100
AcDbEntity
  8
construction
  6
ByLayer
 62
  256
370
   -1
100
AcDbLine
 10
0.413372
 20
1.12205
 11
11.3976
 21
1.12205
  0
LINE
  5
18C
100
AcDbEntity
  8
construction
  6
ByLayer
 62
  256
370
   -1
100
AcDbLine
 10
11.3976
 20
9.114179999999999
 11
11.3976
 21
1.12205
  0
CIRCLE
  5
18D
100
AcDbEntity
  8
mount_hole_1/4-20
  6
ByLayer
 62
  256
370
   -1
100
AcDbCircle
 10
5.905484500000001
 20
9.114179999999999
 40
0.133
  0
CIRCLE
  5
18E
100
AcDbEntity
  8
mount_hole_1/4-20
  6
ByLayer
 62
  256
370
   -1
100
AcDbCircle
 10
0.4133705
 20
5.118115
 40
0.133
  0
CIRCLE
  5
18F
100
AcDbEntity
  8
mount_hole_1/4-20
  6
ByLayer
 62
  256
370
   -1
100
AcDbCircle
 10
5.905486
 20
1.12205
 40
0.133
  0
CIRCLE
  5
190
100
AcDbEntity
  8
mount_hole_1/4-20
  6
ByLayer
 62
  256
370
   -1
100
AcDbCircle
 10
11.3976
 20
5.118115
 40
0.133
  0
ARC
  5
191
100
AcDbEntity
  8
outer_boundary
  6
ByLayer
 62
  256
370
   -1
100
AcDbCircle
 10
11.561024
 20
9.986219999999999
 40
0.25
100
AcDbArc
 50
0
 51
89.99999999999959
  0
LINE
  5
192
100
AcDbEntity
  8
outer_boundary
  6
ByLayer
 62
  256
370
   -1
100
AcDbLine
 10
0.25
 20
10.23622
 11
11.561024
 21
10.23622
  0
ARC
  5
193
100
AcDbEntity
  8
outer_boundary
  6
ByLayer
 62
  256
370
   -1
100
AcDbCircle
 10
0.25
 20
9.986219999999999
 40
0.25
100
AcDbArc
 50
90
 51
180
  0
LINE
  5
194
100
AcDbEntity
  8
outer_boundary
  6
ByLayer
 62
  256
370
   -1
100
AcDbLine
 10
0
 20
9.986219999999999
 11
0
 21
0.25
  0
ARC
  5
195
100
AcDbEntity
  8
outer_boundary
  6
ByLayer
 62
  256
370
   -1
100
AcDbCircle
 10
0.25
 20
0.25
 40
0.25
100
AcDbArc
 50
180
 51
269.9999999999996
  0
LINE
  5
196
100
AcDbEntity
  8
outer_boundary
  6
ByLayer
 62
  256
370
   -1
100
AcDbLine
 10
11.561024
 20
0
 11
0.2499999999999982
 21
0
  0
LINE
  5
197
100
AcDbEntity
  8
outer_boundary
  6
ByLayer
 62
  256
370
   -1
100
AcDbLine
 10
11.811024
 20
9.986219999999999
 11
11.811024
 21
0.25
  0
ARC
  5
198
100
AcDbEntity
  8
outer_boundary
  6
ByLayer
 62
  256
370
   -1
100
AcDbCircle
 10
11.561024
 20
0.25
 40
0.25
100
AcDbArc
 50
270
 51
0
  0
LINE
  5
199
100
AcDbEntity
  8
construction
  6
ByLayer
 62
  256
370
   -1
100
AcDbLine
 10
5.905552557303292
 20
3.155199937034088
 11
8.905552557303292
 21
3.155199937034088
  0
LINE
  5
19A
100
AcDbEntity
  8
construction
  6
ByLayer
 62
  256
370
   -1
100
AcDbLine
 10
6.822301645491095
 20
3.155180347332352
 11
9.822301645491095
 21
3.155180347332352
  0
DIMENSION
  5
19B
100
AcDbEntity
  8
construction
  6
ByLayer
 62
  256
370
   -1
100
AcDbDimension
  2
*D12
 10
6.455852557303306
 20
2.401877767668021
 30
0
 11
6.328355542749033
 21
2.551877767668021
 31
0
 70
   32
 71
    5
 72
    0
  3
Standard
 53
0
210
0
220
0
230
1
100
AcDbAlignedDimension
 13
6.200858528194759
 23
3.155199937034088
 33
0
 14
6.455852557303306
 24
3.155199937034088
 34
0
100
AcDbRotatedDimension
  0
LINE
  5
19C
100
AcDbEntity
  8
construction
  6
ByLayer
 62
  256
370
   -1
100
AcDbLine
 10
2.696790478888937
 20
2.664322157988499
 11
2.571790478888937
 21
2.664322157988499
  0
LINE
  5
19D
100
AcDbEntity
  8
construction
  6
ByLayer
 62
  256
370
   -1
100
AcDbLine
 10
2.696790478888937
 20
2.664322157988499
 11
2.696790478888937
 21
2.539322157988499
  0
DIMENSION
  5
19E
100
AcDbEntity
  8
construction
  6
ByLayer
 62
  256
370
   -1
100
AcDbDimension
  2
*D13
 10
9.836963000000001
 20
7.571872968120509
 30
0
 11
9.47563311687977
 21
7.721872968120509
 31
0
 70
   32
 71
    5
  3
Standard
 53
0
210
0
220
0
230
1
100
AcDbAlignedDimension
 13
9.114303233759538
 23
7.571872968120509
 33
0
 14
9.836963000000001
 24
8.262163000000001
 34
0
100
AcDbRotatedDimension
  0
ENDSEC
  0
SECTION
  2
OBJECTS
  0
DICTIONARY
  5
C
330
0
100
AcDbDictionary
281
    1
  3
ACAD_GROUP
350
D
  0
DICTIONARY
  5
D
330
C
100
AcDbDictionary
281
    1
  0
ENDSEC
  0
EOF
